<svg width="56" height="57" viewBox="0 0 56 57" fill="none" xmlns="http://www.w3.org/2000/svg">
<g clip-path="url(#clip0_6164_7090)">
<rect y="0.263184" width="56" height="56" fill="#FFA900"/>
</g>
<path opacity="0.4" d="M28 14C24.07 14 20.875 17.195 20.875 21.125C20.875 24.98 23.89 28.1 27.82 28.235C27.94 28.22 28.06 28.22 28.15 28.235C28.18 28.235 28.195 28.235 28.225 28.235C28.24 28.235 28.24 28.235 28.255 28.235C32.095 28.1 35.11 24.98 35.125 21.125C35.125 17.195 31.93 14 28 14Z" fill="white"/>
<path d="M35.62 32.2248C31.435 29.4348 24.61 29.4348 20.395 32.2248C18.49 33.4998 17.44 35.2248 17.44 37.0698C17.44 38.9148 18.49 40.6248 20.38 41.8848C22.48 43.2948 25.24 43.9998 28 43.9998C30.76 43.9998 33.52 43.2948 35.62 41.8848C37.51 40.6098 38.56 38.8998 38.56 37.0398C38.545 35.1948 37.51 33.4848 35.62 32.2248Z" fill="white"/>
<defs>
<clipPath id="clip0_6164_7090">
<rect y="0.263184" width="56" height="56" rx="28" fill="white"/>
</clipPath>
</defs>
</svg>
