<svg width="36" height="36" viewBox="0 0 36 36" fill="none" xmlns="http://www.w3.org/2000/svg">
<rect width="36" height="36" rx="8" fill="#FFF7EE"/>
<path opacity="0.4" d="M21.4905 15.3832C21.1655 15.3832 20.9072 15.1248 20.9072 14.7998V13.7332C20.9072 12.9165 20.5572 12.1332 19.9572 11.5832C19.3405 11.0248 18.5488 10.7665 17.7155 10.8415C16.3155 10.9748 15.0905 12.3998 15.0905 13.8832V14.6332C15.0905 14.9582 14.8322 15.2165 14.5072 15.2165C14.1822 15.2165 13.9238 14.9582 13.9238 14.6332V13.8832C13.9238 11.7998 15.6072 9.87484 17.5988 9.68317C18.7572 9.57484 19.8738 9.9415 20.7322 10.7248C21.5822 11.4915 22.0655 12.5915 22.0655 13.7332V14.7998C22.0655 15.1248 21.8072 15.3832 21.4905 15.3832Z" fill="#FFA900"/>
<path d="M24.6338 15.4669C23.9338 14.6919 22.7838 14.3169 21.1004 14.3169H14.9004C13.2171 14.3169 12.0671 14.6919 11.3671 15.4669C10.5588 16.3669 10.5838 17.5669 10.6754 18.4002L11.2588 23.0419C11.4338 24.6669 12.0921 26.3336 15.6754 26.3336H20.3254C23.9088 26.3336 24.5671 24.6669 24.7421 23.0502L25.3254 18.3919C25.4171 17.5669 25.4338 16.3669 24.6338 15.4669ZM15.0171 18.9586H15.0088C14.5504 18.9586 14.1754 18.5836 14.1754 18.1252C14.1754 17.6669 14.5504 17.2919 15.0088 17.2919C15.4754 17.2919 15.8504 17.6669 15.8504 18.1252C15.8504 18.5836 15.4754 18.9586 15.0171 18.9586ZM20.8504 18.9586H20.8421C20.3838 18.9586 20.0088 18.5836 20.0088 18.1252C20.0088 17.6669 20.3838 17.2919 20.8421 17.2919C21.3088 17.2919 21.6838 17.6669 21.6838 18.1252C21.6838 18.5836 21.3088 18.9586 20.8504 18.9586Z" fill="#FFA900"/>
</svg>
