<svg width="36" height="36" viewBox="0 0 36 36" fill="none" xmlns="http://www.w3.org/2000/svg">
<rect width="36" height="36" rx="8" fill="#FFF7EE"/>
<path d="M21.5423 26.7502C22.3477 26.7502 23.0007 26.0972 23.0007 25.2918C23.0007 24.4864 22.3477 23.8335 21.5423 23.8335C20.7369 23.8335 20.084 24.4864 20.084 25.2918C20.084 26.0972 20.7369 26.7502 21.5423 26.7502Z" fill="#FFA900"/>
<path d="M14.8743 26.7502C15.6798 26.7502 16.3327 26.0972 16.3327 25.2918C16.3327 24.4864 15.6798 23.8335 14.8743 23.8335C14.0689 23.8335 13.416 24.4864 13.416 25.2918C13.416 26.0972 14.0689 26.7502 14.8743 26.7502Z" fill="#FFA900"/>
<path opacity="0.4" d="M12.0327 11.2832L11.866 13.3248C11.8327 13.7165 12.141 14.0415 12.5327 14.0415H25.291C25.641 14.0415 25.9327 13.7748 25.9577 13.4248C26.066 11.9498 24.941 10.7498 23.466 10.7498H13.241C13.1577 10.3832 12.991 10.0332 12.7327 9.7415C12.3243 9.29983 11.741 9.0415 11.141 9.0415H9.66602C9.32435 9.0415 9.04102 9.32484 9.04102 9.6665C9.04102 10.0082 9.32435 10.2915 9.66602 10.2915H11.116C11.3744 10.2915 11.616 10.3998 11.791 10.5832C11.966 10.7748 12.0493 11.0248 12.0327 11.2832Z" fill="#FFA900"/>
<path d="M25.0924 15.2915H12.309C11.959 15.2915 11.6757 15.5582 11.6424 15.8998L11.3424 19.5248C11.2257 20.9415 12.3424 22.1665 13.7674 22.1665H23.034C24.284 22.1665 25.384 21.1415 25.4757 19.8915L25.7507 15.9998C25.784 15.6165 25.484 15.2915 25.0924 15.2915Z" fill="#FFA900"/>
</svg>
