<svg width="36" height="36" viewBox="0 0 36 36" fill="none" xmlns="http://www.w3.org/2000/svg">
<rect width="36" height="36" rx="8" fill="#FFF7EE"/>
<path d="M25.5 21.5415H20.5C20.1583 21.5415 19.875 21.2582 19.875 20.9165C19.875 20.5748 20.1583 20.2915 20.5 20.2915H25.5C25.8417 20.2915 26.125 20.5748 26.125 20.9165C26.125 21.2582 25.8417 21.5415 25.5 21.5415Z" fill="#FFA900"/>
<path d="M25.5 24.875H20.5C20.1583 24.875 19.875 24.5917 19.875 24.25C19.875 23.9083 20.1583 23.625 20.5 23.625H25.5C25.8417 23.625 26.125 23.9083 26.125 24.25C26.125 24.5917 25.8417 24.875 25.5 24.875Z" fill="#FFA900"/>
<path opacity="0.4" d="M26.3333 15.0998V11.3165C26.3333 10.1415 25.8 9.6665 24.475 9.6665H21.1083C19.7833 9.6665 19.25 10.1415 19.25 11.3165V15.0915C19.25 16.2748 19.7833 16.7415 21.1083 16.7415H24.475C25.8 16.7498 26.3333 16.2748 26.3333 15.0998Z" fill="#FFA900"/>
<path d="M16.7493 15.0998V11.3165C16.7493 10.1415 16.216 9.6665 14.891 9.6665H11.5243C10.1993 9.6665 9.66602 10.1415 9.66602 11.3165V15.0915C9.66602 16.2748 10.1993 16.7415 11.5243 16.7415H14.891C16.216 16.7498 16.7493 16.2748 16.7493 15.0998Z" fill="#FFA900"/>
<path opacity="0.4" d="M16.7493 24.475V21.1083C16.7493 19.7833 16.216 19.25 14.891 19.25H11.5243C10.1993 19.25 9.66602 19.7833 9.66602 21.1083V24.475C9.66602 25.8 10.1993 26.3333 11.5243 26.3333H14.891C16.216 26.3333 16.7493 25.8 16.7493 24.475Z" fill="#FFA900"/>
</svg>
