<svg width="50" height="50" viewBox="0 0 50 50" fill="none" xmlns="http://www.w3.org/2000/svg">
<g clip-path="url(#clip0_4501_3042)">
<circle cx="25" cy="25" r="25" fill="#E7EDFF"/>
<path d="M33.631 20.3474C33.6184 18.9563 33.0575 17.6263 32.0701 16.6462C31.0826 15.6662 29.7484 15.1154 28.3571 15.1133H20.681C20.4903 15.1109 20.3051 15.177 20.1591 15.2997C20.0131 15.4223 19.916 15.5933 19.8856 15.7815L17.1651 32.844C17.1481 32.957 17.1556 33.0723 17.1872 33.1822C17.2188 33.292 17.2736 33.3937 17.3481 33.4804C17.422 33.5692 17.5144 33.6408 17.6188 33.6902C17.7232 33.7397 17.8371 33.7658 17.9526 33.7668H21.2378L21.0628 34.8724C21.0442 34.987 21.051 35.1043 21.0825 35.216C21.1141 35.3278 21.1697 35.4312 21.2455 35.5192C21.3213 35.6071 21.4155 35.6774 21.5213 35.725C21.6272 35.7727 21.7422 35.7967 21.8583 35.7952H25.5571C25.7466 35.7979 25.9309 35.7329 26.0767 35.6119C26.2226 35.4908 26.3204 35.3217 26.3526 35.1349L27.1481 30.2747H29.6537C31.222 30.2684 32.7241 29.6415 33.8316 28.5311C34.939 27.4206 35.5619 25.9169 35.564 24.3486V24.1258C35.5632 23.3881 35.3876 22.6611 35.0516 22.0043C34.7156 21.3476 34.2288 20.7798 33.631 20.3474ZM21.3571 16.7043H28.3571C29.1917 16.7068 30.0008 16.9921 30.6523 17.5137C31.3038 18.0352 31.7594 18.7621 31.9446 19.5758C31.6005 19.4951 31.2481 19.4551 30.8946 19.4565H24.2606C24.0699 19.4541 23.8847 19.5202 23.7387 19.6428C23.5927 19.7655 23.4956 19.9365 23.4651 20.1247L22.9958 23.0679C22.962 23.2789 23.0135 23.4946 23.1388 23.6676C23.2641 23.8407 23.453 23.9569 23.664 23.9906C23.8749 24.0244 24.0907 23.9729 24.2637 23.8476C24.4368 23.7223 24.5529 23.5334 24.5867 23.3224L24.9526 21.0315H30.9106C31.2919 21.0335 31.6695 21.1064 32.0242 21.2463C31.873 22.4915 31.2722 23.6387 30.3347 24.4722C29.3973 25.3056 28.1877 25.768 26.9333 25.7724H23.2424C23.0529 25.7697 22.8686 25.8347 22.7228 25.9557C22.5769 26.0768 22.4791 26.2459 22.4469 26.4327L21.4765 32.1758H18.8833L21.3571 16.7043ZM33.9731 24.3486C33.971 25.495 33.5157 26.594 32.7066 27.4061C31.8975 28.2182 30.8001 28.6775 29.6537 28.6838H26.4719C26.2824 28.681 26.0982 28.746 25.9523 28.8671C25.8065 28.9881 25.7087 29.1573 25.6765 29.344L24.881 34.2043H22.781L22.956 33.0986L23.9106 27.3793H26.9174C28.4024 27.3749 29.8442 26.8795 31.0183 25.9701C32.1923 25.0608 33.0326 23.7887 33.4083 22.352C33.7775 22.8696 33.975 23.49 33.9731 24.1258V24.3486Z" fill="#396AFF"/>
</g>
<defs>
<clipPath id="clip0_4501_3042">
<rect width="50" height="50" fill="white"/>
</clipPath>
</defs>
</svg>
