<svg width="70" height="70" viewBox="0 0 70 70" fill="none" xmlns="http://www.w3.org/2000/svg">
<rect width="70" height="70" rx="35" fill="#FFF7EE"/>
<path opacity="0.4" d="M51.6654 28.0168V38.1668L48.9487 35.8335C47.6487 34.7168 45.5487 34.7168 44.2487 35.8335L37.3154 41.7835C36.0154 42.9002 33.9154 42.9002 32.6154 41.7835L32.0487 41.3168C30.8654 40.2835 28.982 40.1835 27.6487 41.0835L19.4487 46.5835L19.2654 46.7168C18.6487 45.3835 18.332 43.8002 18.332 41.9835V28.0168C18.332 21.9502 21.9487 18.3335 28.0154 18.3335H41.982C48.0487 18.3335 51.6654 21.9502 51.6654 28.0168Z" fill="#FFA900"/>
<path d="M30.0018 32.3C32.1926 32.3 33.9685 30.5241 33.9685 28.3334C33.9685 26.1426 32.1926 24.3667 30.0018 24.3667C27.8111 24.3667 26.0352 26.1426 26.0352 28.3334C26.0352 30.5241 27.8111 32.3 30.0018 32.3Z" fill="#FFA900"/>
<path d="M51.6656 38.1669V41.9836C51.6656 48.0503 48.049 51.6669 41.9823 51.6669H28.0156C23.7656 51.6669 20.699 49.8836 19.2656 46.7169L19.449 46.5836L27.649 41.0836C28.9823 40.1836 30.8656 40.2836 32.049 41.3169L32.6156 41.7836C33.9156 42.9003 36.0156 42.9003 37.3156 41.7836L44.249 35.8336C45.549 34.7169 47.649 34.7169 48.949 35.8336L51.6656 38.1669Z" fill="#FFA900"/>
</svg>
