<svg width="50" height="50" viewBox="0 0 50 50" fill="none" xmlns="http://www.w3.org/2000/svg">
<g clip-path="url(#clip0_4501_3053)">
<circle cx="25" cy="25" r="25" fill="#DCFAF8"/>
<path d="M25.4541 23.0718C25.905 23.0718 26.2733 23.4392 26.2733 23.8902C26.2733 24.3017 26.6078 24.6352 27.0194 24.6352C27.4299 24.6352 27.7644 24.3017 27.7644 23.8902C27.7644 22.8792 27.1058 22.0261 26.1991 21.7142V21.2913C26.1991 20.8808 25.8656 20.5453 25.4541 20.5453C25.0416 20.5453 24.708 20.8808 24.708 21.2913V21.7142C23.8014 22.0261 23.1446 22.8792 23.1446 23.8902C23.1446 25.1652 24.18 26.2005 25.4541 26.2005C25.905 26.2005 26.2733 26.5689 26.2733 27.0198C26.2733 27.4718 25.905 27.8391 25.4541 27.8391C25.0031 27.8391 24.6357 27.4718 24.6357 27.0198C24.6357 26.6083 24.3012 26.2738 23.8897 26.2738C23.4772 26.2738 23.1446 26.6083 23.1446 27.0198C23.1446 28.0308 23.8014 28.883 24.708 29.1949V29.6177C24.708 30.0302 25.0416 30.3647 25.4541 30.3647C25.8656 30.3647 26.1991 30.0302 26.1991 29.6177V29.1949C27.1058 28.883 27.7644 28.0308 27.7644 27.0198C27.7644 25.7458 26.7281 24.7095 25.4541 24.7095C25.0031 24.7095 24.6357 24.3421 24.6357 23.8902C24.6357 23.4392 25.0031 23.0718 25.4541 23.0718ZM31.7012 29.5952C32.0667 29.7878 32.5167 29.6478 32.7084 29.2851C33.3285 28.1135 33.6555 26.7887 33.6555 25.4545C33.6555 20.9334 29.9752 17.2541 25.4541 17.2541C20.9319 17.2541 17.2526 20.9334 17.2526 25.4545C17.2526 29.9766 20.9319 33.656 25.4541 33.656C26.7685 33.656 28.0745 33.3384 29.2311 32.7361C29.5966 32.5473 29.7384 32.0953 29.5486 31.7308C29.3589 31.3672 28.9088 31.2225 28.5424 31.4132C27.585 31.9131 26.5449 32.1658 25.4541 32.1658C21.7541 32.1658 18.7428 29.1555 18.7428 25.4545C18.7428 21.7555 21.7541 18.7442 25.4541 18.7442C29.154 18.7442 32.1653 21.7555 32.1653 25.4545C32.1653 26.5472 31.8966 27.6306 31.3911 28.587C31.1976 28.9516 31.3366 29.4026 31.7012 29.5952ZM25.4541 14.27C23.294 14.27 21.1969 14.8882 19.3901 16.0561C19.0434 16.2797 18.9448 16.7411 19.1684 17.0868C19.393 17.4326 19.8524 17.5303 20.2 17.3086C21.7635 16.2976 23.5824 15.762 25.4541 15.762C30.7992 15.762 35.1465 20.1103 35.1465 25.4545C35.1465 30.7997 30.7992 35.148 25.4541 35.148C20.1089 35.148 15.7606 30.7997 15.7606 25.4545C15.7606 23.6008 16.2858 21.7978 17.2808 20.2428C17.5026 19.8952 17.4011 19.4338 17.0534 19.2121C16.7067 18.9904 16.2454 19.0918 16.0246 19.4385C14.8765 21.234 14.2695 23.3161 14.2695 25.4545C14.2695 31.6227 19.2858 36.6391 25.4541 36.6391C31.6213 36.6391 36.6386 31.6227 36.6386 25.4545C36.6386 19.2882 31.6213 14.27 25.4541 14.27Z" fill="#16DBCC"/>
</g>
<defs>
<clipPath id="clip0_4501_3053">
<rect width="50" height="50" fill="white"/>
</clipPath>
</defs>
</svg>
