<svg width="123" height="117" viewBox="0 0 123 117" fill="none" xmlns="http://www.w3.org/2000/svg">
<path fill-rule="evenodd" clip-rule="evenodd" d="M61.4999 116.864C60.8692 116.988 60.215 117.03 59.5518 116.979C39.0678 115.426 19.6792 104.123 8.63241 85.0101C-2.41457 65.8959 -2.5189 43.4706 6.37768 24.9726C7.66928 22.2871 10.4692 20.6723 13.4432 20.8977C21.0767 21.4763 28.558 23.4089 35.5123 26.5952C40.7597 16.3741 48.5233 7.65477 57.9864 1.25296C60.4557 -0.417655 63.6861 -0.417655 66.1554 1.25296C75.49 7.56781 83.1704 16.1378 88.4141 26.1796C95.1046 23.2406 102.261 21.4507 109.557 20.8977C112.531 20.6723 115.331 22.2871 116.622 24.9726C125.519 43.4706 125.415 65.8959 114.368 85.0101C103.321 104.123 83.9323 115.426 63.4481 116.979C62.7848 117.03 62.1306 116.988 61.4999 116.864ZM76.5079 105.277C88.7869 101.105 99.647 92.6401 106.634 80.5502C115.935 64.4569 116.238 45.6382 109.068 29.8927C103.181 30.4633 97.4183 31.9675 92.0127 34.3424C94.6495 41.5891 96.0882 49.4103 96.0882 57.5681C96.0882 76.159 88.6159 93.0062 76.5079 105.277ZM80.5083 30.3275C76.1279 21.9264 69.7812 14.7072 62.0709 9.27567C54.195 14.8236 47.7424 22.2365 43.3542 30.8689C50.3385 35.3305 56.5431 41.1996 61.4999 48.3509C66.6603 40.9066 73.1726 34.8517 80.5083 30.3275ZM66.559 57.0023C71.0462 49.357 77.0888 43.1791 84.0581 38.6409C86.0696 44.5832 87.159 50.9487 87.159 57.5681C87.159 72.8497 81.3516 86.7782 71.8045 97.2699C74.3878 84.0167 72.8251 69.9012 66.559 57.0023ZM56.4408 57.0023C52.1563 49.7004 46.4512 43.7378 39.8764 39.2631C37.9975 45.0263 36.9824 51.1792 36.9824 57.5681C36.9824 72.066 42.2092 85.3464 50.8977 95.6284C48.7495 82.8561 50.4326 69.3706 56.4408 57.0023ZM61.4999 101.63C64.8524 90.9805 64.99 79.3643 61.4999 68.3518C58.0099 79.3643 58.1483 90.9805 61.4999 101.63ZM16.3655 80.5502C23.6705 93.1888 35.2081 101.867 48.174 105.819C35.748 93.5051 28.053 76.4338 28.053 57.5681C28.053 49.5766 29.4337 41.9072 31.9697 34.7851C26.2814 32.1538 20.1769 30.4979 13.9314 29.8927C6.7617 45.6382 7.06456 64.4569 16.3655 80.5502Z" fill="#E4572E"/>
</svg>
