<svg width="145" height="26" viewBox="0 0 145 26" fill="none" xmlns="http://www.w3.org/2000/svg">
<g clip-path="url(#clip0_5392_31929)">
<path fill-rule="evenodd" clip-rule="evenodd" d="M123.819 7.22066C125.283 4.33137 126.747 2.88708 129.676 2.88708C131.828 2.88708 133.71 4.03408 134.728 5.74229C128.312 7.42704 122.456 10.3064 118.18 14.8607C117.43 15.6602 116.664 16.5539 115.924 17.5396C113.64 14.5814 112.104 11.6235 112.104 8.66531C112.104 5.47579 114.728 2.88708 117.962 2.88708C120.89 2.88708 122.354 4.33173 123.819 7.22066ZM135.505 8.10849C135.523 8.29178 135.533 8.47726 135.533 8.66531C135.533 14.4435 129.676 20.2218 123.819 26C122.836 25.0311 121.854 24.0623 120.9 23.0935C122.258 19.515 124.492 16.8244 126.976 14.2925C127.504 13.7548 128.157 13.0132 128.782 12.5542C131.284 10.7166 133.204 9.29947 135.505 8.10849ZM119.106 21.2302C118.5 20.5832 117.914 19.9366 117.357 19.2896C119.347 16.3174 121.989 13.5381 124.002 12.1495C126.365 10.519 130.121 8.24376 132.997 7.74925C131.023 9.18181 129.702 9.1972 125.748 12.6001C124.962 13.276 124.441 13.9072 123.716 14.5751C123.243 15.0117 122.36 16.1514 121.893 16.772C120.982 17.9846 119.94 19.5902 119.106 21.2302Z" fill="#070602"/>
<path fill-rule="evenodd" clip-rule="evenodd" d="M140.302 6.1572C140.928 6.2943 141.565 6.56043 142.235 6.97172C144.981 8.65537 145.824 12.2206 144.118 14.9296C141.026 19.8368 132.959 21.6939 124.893 23.5509C124.461 21.7243 124.029 19.8977 123.657 18.1081C124.661 16.747 125.79 15.5014 126.977 14.2925C127.505 13.7547 128.158 13.0131 128.783 12.5542C132.795 9.60735 135.311 7.74151 140.302 6.1572ZM123.114 15.2287C122.993 14.5003 122.888 13.7822 122.804 13.0769C123.221 12.7239 123.623 12.4116 124.003 12.1491C126.366 10.5186 130.122 8.24334 132.998 7.74884C131.024 9.18139 129.703 9.19679 125.749 12.5997C124.963 13.2756 124.442 13.9068 123.717 14.5747C123.553 14.7254 123.341 14.9604 123.114 15.2287ZM122.623 11.0656C122.434 7.84415 122.809 4.96769 124.22 2.72758C125.927 0.0186383 129.541 -0.813107 132.287 0.870544C134.232 2.06373 134.944 3.54137 135.017 5.66747C130.499 6.82582 126.25 8.56922 122.623 11.0652V11.0656Z" fill="#FFA900"/>
<path d="M8.32063 24.7247C12.921 24.7247 16.2153 22.5114 16.2153 18.8695C16.2153 15.4234 13.7448 14.1349 8.88876 13.0982C5.65129 12.3977 4.43032 11.6415 4.43032 10.2126C4.43032 8.53153 5.76499 7.7753 8.06537 7.7753C10.1666 7.7753 12.1545 8.47581 13.546 9.45638L15.5056 6.82295C13.3476 5.28226 11.0754 4.4978 8.26416 4.4978C3.91941 4.4978 0.568244 6.48681 0.568244 10.1848C0.568244 13.687 3.35129 15.3398 7.89482 16.2922C11.0186 16.9644 12.3533 17.4688 12.3533 19.1499C12.3533 20.4388 11.0468 21.4472 8.54803 21.4472C6.07748 21.4472 3.7771 20.5788 1.67589 19.1499L0.000488281 21.9234C2.1017 23.6045 5.0553 24.7251 8.32101 24.7251L8.32063 24.7247Z" fill="#070602"/>
<path d="M32.2934 18.1133C32.4071 17.1888 32.464 16.6565 32.464 16.0403C32.464 11.8658 29.3971 8.81232 24.9669 8.81232C20.054 8.81232 16.7314 12.1463 16.7314 16.7408C16.7314 21.3633 20.281 24.6972 25.1939 24.6972C27.9769 24.6972 30.0499 23.6327 31.5834 22.0356L29.3116 20.0466C28.2894 21.1672 27.0967 21.5872 25.3645 21.5872C22.752 21.5872 20.8492 20.2984 20.3951 18.1133H32.2938H32.2934ZM24.9386 11.8937C27.0967 11.8937 28.5733 12.9864 28.9709 15.2276H20.4516C20.906 13.1826 22.5814 11.8937 24.9386 11.8937Z" fill="#070602"/>
<path d="M42.2661 8.75586C39.8806 8.75586 38.0915 9.65249 36.8988 10.941V9.092H33.3774V24.4164H36.8988V16.8523C36.8988 13.9945 38.8016 11.9776 41.4141 11.9776C43.8564 11.9776 45.0491 13.2665 45.0491 15.7038V24.4168H48.5705V15.2276C48.5705 11.1935 46.0431 8.75586 42.2661 8.75586Z" fill="#070602"/>
<path d="M63.0303 10.857C61.6957 9.48425 59.7364 8.75587 57.5497 8.75587C53.3183 8.75587 49.9106 11.8937 49.9106 16.7123C49.9106 21.3908 53.3469 24.7247 57.5211 24.7247C59.7078 24.7247 61.6674 23.9963 63.0303 22.5957V24.4168H66.5517V3.74121H63.0303V10.857ZM58.1461 21.559C55.363 21.559 53.432 19.6261 53.432 16.7123C53.432 13.8827 55.3916 11.9776 58.1461 11.9776C60.986 11.9776 63.0303 13.7427 63.0303 16.7405C63.0303 19.7383 60.9856 21.559 58.1461 21.559Z" fill="#070602"/>
<path d="M74.6501 24.6969C78.7392 24.6969 81.4372 22.9597 81.4372 19.878C81.4372 17.4406 80.1025 15.9278 75.2751 14.9194C72.634 14.3871 71.9243 14.0228 71.9243 13.1826C71.9243 12.342 72.6626 11.9498 74.0824 11.9498C76.0134 11.9498 78.0013 12.4542 79.4779 13.2947L80.8977 10.3813C79.3642 9.42855 76.3824 8.78448 74.3094 8.78448C70.5324 8.78448 68.3458 10.4656 68.3458 13.463C68.3458 15.9564 69.7373 17.3571 74.2808 18.1137C77.0638 18.5898 77.9158 18.9821 77.9158 20.0187C77.9158 21.1672 76.7231 21.5316 74.7921 21.5316C73.0316 21.5316 71.2139 21.0832 69.2828 19.9909L67.8345 22.8486C69.5385 23.8292 72.0659 24.6976 74.6498 24.6976L74.6501 24.6969Z" fill="#070602"/>
<path d="M86.2419 7.2152V3.85339H82.5786V7.2152H86.2419ZM86.1851 24.4168V9.0924H82.6637V24.4168H86.1851Z" fill="#070602"/>
<path d="M92.2958 24.4168V3.74121H88.7744V24.4168H92.2958Z" fill="#070602"/>
<path d="M109.595 18.1133C109.709 17.1888 109.766 16.6565 109.766 16.0403C109.766 11.8658 106.699 8.81232 102.269 8.81232C97.3558 8.81232 94.0332 12.1463 94.0332 16.7408C94.0332 21.3633 97.5828 24.6972 102.496 24.6972C105.279 24.6972 107.352 23.6327 108.885 22.0356L106.613 20.0466C105.591 21.1672 104.398 21.5872 102.666 21.5872C100.054 21.5872 98.1509 20.2984 97.6969 18.1133H109.596H109.595ZM102.24 11.8937C104.398 11.8937 105.875 12.9864 106.273 15.2276H97.7533C98.2078 13.1826 99.8832 11.8937 102.24 11.8937Z" fill="#070602"/>
</g>
<defs>
<clipPath id="clip0_5392_31929">
<rect width="145" height="26" fill="white"/>
</clipPath>
</defs>
</svg>
