<svg width="37" height="36" viewBox="0 0 37 36" fill="none" xmlns="http://www.w3.org/2000/svg">
<rect x="0.5" width="36" height="36" rx="8" fill="#FFF7EE"/>
<path opacity="0.4" d="M26.1829 15.0418C25.3079 11.1918 21.9496 9.4585 18.9996 9.4585C18.9996 9.4585 18.9996 9.4585 18.9913 9.4585C16.0496 9.4585 12.6829 11.1835 11.8079 15.0335C10.8329 19.3335 13.4663 22.9752 15.8496 25.2668C16.7329 26.1168 17.8663 26.5418 18.9996 26.5418C20.1329 26.5418 21.2663 26.1168 22.1413 25.2668C24.5246 22.9752 27.1579 19.3418 26.1829 15.0418Z" fill="#FFA900"/>
<path d="M19 19.2168C20.4497 19.2168 21.625 18.0415 21.625 16.5918C21.625 15.142 20.4497 13.9668 19 13.9668C17.5503 13.9668 16.375 15.142 16.375 16.5918C16.375 18.0415 17.5503 19.2168 19 19.2168Z" fill="#FFA900"/>
</svg>
