<svg width="20" height="13" viewBox="0 0 20 13" fill="none" xmlns="http://www.w3.org/2000/svg">
<path d="M7.30829 1.32046H12.7106V11.0276H7.30829V1.32046Z" fill="#FF5F00"/>
<path d="M7.65148 6.17414C7.65148 4.20187 8.57758 2.4525 10.001 1.32055C8.95492 0.497344 7.63438 0 6.19375 0C2.7807 0 0.0195312 2.76117 0.0195312 6.17414C0.0195312 9.58703 2.7807 12.3483 6.19367 12.3483C7.6343 12.3483 8.95484 11.8509 10.001 11.0277C8.57758 9.91289 7.65148 8.14641 7.65148 6.17414Z" fill="#EB001B"/>
<path d="M19.9998 6.17414C19.9998 9.58703 17.2386 12.3483 13.8257 12.3483C12.385 12.3483 11.0645 11.8509 10.0183 11.0277C11.459 9.89578 12.3679 8.14641 12.3679 6.17414C12.3679 4.20187 11.4418 2.4525 10.0183 1.32055C11.0644 0.497344 12.385 0 13.8257 0C17.2386 0 19.9998 2.77836 19.9998 6.17414Z" fill="#F79E1B"/>
</svg>
