<svg width="37" height="26" viewBox="0 0 37 26" fill="none" xmlns="http://www.w3.org/2000/svg">
<g clip-path="url(#clip0_4616_787)">
<path fill-rule="evenodd" clip-rule="evenodd" d="M13.3335 7.22078C14.9695 4.33149 16.6056 2.88721 19.8772 2.88721C22.2817 2.88721 24.3843 4.0342 25.5217 5.74241C18.3533 7.42716 11.8108 10.3066 7.03431 14.8608C6.19575 15.6603 5.34017 16.554 4.51364 17.5397C1.96142 14.5815 0.246094 11.6236 0.246094 8.66543C0.246094 5.47592 3.17774 2.88721 6.7898 2.88721C10.0619 2.88721 11.6975 4.33185 13.3335 7.22078ZM26.3906 8.10861C26.4105 8.2919 26.4209 8.47738 26.4209 8.66543C26.4209 14.4437 19.8772 20.2219 13.3335 26.0001C12.2363 25.0313 11.1391 24.0624 10.0731 23.0936C11.5904 19.5151 14.0857 16.8245 16.8613 14.2926C17.4508 13.7549 18.1806 13.0133 18.8784 12.5544C21.6743 10.7168 23.8193 9.2996 26.3906 8.10861ZM8.0684 21.2303C7.39132 20.5833 6.73707 19.9367 6.11396 19.2897C8.33823 16.3176 11.2894 13.5382 13.5386 12.1497C16.1788 10.5192 20.3754 8.24388 23.5881 7.74938C21.3829 9.18193 19.9063 9.19732 15.4889 12.6002C14.6109 13.2761 14.0293 13.9074 13.2193 14.5753C12.6901 15.0118 11.7041 16.1515 11.1827 16.7721C10.1644 17.9847 9.00079 19.5903 8.0684 21.2303Z" fill="#070602"/>
<path fill-rule="evenodd" clip-rule="evenodd" d="M31.7475 6.15745C32.4474 6.29454 33.1586 6.56067 33.9079 6.97196C36.9757 8.65561 37.9176 12.2209 36.0109 14.9298C32.5562 19.8371 23.5441 21.6941 14.5321 23.5511C14.0493 21.7245 13.5669 19.8979 13.1513 18.1083C14.273 16.7473 15.5346 15.5017 16.8605 14.2927C17.45 13.755 18.1798 13.0134 18.8776 12.5544C23.3606 9.60759 26.1711 7.74176 31.7475 6.15745ZM12.5444 15.2289C12.4095 14.5006 12.2924 13.7824 12.1986 13.0772C12.6636 12.7242 13.1136 12.4118 13.5378 12.1494C16.1781 10.5189 20.3746 8.24359 23.5873 7.74909C21.3821 9.18164 19.9055 9.19703 15.4881 12.5999C14.6101 13.2758 14.0285 13.9071 13.2186 14.575C13.0355 14.7256 12.7985 14.9606 12.5444 15.2289ZM11.996 11.0658C11.7851 7.8444 12.204 4.96793 13.7807 2.72783C15.6878 0.0188825 19.7249 -0.812862 22.7927 0.870789C24.9664 2.06397 25.7618 3.54161 25.8431 5.66771C20.7955 6.82607 16.0481 8.56947 11.996 11.0654V11.0658Z" fill="#FFA900"/>
</g>
<defs>
<clipPath id="clip0_4616_787">
<rect width="37" height="26" fill="white"/>
</clipPath>
</defs>
</svg>
