<svg width="141" height="25" viewBox="0 0 141 25" fill="none" xmlns="http://www.w3.org/2000/svg">
<g clip-path="url(#clip0_5710_27753)">
<path d="M112.757 7.16497C114.09 4.49813 115.424 3.16455 118.091 3.16455C121.035 3.16455 123.425 5.5542 123.425 8.49823C123.425 13.8322 118.091 19.1659 112.757 24.4996C107.423 19.1659 102.089 13.8319 102.089 8.49823C102.089 5.5542 104.479 3.16455 107.423 3.16455C110.09 3.16455 111.423 4.49781 112.757 7.16497H112.757Z" fill="#070602"/>
<path d="M122.886 7.51724C125.426 5.956 127.263 5.52767 129.528 6.93555C132.028 8.4898 132.796 11.7809 131.242 14.2813C128.426 18.8114 121.08 20.5254 113.734 22.2396C112.02 14.8938 110.306 7.54804 113.122 3.018C114.676 0.517541 117.967 -0.250537 120.468 1.30403C122.732 2.71191 123.161 4.54844 122.885 7.51724H122.886Z" fill="#FFA900"/>
<path fill-rule="evenodd" clip-rule="evenodd" d="M102.09 23.2292L104.487 23.2568C105.551 19.1529 109.978 13.7757 112.925 11.7147C115.077 10.2096 118.497 8.10924 121.116 7.65297C119.318 8.97511 118.115 8.9894 114.514 12.1306C113.799 12.7549 113.325 13.3372 112.664 13.9538C112.233 14.3564 111.429 15.409 111.004 15.9818C109.581 17.9009 107.81 20.8868 107.236 23.2714L109.628 23.2568C110.771 19.2132 113.053 16.3581 115.633 13.6931C116.113 13.1965 116.708 12.512 117.277 12.0884C121.407 9.01385 123.795 7.21384 129.667 5.62338C131.408 5.15187 133.142 4.80609 134.933 4.55557C136.142 4.38633 140.036 4.23487 140.719 3.99705C128.876 3.59793 115.386 5.83327 107.622 14.2174C105.557 16.4479 103.363 19.4739 102.089 23.2289L102.09 23.2292Z" fill="#FEFEFE"/>
<path d="M7.57727 23.3227C11.7666 23.3227 14.7665 21.2798 14.7665 17.9179C14.7665 14.737 12.5166 13.5476 8.09451 12.5906C5.14635 11.9441 4.03439 11.2459 4.03439 9.92692C4.03439 8.37521 5.24986 7.67699 7.34453 7.67699C9.25821 7.67699 11.0684 8.32345 12.3356 9.2287L14.1201 6.79778C12.1546 5.37529 10.0857 4.65135 7.52551 4.65135C3.56891 4.65135 0.517238 6.48756 0.517238 9.90089C0.517238 13.1335 3.05167 14.6592 7.18926 15.5388C10.0339 16.1595 11.2494 16.625 11.2494 18.1767C11.2494 19.3661 10.0599 20.2971 7.78397 20.2971C5.53404 20.2971 3.43936 19.4954 1.52568 18.1767L0 20.7369C1.91369 22.2886 4.60339 23.323 7.57727 23.323V23.3227ZM29.4083 17.2197C29.5118 16.3662 29.5635 15.875 29.5635 15.306C29.5635 11.4526 26.7706 8.63399 22.7363 8.63399C18.2624 8.63399 15.2368 11.7114 15.2368 15.9525C15.2368 20.2196 18.4694 23.297 22.9433 23.297C25.4777 23.297 27.3657 22.3143 28.7621 20.84L26.6932 19.0038C25.7622 20.0383 24.676 20.4263 23.0985 20.4263C20.7194 20.4263 18.9867 19.2369 18.5729 17.2197H29.4086H29.4083ZM22.7105 11.4786C24.676 11.4786 26.0207 12.4874 26.3826 14.556H18.6244C19.0381 12.6681 20.5638 11.4786 22.7105 11.4786ZM38.4903 8.58223C36.3181 8.58223 34.6886 9.41 33.6027 10.5994V8.89277H30.3961V23.0385H33.6027V16.056C33.6027 13.418 35.3354 11.5561 37.7146 11.5561C39.9388 11.5561 41.0247 12.7455 41.0247 14.9958V23.0385H44.2313V14.5563C44.2313 10.8325 41.9296 8.58223 38.4903 8.58223ZM57.3995 10.522C56.184 9.25474 54.3996 8.58223 52.4084 8.58223C48.555 8.58223 45.4519 11.4786 45.4519 15.9268C45.4519 20.2457 48.581 23.323 52.3824 23.323C54.3735 23.323 56.158 22.6509 57.3995 21.3576V23.0385H60.6061V3.95344H57.3995V10.522ZM52.9513 20.4006C50.4169 20.4006 48.6585 18.6161 48.6585 15.9268C48.6585 13.3148 50.4429 11.5564 52.9513 11.5564C55.5375 11.5564 57.3995 13.1856 57.3995 15.9528C57.3995 18.72 55.5375 20.4009 52.9513 20.4009V20.4006ZM67.9811 23.297C71.705 23.297 74.1619 21.6935 74.1619 18.8489C74.1619 16.5989 72.9465 15.2025 68.5501 14.2715C66.1449 13.7803 65.4984 13.4441 65.4984 12.6681C65.4984 11.8924 66.1709 11.5301 67.4639 11.5301C69.2223 11.5301 71.0325 11.9956 72.3775 12.7716L73.6704 10.0822C72.274 9.20298 69.5585 8.60795 67.6706 8.60795C64.2309 8.60795 62.2397 10.1597 62.2397 12.9268C62.2397 15.2285 63.5069 16.5215 67.6445 17.2197C70.179 17.6595 70.9547 18.0214 70.9547 18.9781C70.9547 20.0383 69.8684 20.3746 68.11 20.3746C66.5065 20.3746 64.8516 19.9608 63.0929 18.9521L61.7739 21.59C63.3256 22.4953 65.6273 23.297 67.9805 23.297H67.9811ZM78.537 7.15975V4.05632H75.2012V7.15975H78.537ZM78.4853 23.0382V8.89245H75.2786V23.0382H78.4853ZM84.0501 23.0382V3.95312H80.8435V23.0382H84.0501ZM99.8041 17.2194C99.9076 16.3659 99.9594 15.8747 99.9594 15.3057C99.9594 11.4523 97.1665 8.63367 93.1321 8.63367C88.6582 8.63367 85.6326 11.7111 85.6326 15.9522C85.6326 20.2193 88.8653 23.2967 93.3391 23.2967C95.8735 23.2967 97.7615 22.314 99.158 20.8397L97.089 19.0035C96.158 20.038 95.0718 20.426 93.4944 20.426C91.1152 20.426 89.3825 19.2366 88.9688 17.2194H99.8041ZM93.1064 11.4783C95.0718 11.4783 96.4165 12.4871 96.7785 14.5557H89.0202C89.4339 12.6677 90.9596 11.4783 93.1064 11.4783Z" fill="#070602"/>
<path d="M112.756 7.16546C114.09 4.49862 115.423 3.16504 118.09 3.16504C121.034 3.16504 123.424 5.55469 123.424 8.49872C123.424 13.8327 118.09 19.1664 112.756 24.5001C107.423 19.1664 102.089 13.8324 102.089 8.49872C102.089 5.55469 104.478 3.16504 107.422 3.16504C110.089 3.16504 111.423 4.4983 112.756 7.16546H112.756Z" fill="#070602"/>
<path d="M122.886 7.51724C125.427 5.956 127.263 5.52767 129.528 6.93555C132.029 8.4898 132.797 11.7809 131.242 14.2813C128.427 18.8114 121.081 20.5254 113.735 22.2396C112.021 14.8938 110.307 7.54804 113.122 3.018C114.677 0.517541 117.968 -0.250537 120.468 1.30403C122.733 2.71191 123.162 4.54844 122.886 7.51724H122.886Z" fill="#FFA900"/>
<path fill-rule="evenodd" clip-rule="evenodd" d="M102.089 23.2297L104.486 23.2573C105.55 19.1534 109.977 13.7762 112.924 11.7152C115.076 10.2101 118.496 8.10973 121.115 7.65345C119.318 8.9756 118.114 8.98989 114.513 12.1311C113.798 12.7553 113.324 13.3377 112.664 13.9543C112.232 14.3569 111.428 15.4095 111.004 15.9823C109.58 17.9014 107.809 20.8873 107.236 23.2719L109.627 23.2573C110.77 19.2137 113.053 16.3586 115.632 13.6936C116.112 13.197 116.708 12.5124 117.276 12.0889C121.406 9.01434 123.794 7.21433 129.666 5.62387C131.407 5.15236 133.141 4.80658 134.932 4.55606C136.142 4.38682 140.035 4.23536 140.718 3.99754C128.875 3.59842 115.385 5.83375 107.622 14.2178C105.556 16.4484 103.362 19.4744 102.089 23.2293L102.089 23.2297Z" fill="#FEFEFE"/>
</g>
<defs>
<clipPath id="clip0_5710_27753">
<rect width="140.719" height="24" fill="white" transform="translate(0 0.5)"/>
</clipPath>
</defs>
</svg>
