<svg width="140" height="140" viewBox="0 0 140 140" fill="none" xmlns="http://www.w3.org/2000/svg">
<rect width="140" height="140" rx="70" fill="#FFF7EE"/>
<path opacity="0.4" fill-rule="evenodd" clip-rule="evenodd" d="M83.8025 77.9297C79.235 77.9297 75.52 74.2147 75.52 69.6497C75.52 65.0822 79.235 61.3648 83.8025 61.3648H94.3275C92.1325 51.2298 85.15 47.4023 70.6275 47.4023C52.5375 47.4023 46.125 53.3173 46.125 69.9997C46.125 86.6847 52.5375 92.5972 70.6275 92.5972C85.4825 92.5972 92.4525 88.5972 94.4725 77.9297H83.8025Z" fill="#FFA900"/>
<path fill-rule="evenodd" clip-rule="evenodd" d="M69.7516 61.6025H59.6016C58.5666 61.6025 57.7266 60.7625 57.7266 59.7275C57.7266 58.6925 58.5666 57.8525 59.6016 57.8525H69.7516C70.7866 57.8525 71.6266 58.6925 71.6266 59.7275C71.6266 60.7625 70.7866 61.6025 69.7516 61.6025Z" fill="#FFA900"/>
<path fill-rule="evenodd" clip-rule="evenodd" d="M83.7981 74.1797C81.3006 74.1797 79.2656 72.1472 79.2656 69.6497C79.2656 67.1497 81.3006 65.1147 83.7981 65.1147H94.8881C95.0356 66.6372 95.1231 68.2447 95.1231 69.9997C95.1231 71.4872 95.0531 72.8597 94.9481 74.1797H83.7981ZM86.0234 69.4995C86.0234 70.5345 85.1834 71.3745 84.1484 71.3745C83.1134 71.3745 82.2734 70.5345 82.2734 69.4995C82.2734 68.4645 83.1134 67.6245 84.1484 67.6245C85.1834 67.6245 86.0234 68.4645 86.0234 69.4995Z" fill="#FFA900"/>
</svg>
