<svg width="79" height="79" viewBox="0 0 79 79" fill="none" xmlns="http://www.w3.org/2000/svg">
<g clip-path="url(#clip0_4661_4975)">
<path d="M79 0H0V79H79V0Z" fill="white"/>
<path d="M7.7025 4.9375H4.9375V7.7025H7.7025V4.9375Z" fill="black"/>
<path d="M10.4675 4.9375H7.7025V7.7025H10.4675V4.9375Z" fill="black"/>
<path d="M13.2325 4.9375H10.4675V7.7025H13.2325V4.9375Z" fill="black"/>
<path d="M15.9975 4.9375H13.2325V7.7025H15.9975V4.9375Z" fill="black"/>
<path d="M18.7625 4.9375H15.9975V7.7025H18.7625V4.9375Z" fill="black"/>
<path d="M21.5275 4.9375H18.7625V7.7025H21.5275V4.9375Z" fill="black"/>
<path d="M24.2925 4.9375H21.5275V7.7025H24.2925V4.9375Z" fill="black"/>
<path d="M29.8225 4.9375H27.0575V7.7025H29.8225V4.9375Z" fill="black"/>
<path d="M35.3525 4.9375H32.5875V7.7025H35.3525V4.9375Z" fill="black"/>
<path d="M40.8825 4.9375H38.1175V7.7025H40.8825V4.9375Z" fill="black"/>
<path d="M43.6475 4.9375H40.8825V7.7025H43.6475V4.9375Z" fill="black"/>
<path d="M51.9425 4.9375H49.1775V7.7025H51.9425V4.9375Z" fill="black"/>
<path d="M57.4725 4.9375H54.7075V7.7025H57.4725V4.9375Z" fill="black"/>
<path d="M60.2375 4.9375H57.4725V7.7025H60.2375V4.9375Z" fill="black"/>
<path d="M63.0025 4.9375H60.2375V7.7025H63.0025V4.9375Z" fill="black"/>
<path d="M65.7675 4.9375H63.0025V7.7025H65.7675V4.9375Z" fill="black"/>
<path d="M68.5325 4.9375H65.7675V7.7025H68.5325V4.9375Z" fill="black"/>
<path d="M71.2975 4.9375H68.5325V7.7025H71.2975V4.9375Z" fill="black"/>
<path d="M74.0625 4.9375H71.2975V7.7025H74.0625V4.9375Z" fill="black"/>
<path d="M7.7025 7.7025H4.9375V10.4675H7.7025V7.7025Z" fill="black"/>
<path d="M24.2925 7.7025H21.5275L21.5275 10.4675H24.2925V7.7025Z" fill="black"/>
<path d="M35.3525 7.7025H32.5875V10.4675H35.3525V7.7025Z" fill="black"/>
<path d="M43.6475 7.7025H40.8825V10.4675H43.6475V7.7025Z" fill="black"/>
<path d="M51.9425 7.7025H49.1775V10.4675H51.9425V7.7025Z" fill="black"/>
<path d="M57.4725 7.7025H54.7075V10.4675H57.4725V7.7025Z" fill="black"/>
<path d="M74.0625 7.7025H71.2975V10.4675H74.0625V7.7025Z" fill="black"/>
<path d="M7.7025 10.4675H4.9375V13.2325H7.7025V10.4675Z" fill="black"/>
<path d="M13.2325 10.4675H10.4675V13.2325H13.2325V10.4675Z" fill="black"/>
<path d="M15.9975 10.4675H13.2325V13.2325H15.9975V10.4675Z" fill="black"/>
<path d="M18.7625 10.4675H15.9975V13.2325H18.7625V10.4675Z" fill="black"/>
<path d="M24.2925 10.4675H21.5275V13.2325H24.2925V10.4675Z" fill="black"/>
<path d="M38.1175 10.4675H35.3525V13.2325H38.1175V10.4675Z" fill="black"/>
<path d="M40.8825 10.4675H38.1175V13.2325H40.8825V10.4675Z" fill="black"/>
<path d="M43.6475 10.4675H40.8825V13.2325H43.6475V10.4675Z" fill="black"/>
<path d="M51.9425 10.4675H49.1775V13.2325H51.9425V10.4675Z" fill="black"/>
<path d="M57.4725 10.4675H54.7075V13.2325H57.4725V10.4675Z" fill="black"/>
<path d="M63.0025 10.4675H60.2375V13.2325H63.0025V10.4675Z" fill="black"/>
<path d="M65.7675 10.4675H63.0025V13.2325H65.7675V10.4675Z" fill="black"/>
<path d="M68.5325 10.4675H65.7675V13.2325H68.5325V10.4675Z" fill="black"/>
<path d="M74.0625 10.4675H71.2975V13.2325H74.0625V10.4675Z" fill="black"/>
<path d="M7.7025 13.2325H4.9375V15.9975H7.7025V13.2325Z" fill="black"/>
<path d="M13.2325 13.2325H10.4675V15.9975H13.2325V13.2325Z" fill="black"/>
<path d="M15.9975 13.2325H13.2325V15.9975H15.9975V13.2325Z" fill="black"/>
<path d="M18.7625 13.2325H15.9975V15.9975H18.7625V13.2325Z" fill="black"/>
<path d="M24.2925 13.2325H21.5275V15.9975H24.2925V13.2325Z" fill="black"/>
<path d="M32.5875 13.2325H29.8225V15.9975H32.5875V13.2325Z" fill="black"/>
<path d="M35.3525 13.2325H32.5875V15.9975H35.3525V13.2325Z" fill="black"/>
<path d="M40.8825 13.2325H38.1175V15.9975H40.8825V13.2325Z" fill="black"/>
<path d="M43.6475 13.2325H40.8825V15.9975H43.6475V13.2325Z" fill="black"/>
<path d="M46.4125 13.2325H43.6475V15.9975H46.4125V13.2325Z" fill="black"/>
<path d="M57.4725 13.2325H54.7075V15.9975H57.4725V13.2325Z" fill="black"/>
<path d="M63.0025 13.2325H60.2375V15.9975H63.0025V13.2325Z" fill="black"/>
<path d="M65.7675 13.2325H63.0025V15.9975H65.7675V13.2325Z" fill="black"/>
<path d="M68.5325 13.2325H65.7675V15.9975H68.5325V13.2325Z" fill="black"/>
<path d="M74.0625 13.2325H71.2975V15.9975H74.0625V13.2325Z" fill="black"/>
<path d="M7.7025 15.9975H4.9375V18.7625H7.7025V15.9975Z" fill="black"/>
<path d="M13.2325 15.9975H10.4675V18.7625H13.2325V15.9975Z" fill="black"/>
<path d="M15.9975 15.9975H13.2325V18.7625H15.9975V15.9975Z" fill="black"/>
<path d="M18.7625 15.9975H15.9975V18.7625H18.7625V15.9975Z" fill="black"/>
<path d="M24.2925 15.9975H21.5275V18.7625H24.2925V15.9975Z" fill="black"/>
<path d="M29.8225 15.9975H27.0575V18.7625H29.8225V15.9975Z" fill="black"/>
<path d="M38.1175 15.9975H35.3525V18.7625H38.1175V15.9975Z" fill="black"/>
<path d="M46.4125 15.9975H43.6475V18.7625H46.4125V15.9975Z" fill="black"/>
<path d="M57.4725 15.9975H54.7075V18.7625H57.4725V15.9975Z" fill="black"/>
<path d="M63.0025 15.9975H60.2375V18.7625H63.0025V15.9975Z" fill="black"/>
<path d="M65.7675 15.9975H63.0025V18.7625H65.7675V15.9975Z" fill="black"/>
<path d="M68.5325 15.9975H65.7675V18.7625H68.5325V15.9975Z" fill="black"/>
<path d="M74.0625 15.9975H71.2975V18.7625H74.0625V15.9975Z" fill="black"/>
<path d="M7.7025 18.7625H4.9375V21.5275H7.7025V18.7625Z" fill="black"/>
<path d="M24.2925 18.7625H21.5275V21.5275H24.2925V18.7625Z" fill="black"/>
<path d="M32.5875 18.7625H29.8225V21.5275H32.5875V18.7625Z" fill="black"/>
<path d="M35.3525 18.7625H32.5875V21.5275H35.3525V18.7625Z" fill="black"/>
<path d="M43.6475 18.7625H40.8825V21.5275H43.6475V18.7625Z" fill="black"/>
<path d="M49.1775 18.7625H46.4125L46.4125 21.5275H49.1775V18.7625Z" fill="black"/>
<path d="M57.4725 18.7625H54.7075V21.5275H57.4725V18.7625Z" fill="black"/>
<path d="M74.0625 18.7625H71.2975V21.5275H74.0625V18.7625Z" fill="black"/>
<path d="M7.7025 21.5275H4.9375V24.2925H7.7025V21.5275Z" fill="black"/>
<path d="M10.4675 21.5275L7.7025 21.5275V24.2925H10.4675V21.5275Z" fill="black"/>
<path d="M13.2325 21.5275H10.4675V24.2925H13.2325V21.5275Z" fill="black"/>
<path d="M15.9975 21.5275H13.2325V24.2925H15.9975V21.5275Z" fill="black"/>
<path d="M18.7625 21.5275H15.9975V24.2925H18.7625V21.5275Z" fill="black"/>
<path d="M21.5275 21.5275L18.7625 21.5275V24.2925H21.5275L21.5275 21.5275Z" fill="black"/>
<path d="M24.2925 21.5275H21.5275L21.5275 24.2925H24.2925V21.5275Z" fill="black"/>
<path d="M29.8225 21.5275L27.0575 21.5275V24.2925H29.8225V21.5275Z" fill="black"/>
<path d="M35.3525 21.5275H32.5875V24.2925H35.3525V21.5275Z" fill="black"/>
<path d="M40.8825 21.5275L38.1175 21.5275V24.2925H40.8825V21.5275Z" fill="black"/>
<path d="M46.4125 21.5275H43.6475V24.2925H46.4125L46.4125 21.5275Z" fill="black"/>
<path d="M51.9425 21.5275L49.1775 21.5275V24.2925H51.9425V21.5275Z" fill="black"/>
<path d="M57.4725 21.5275H54.7075V24.2925H57.4725V21.5275Z" fill="black"/>
<path d="M60.2375 21.5275L57.4725 21.5275V24.2925H60.2375V21.5275Z" fill="black"/>
<path d="M63.0025 21.5275H60.2375V24.2925H63.0025V21.5275Z" fill="black"/>
<path d="M65.7675 21.5275H63.0025V24.2925H65.7675V21.5275Z" fill="black"/>
<path d="M68.5325 21.5275H65.7675V24.2925H68.5325V21.5275Z" fill="black"/>
<path d="M71.2975 21.5275L68.5325 21.5275V24.2925H71.2975V21.5275Z" fill="black"/>
<path d="M74.0625 21.5275H71.2975V24.2925H74.0625V21.5275Z" fill="black"/>
<path d="M29.8225 24.2925H27.0575V27.0575H29.8225V24.2925Z" fill="black"/>
<path d="M35.3525 24.2925H32.5875V27.0575H35.3525V24.2925Z" fill="black"/>
<path d="M43.6475 24.2925H40.8825V27.0575H43.6475V24.2925Z" fill="black"/>
<path d="M46.4125 24.2925H43.6475V27.0575H46.4125V24.2925Z" fill="black"/>
<path d="M49.1775 24.2925H46.4125V27.0575H49.1775V24.2925Z" fill="black"/>
<path d="M7.7025 27.0575H4.9375V29.8225H7.7025V27.0575Z" fill="black"/>
<path d="M15.9975 27.0575H13.2325V29.8225H15.9975V27.0575Z" fill="black"/>
<path d="M18.7625 27.0575H15.9975V29.8225H18.7625V27.0575Z" fill="black"/>
<path d="M21.5275 27.0575H18.7625V29.8225H21.5275V27.0575Z" fill="black"/>
<path d="M24.2925 27.0575H21.5275V29.8225H24.2925V27.0575Z" fill="black"/>
<path d="M27.0575 27.0575H24.2925V29.8225H27.0575V27.0575Z" fill="black"/>
<path d="M29.8225 27.0575H27.0575V29.8225H29.8225V27.0575Z" fill="black"/>
<path d="M32.5875 27.0575H29.8225V29.8225H32.5875V27.0575Z" fill="black"/>
<path d="M35.3525 27.0575H32.5875V29.8225H35.3525V27.0575Z" fill="black"/>
<path d="M38.1175 27.0575H35.3525V29.8225H38.1175V27.0575Z" fill="black"/>
<path d="M40.8825 27.0575H38.1175V29.8225H40.8825V27.0575Z" fill="black"/>
<path d="M49.1775 27.0575H46.4125L46.4125 29.8225H49.1775V27.0575Z" fill="black"/>
<path d="M51.9425 27.0575H49.1775V29.8225H51.9425V27.0575Z" fill="black"/>
<path d="M54.7075 27.0575H51.9425V29.8225H54.7075V27.0575Z" fill="black"/>
<path d="M57.4725 27.0575H54.7075V29.8225H57.4725V27.0575Z" fill="black"/>
<path d="M63.0025 27.0575H60.2375V29.8225H63.0025V27.0575Z" fill="black"/>
<path d="M74.0625 27.0575H71.2975V29.8225H74.0625V27.0575Z" fill="black"/>
<path d="M13.2325 29.8225H10.4675V32.5875H13.2325V29.8225Z" fill="black"/>
<path d="M15.9975 29.8225H13.2325V32.5875H15.9975V29.8225Z" fill="black"/>
<path d="M18.7625 29.8225H15.9975V32.5875H18.7625V29.8225Z" fill="black"/>
<path d="M27.0575 29.8225H24.2925V32.5875H27.0575V29.8225Z" fill="black"/>
<path d="M32.5875 29.8225H29.8225V32.5875H32.5875V29.8225Z" fill="black"/>
<path d="M35.3525 29.8225H32.5875V32.5875H35.3525V29.8225Z" fill="black"/>
<path d="M46.4125 29.8225H43.6475V32.5875H46.4125L46.4125 29.8225Z" fill="black"/>
<path d="M51.9425 29.8225H49.1775V32.5875H51.9425V29.8225Z" fill="black"/>
<path d="M60.2375 29.8225H57.4725V32.5875H60.2375V29.8225Z" fill="black"/>
<path d="M63.0025 29.8225H60.2375V32.5875H63.0025V29.8225Z" fill="black"/>
<path d="M65.7675 29.8225H63.0025V32.5875H65.7675V29.8225Z" fill="black"/>
<path d="M71.2975 29.8225H68.5325V32.5875H71.2975V29.8225Z" fill="black"/>
<path d="M13.2325 32.5875H10.4675V35.3525H13.2325V32.5875Z" fill="black"/>
<path d="M21.5275 32.5875H18.7625V35.3525H21.5275V32.5875Z" fill="black"/>
<path d="M24.2925 32.5875H21.5275V35.3525H24.2925V32.5875Z" fill="black"/>
<path d="M29.8225 32.5875H27.0575V35.3525H29.8225V32.5875Z" fill="black"/>
<path d="M38.1175 32.5875H35.3525V35.3525H38.1175V32.5875Z" fill="black"/>
<path d="M49.1775 32.5875H46.4125L46.4125 35.3525H49.1775V32.5875Z" fill="black"/>
<path d="M54.7075 32.5875H51.9425V35.3525H54.7075V32.5875Z" fill="black"/>
<path d="M57.4725 32.5875H54.7075V35.3525H57.4725V32.5875Z" fill="black"/>
<path d="M74.0625 32.5875H71.2975V35.3525H74.0625V32.5875Z" fill="black"/>
<path d="M7.7025 35.3525H4.9375V38.1175H7.7025V35.3525Z" fill="black"/>
<path d="M10.4675 35.3525H7.7025V38.1175H10.4675V35.3525Z" fill="black"/>
<path d="M13.2325 35.3525H10.4675V38.1175H13.2325V35.3525Z" fill="black"/>
<path d="M18.7625 35.3525H15.9975V38.1175H18.7625V35.3525Z" fill="black"/>
<path d="M27.0575 35.3525H24.2925V38.1175H27.0575V35.3525Z" fill="black"/>
<path d="M40.8825 35.3525H38.1175V38.1175H40.8825V35.3525Z" fill="black"/>
<path d="M46.4125 35.3525H43.6475V38.1175H46.4125L46.4125 35.3525Z" fill="black"/>
<path d="M49.1775 35.3525H46.4125L46.4125 38.1175H49.1775V35.3525Z" fill="black"/>
<path d="M63.0025 35.3525H60.2375V38.1175H63.0025V35.3525Z" fill="black"/>
<path d="M68.5325 35.3525H65.7675V38.1175H68.5325V35.3525Z" fill="black"/>
<path d="M71.2975 35.3525H68.5325V38.1175H71.2975V35.3525Z" fill="black"/>
<path d="M7.7025 38.1175H4.9375V40.8825H7.7025V38.1175Z" fill="black"/>
<path d="M10.4675 38.1175H7.7025V40.8825H10.4675V38.1175Z" fill="black"/>
<path d="M15.9975 38.1175H13.2325V40.8825H15.9975V38.1175Z" fill="black"/>
<path d="M21.5275 38.1175H18.7625V40.8825H21.5275V38.1175Z" fill="black"/>
<path d="M24.2925 38.1175H21.5275V40.8825H24.2925V38.1175Z" fill="black"/>
<path d="M27.0575 38.1175H24.2925V40.8825H27.0575V38.1175Z" fill="black"/>
<path d="M35.3525 38.1175H32.5875V40.8825H35.3525V38.1175Z" fill="black"/>
<path d="M38.1175 38.1175H35.3525V40.8825H38.1175V38.1175Z" fill="black"/>
<path d="M43.6475 38.1175H40.8825V40.8825H43.6475V38.1175Z" fill="black"/>
<path d="M46.4125 38.1175H43.6475V40.8825H46.4125V38.1175Z" fill="black"/>
<path d="M51.9425 38.1175H49.1775V40.8825H51.9425V38.1175Z" fill="black"/>
<path d="M60.2375 38.1175H57.4725V40.8825H60.2375V38.1175Z" fill="black"/>
<path d="M65.7675 38.1175H63.0025V40.8825H65.7675V38.1175Z" fill="black"/>
<path d="M68.5325 38.1175H65.7675V40.8825H68.5325V38.1175Z" fill="black"/>
<path d="M74.0625 38.1175H71.2975V40.8825H74.0625V38.1175Z" fill="black"/>
<path d="M7.7025 40.8825H4.9375V43.6475H7.7025V40.8825Z" fill="black"/>
<path d="M10.4675 40.8825H7.7025V43.6475H10.4675V40.8825Z" fill="black"/>
<path d="M27.0575 40.8825H24.2925V43.6475H27.0575V40.8825Z" fill="black"/>
<path d="M29.8225 40.8825H27.0575V43.6475H29.8225V40.8825Z" fill="black"/>
<path d="M32.5875 40.8825H29.8225V43.6475H32.5875V40.8825Z" fill="black"/>
<path d="M40.8825 40.8825H38.1175V43.6475H40.8825V40.8825Z" fill="black"/>
<path d="M46.4125 40.8825H43.6475V43.6475H46.4125V40.8825Z" fill="black"/>
<path d="M49.1775 40.8825H46.4125V43.6475H49.1775V40.8825Z" fill="black"/>
<path d="M51.9425 40.8825H49.1775V43.6475H51.9425V40.8825Z" fill="black"/>
<path d="M54.7075 40.8825H51.9425V43.6475H54.7075V40.8825Z" fill="black"/>
<path d="M63.0025 40.8825H60.2375V43.6475H63.0025V40.8825Z" fill="black"/>
<path d="M68.5325 40.8825H65.7675V43.6475H68.5325V40.8825Z" fill="black"/>
<path d="M71.2975 40.8825H68.5325V43.6475H71.2975V40.8825Z" fill="black"/>
<path d="M74.0625 40.8825H71.2975V43.6475H74.0625V40.8825Z" fill="black"/>
<path d="M7.7025 43.6475H4.9375V46.4125H7.7025V43.6475Z" fill="black"/>
<path d="M10.4675 43.6475H7.7025V46.4125H10.4675V43.6475Z" fill="black"/>
<path d="M13.2325 43.6475H10.4675V46.4125H13.2325V43.6475Z" fill="black"/>
<path d="M24.2925 43.6475H21.5275V46.4125H24.2925V43.6475Z" fill="black"/>
<path d="M32.5875 43.6475H29.8225V46.4125H32.5875V43.6475Z" fill="black"/>
<path d="M38.1175 43.6475H35.3525V46.4125H38.1175V43.6475Z" fill="black"/>
<path d="M40.8825 43.6475H38.1175V46.4125H40.8825V43.6475Z" fill="black"/>
<path d="M46.4125 43.6475H43.6475V46.4125H46.4125V43.6475Z" fill="black"/>
<path d="M54.7075 43.6475H51.9425V46.4125H54.7075V43.6475Z" fill="black"/>
<path d="M60.2375 43.6475H57.4725V46.4125H60.2375V43.6475Z" fill="black"/>
<path d="M63.0025 43.6475H60.2375V46.4125H63.0025V43.6475Z" fill="black"/>
<path d="M68.5325 43.6475H65.7675V46.4125H68.5325V43.6475Z" fill="black"/>
<path d="M10.4675 46.4125H7.7025V49.1775H10.4675V46.4125Z" fill="black"/>
<path d="M27.0575 46.4125L24.2925 46.4125V49.1775H27.0575V46.4125Z" fill="black"/>
<path d="M29.8225 46.4125L27.0575 46.4125V49.1775H29.8225V46.4125Z" fill="black"/>
<path d="M32.5875 46.4125H29.8225V49.1775H32.5875V46.4125Z" fill="black"/>
<path d="M35.3525 46.4125H32.5875V49.1775H35.3525V46.4125Z" fill="black"/>
<path d="M40.8825 46.4125H38.1175V49.1775H40.8825V46.4125Z" fill="black"/>
<path d="M43.6475 46.4125H40.8825V49.1775H43.6475V46.4125Z" fill="black"/>
<path d="M46.4125 46.4125H43.6475V49.1775H46.4125V46.4125Z" fill="black"/>
<path d="M71.2975 46.4125L68.5325 46.4125V49.1775H71.2975V46.4125Z" fill="black"/>
<path d="M7.7025 49.1775H4.9375V51.9425H7.7025V49.1775Z" fill="black"/>
<path d="M15.9975 49.1775H13.2325V51.9425H15.9975V49.1775Z" fill="black"/>
<path d="M21.5275 49.1775H18.7625V51.9425H21.5275V49.1775Z" fill="black"/>
<path d="M24.2925 49.1775H21.5275V51.9425H24.2925V49.1775Z" fill="black"/>
<path d="M32.5875 49.1775H29.8225V51.9425H32.5875V49.1775Z" fill="black"/>
<path d="M43.6475 49.1775H40.8825V51.9425H43.6475V49.1775Z" fill="black"/>
<path d="M49.1775 49.1775H46.4125L46.4125 51.9425H49.1775V49.1775Z" fill="black"/>
<path d="M51.9425 49.1775H49.1775V51.9425H51.9425V49.1775Z" fill="black"/>
<path d="M54.7075 49.1775H51.9425V51.9425H54.7075V49.1775Z" fill="black"/>
<path d="M57.4725 49.1775H54.7075V51.9425H57.4725V49.1775Z" fill="black"/>
<path d="M60.2375 49.1775H57.4725V51.9425H60.2375V49.1775Z" fill="black"/>
<path d="M63.0025 49.1775H60.2375V51.9425H63.0025V49.1775Z" fill="black"/>
<path d="M65.7675 49.1775H63.0025V51.9425H65.7675V49.1775Z" fill="black"/>
<path d="M29.8225 51.9425H27.0575V54.7075H29.8225V51.9425Z" fill="black"/>
<path d="M35.3525 51.9425H32.5875V54.7075H35.3525V51.9425Z" fill="black"/>
<path d="M40.8825 51.9425H38.1175V54.7075H40.8825V51.9425Z" fill="black"/>
<path d="M49.1775 51.9425H46.4125V54.7075H49.1775V51.9425Z" fill="black"/>
<path d="M51.9425 51.9425H49.1775V54.7075H51.9425V51.9425Z" fill="black"/>
<path d="M63.0025 51.9425H60.2375V54.7075H63.0025V51.9425Z" fill="black"/>
<path d="M65.7675 51.9425H63.0025V54.7075H65.7675V51.9425Z" fill="black"/>
<path d="M68.5325 51.9425H65.7675V54.7075H68.5325V51.9425Z" fill="black"/>
<path d="M74.0625 51.9425H71.2975V54.7075H74.0625V51.9425Z" fill="black"/>
<path d="M7.7025 54.7075H4.9375V57.4725H7.7025V54.7075Z" fill="black"/>
<path d="M10.4675 54.7075H7.7025V57.4725H10.4675V54.7075Z" fill="black"/>
<path d="M13.2325 54.7075H10.4675V57.4725H13.2325V54.7075Z" fill="black"/>
<path d="M15.9975 54.7075H13.2325V57.4725H15.9975V54.7075Z" fill="black"/>
<path d="M18.7625 54.7075H15.9975V57.4725H18.7625V54.7075Z" fill="black"/>
<path d="M21.5275 54.7075H18.7625V57.4725H21.5275V54.7075Z" fill="black"/>
<path d="M24.2925 54.7075H21.5275V57.4725H24.2925V54.7075Z" fill="black"/>
<path d="M29.8225 54.7075H27.0575V57.4725H29.8225V54.7075Z" fill="black"/>
<path d="M35.3525 54.7075H32.5875V57.4725H35.3525V54.7075Z" fill="black"/>
<path d="M40.8825 54.7075H38.1175V57.4725H40.8825V54.7075Z" fill="black"/>
<path d="M46.4125 54.7075H43.6475V57.4725H46.4125L46.4125 54.7075Z" fill="black"/>
<path d="M51.9425 54.7075H49.1775V57.4725H51.9425V54.7075Z" fill="black"/>
<path d="M57.4725 54.7075H54.7075V57.4725H57.4725V54.7075Z" fill="black"/>
<path d="M63.0025 54.7075H60.2375V57.4725H63.0025V54.7075Z" fill="black"/>
<path d="M65.7675 54.7075H63.0025V57.4725H65.7675V54.7075Z" fill="black"/>
<path d="M68.5325 54.7075H65.7675V57.4725H68.5325V54.7075Z" fill="black"/>
<path d="M74.0625 54.7075H71.2975V57.4725H74.0625V54.7075Z" fill="black"/>
<path d="M7.7025 57.4725H4.9375V60.2375H7.7025V57.4725Z" fill="black"/>
<path d="M24.2925 57.4725H21.5275L21.5275 60.2375H24.2925V57.4725Z" fill="black"/>
<path d="M29.8225 57.4725H27.0575V60.2375H29.8225V57.4725Z" fill="black"/>
<path d="M35.3525 57.4725H32.5875V60.2375H35.3525V57.4725Z" fill="black"/>
<path d="M49.1775 57.4725H46.4125L46.4125 60.2375H49.1775V57.4725Z" fill="black"/>
<path d="M51.9425 57.4725H49.1775V60.2375H51.9425V57.4725Z" fill="black"/>
<path d="M63.0025 57.4725H60.2375V60.2375H63.0025V57.4725Z" fill="black"/>
<path d="M65.7675 57.4725H63.0025V60.2375H65.7675V57.4725Z" fill="black"/>
<path d="M68.5325 57.4725H65.7675V60.2375H68.5325V57.4725Z" fill="black"/>
<path d="M7.7025 60.2375H4.9375V63.0025H7.7025V60.2375Z" fill="black"/>
<path d="M13.2325 60.2375H10.4675V63.0025H13.2325V60.2375Z" fill="black"/>
<path d="M15.9975 60.2375H13.2325V63.0025H15.9975V60.2375Z" fill="black"/>
<path d="M18.7625 60.2375H15.9975V63.0025H18.7625V60.2375Z" fill="black"/>
<path d="M24.2925 60.2375H21.5275V63.0025H24.2925V60.2375Z" fill="black"/>
<path d="M29.8225 60.2375H27.0575V63.0025H29.8225V60.2375Z" fill="black"/>
<path d="M32.5875 60.2375H29.8225V63.0025H32.5875V60.2375Z" fill="black"/>
<path d="M35.3525 60.2375H32.5875V63.0025H35.3525V60.2375Z" fill="black"/>
<path d="M43.6475 60.2375H40.8825V63.0025H43.6475V60.2375Z" fill="black"/>
<path d="M51.9425 60.2375H49.1775V63.0025H51.9425V60.2375Z" fill="black"/>
<path d="M54.7075 60.2375H51.9425V63.0025H54.7075V60.2375Z" fill="black"/>
<path d="M57.4725 60.2375H54.7075V63.0025H57.4725V60.2375Z" fill="black"/>
<path d="M60.2375 60.2375H57.4725V63.0025H60.2375V60.2375Z" fill="black"/>
<path d="M63.0025 60.2375H60.2375V63.0025H63.0025V60.2375Z" fill="black"/>
<path d="M71.2975 60.2375H68.5325V63.0025H71.2975V60.2375Z" fill="black"/>
<path d="M7.7025 63.0025H4.9375V65.7675H7.7025V63.0025Z" fill="black"/>
<path d="M13.2325 63.0025H10.4675V65.7675H13.2325V63.0025Z" fill="black"/>
<path d="M15.9975 63.0025H13.2325V65.7675H15.9975V63.0025Z" fill="black"/>
<path d="M18.7625 63.0025H15.9975V65.7675H18.7625V63.0025Z" fill="black"/>
<path d="M24.2925 63.0025H21.5275V65.7675H24.2925V63.0025Z" fill="black"/>
<path d="M29.8225 63.0025H27.0575V65.7675H29.8225V63.0025Z" fill="black"/>
<path d="M32.5875 63.0025H29.8225V65.7675H32.5875V63.0025Z" fill="black"/>
<path d="M38.1175 63.0025H35.3525V65.7675H38.1175V63.0025Z" fill="black"/>
<path d="M43.6475 63.0025H40.8825V65.7675H43.6475V63.0025Z" fill="black"/>
<path d="M46.4125 63.0025H43.6475V65.7675H46.4125V63.0025Z" fill="black"/>
<path d="M51.9425 63.0025H49.1775V65.7675H51.9425V63.0025Z" fill="black"/>
<path d="M65.7675 63.0025H63.0025V65.7675H65.7675V63.0025Z" fill="black"/>
<path d="M7.7025 65.7675H4.9375V68.5325H7.7025V65.7675Z" fill="black"/>
<path d="M13.2325 65.7675H10.4675V68.5325H13.2325V65.7675Z" fill="black"/>
<path d="M15.9975 65.7675H13.2325V68.5325H15.9975V65.7675Z" fill="black"/>
<path d="M18.7625 65.7675H15.9975V68.5325H18.7625V65.7675Z" fill="black"/>
<path d="M24.2925 65.7675H21.5275V68.5325H24.2925V65.7675Z" fill="black"/>
<path d="M38.1175 65.7675H35.3525V68.5325H38.1175V65.7675Z" fill="black"/>
<path d="M40.8825 65.7675H38.1175V68.5325H40.8825V65.7675Z" fill="black"/>
<path d="M43.6475 65.7675H40.8825V68.5325H43.6475V65.7675Z" fill="black"/>
<path d="M49.1775 65.7675H46.4125L46.4125 68.5325H49.1775V65.7675Z" fill="black"/>
<path d="M51.9425 65.7675H49.1775V68.5325H51.9425V65.7675Z" fill="black"/>
<path d="M60.2375 65.7675H57.4725V68.5325H60.2375V65.7675Z" fill="black"/>
<path d="M63.0025 65.7675H60.2375V68.5325H63.0025V65.7675Z" fill="black"/>
<path d="M68.5325 65.7675H65.7675V68.5325H68.5325V65.7675Z" fill="black"/>
<path d="M71.2975 65.7675H68.5325V68.5325H71.2975V65.7675Z" fill="black"/>
<path d="M74.0625 65.7675H71.2975V68.5325H74.0625V65.7675Z" fill="black"/>
<path d="M7.7025 68.5325H4.9375V71.2975H7.7025V68.5325Z" fill="black"/>
<path d="M24.2925 68.5325H21.5275V71.2975H24.2925V68.5325Z" fill="black"/>
<path d="M32.5875 68.5325H29.8225V71.2975H32.5875V68.5325Z" fill="black"/>
<path d="M40.8825 68.5325H38.1175V71.2975H40.8825V68.5325Z" fill="black"/>
<path d="M43.6475 68.5325H40.8825V71.2975H43.6475V68.5325Z" fill="black"/>
<path d="M51.9425 68.5325H49.1775V71.2975H51.9425V68.5325Z" fill="black"/>
<path d="M54.7075 68.5325H51.9425V71.2975H54.7075V68.5325Z" fill="black"/>
<path d="M60.2375 68.5325H57.4725V71.2975H60.2375V68.5325Z" fill="black"/>
<path d="M65.7675 68.5325H63.0025V71.2975H65.7675V68.5325Z" fill="black"/>
<path d="M68.5325 68.5325H65.7675V71.2975H68.5325V68.5325Z" fill="black"/>
<path d="M71.2975 68.5325H68.5325V71.2975H71.2975V68.5325Z" fill="black"/>
<path d="M74.0625 68.5325H71.2975V71.2975H74.0625V68.5325Z" fill="black"/>
<path d="M7.7025 71.2975H4.9375V74.0625H7.7025V71.2975Z" fill="black"/>
<path d="M10.4675 71.2975H7.7025V74.0625H10.4675V71.2975Z" fill="black"/>
<path d="M13.2325 71.2975H10.4675V74.0625H13.2325V71.2975Z" fill="black"/>
<path d="M15.9975 71.2975H13.2325V74.0625H15.9975V71.2975Z" fill="black"/>
<path d="M18.7625 71.2975H15.9975V74.0625H18.7625V71.2975Z" fill="black"/>
<path d="M21.5275 71.2975H18.7625V74.0625H21.5275L21.5275 71.2975Z" fill="black"/>
<path d="M24.2925 71.2975H21.5275L21.5275 74.0625H24.2925V71.2975Z" fill="black"/>
<path d="M29.8225 71.2975H27.0575V74.0625H29.8225V71.2975Z" fill="black"/>
<path d="M38.1175 71.2975H35.3525V74.0625H38.1175V71.2975Z" fill="black"/>
<path d="M40.8825 71.2975H38.1175V74.0625H40.8825V71.2975Z" fill="black"/>
<path d="M49.1775 71.2975H46.4125V74.0625H49.1775V71.2975Z" fill="black"/>
<path d="M51.9425 71.2975H49.1775V74.0625H51.9425V71.2975Z" fill="black"/>
<path d="M63.0025 71.2975H60.2375V74.0625H63.0025V71.2975Z" fill="black"/>
<path d="M65.7675 71.2975H63.0025V74.0625H65.7675V71.2975Z" fill="black"/>
<path d="M74.0625 71.2975H71.2975V74.0625H74.0625V71.2975Z" fill="black"/>
</g>
<defs>
<clipPath id="clip0_4661_4975">
<rect width="79" height="79" fill="white"/>
</clipPath>
</defs>
</svg>
