<svg width="36" height="36" viewBox="0 0 36 36" fill="none" xmlns="http://www.w3.org/2000/svg">
<rect width="36" height="36" rx="8" fill="#FFF7EE"/>
<path opacity="0.4" d="M18.0003 10.6665C15.817 10.6665 14.042 12.4415 14.042 14.6248C14.042 16.7665 15.717 18.4998 17.9003 18.5748C17.967 18.5665 18.0337 18.5665 18.0837 18.5748C18.1003 18.5748 18.1087 18.5748 18.1253 18.5748C18.1337 18.5748 18.1337 18.5748 18.142 18.5748C20.2753 18.4998 21.9503 16.7665 21.9587 14.6248C21.9587 12.4415 20.1837 10.6665 18.0003 10.6665Z" fill="#FFA900"/>
<path d="M22.2338 20.7919C19.9088 19.2419 16.1171 19.2419 13.7755 20.7919C12.7171 21.5002 12.1338 22.4586 12.1338 23.4836C12.1338 24.5086 12.7171 25.4586 13.7671 26.1586C14.9338 26.9419 16.4671 27.3336 18.0005 27.3336C19.5338 27.3336 21.0671 26.9419 22.2338 26.1586C23.2838 25.4502 23.8671 24.5002 23.8671 23.4669C23.8588 22.4419 23.2838 21.4919 22.2338 20.7919Z" fill="#FFA900"/>
</svg>
