<svg width="36" height="37" viewBox="0 0 36 37" fill="none" xmlns="http://www.w3.org/2000/svg">
<rect y="0.5" width="36" height="36" rx="8" fill="#FFF7EE"/>
<path opacity="0.4" d="M26.3337 16.5V22.7167C26.3337 24.625 24.7837 26.1667 22.8753 26.1667H13.1253C11.217 26.1667 9.66699 24.625 9.66699 22.7167V16.5H26.3337Z" fill="#FFA900"/>
<path d="M26.3337 15.2835V16.5002H9.66699V15.2835C9.66699 13.3752 11.217 11.8335 13.1253 11.8335H22.8753C24.7837 11.8335 26.3337 13.3752 26.3337 15.2835Z" fill="#FFA900"/>
<path d="M14.6667 23.375H13C12.6583 23.375 12.375 23.0917 12.375 22.75C12.375 22.4083 12.6583 22.125 13 22.125H14.6667C15.0083 22.125 15.2917 22.4083 15.2917 22.75C15.2917 23.0917 15.0083 23.375 14.6667 23.375Z" fill="#FFA900"/>
<path d="M20.0833 23.375H16.75C16.4083 23.375 16.125 23.0917 16.125 22.75C16.125 22.4083 16.4083 22.125 16.75 22.125H20.0833C20.425 22.125 20.7083 22.4083 20.7083 22.75C20.7083 23.0917 20.425 23.375 20.0833 23.375Z" fill="#FFA900"/>
</svg>
