<svg width="50" height="50" viewBox="0 0 50 50" fill="none" xmlns="http://www.w3.org/2000/svg">
<g clip-path="url(#clip0_4501_3029)">
<circle cx="25" cy="25" r="25" fill="#FFF5D9"/>
<path d="M28.9512 34.3722H17.1646C16.5337 34.3716 15.9289 34.1207 15.4828 33.6746C15.0367 33.2285 14.7858 32.6237 14.7852 31.9928V24.9585C14.7858 24.3277 15.0367 23.7228 15.4828 23.2767C15.9289 22.8307 16.5337 22.5798 17.1646 22.5791H28.9512C29.5821 22.5798 30.1869 22.8307 30.633 23.2767C31.0791 23.7228 31.33 24.3277 31.3306 24.9585V31.9928C31.33 32.6237 31.0791 33.2285 30.633 33.6746C30.1869 34.1207 29.5821 34.3716 28.9512 34.3722ZM17.1646 24.0706C16.9291 24.0708 16.7035 24.1645 16.537 24.3309C16.3705 24.4974 16.2769 24.7231 16.2766 24.9585V31.9928C16.2769 32.2282 16.3705 32.4539 16.537 32.6204C16.7035 32.7868 16.9291 32.8805 17.1646 32.8807H28.9512C29.1866 32.8805 29.4123 32.7868 29.5788 32.6204C29.7452 32.4539 29.8389 32.2282 29.8391 31.9928V24.9585C29.8389 24.7231 29.7452 24.4974 29.5788 24.3309C29.4123 24.1645 29.1866 24.0708 28.9512 24.0706H17.1646Z" fill="#FFBB38"/>
<path d="M32.295 30.3561H30.5867C30.3889 30.3561 30.1993 30.2775 30.0594 30.1377C29.9195 29.9978 29.841 29.8082 29.841 29.6104C29.841 29.4126 29.9195 29.2229 30.0594 29.0831C30.1993 28.9432 30.3889 28.8646 30.5867 28.8646H32.295C32.5302 28.8641 32.7556 28.7704 32.9219 28.6039C33.0881 28.4375 33.1816 28.2119 33.1819 27.9767V20.9424C33.1818 20.7071 33.0883 20.4814 32.9221 20.3149C32.7558 20.1483 32.5303 20.0545 32.295 20.054H20.5083C20.2729 20.0542 20.0472 20.1479 19.8807 20.3143C19.7143 20.4808 19.6206 20.7065 19.6204 20.9419V23.3243C19.6204 23.5221 19.5418 23.7118 19.402 23.8516C19.2621 23.9915 19.0724 24.07 18.8746 24.07C18.6769 24.07 18.4872 23.9915 18.3473 23.8516C18.2075 23.7118 18.1289 23.5221 18.1289 23.3243V20.9424C18.1294 20.3115 18.3803 19.7065 18.8264 19.2603C19.2725 18.8141 19.8774 18.5632 20.5083 18.5625H32.295C32.9257 18.5634 33.5304 18.8145 33.9763 19.2607C34.4221 19.7068 34.6728 20.3116 34.6734 20.9424V27.9767C34.6727 28.6074 34.4219 29.2121 33.9761 29.6581C33.5302 30.1042 32.9256 30.3552 32.295 30.3561Z" fill="#FFBB38"/>
<path d="M30.5849 29.0421H15.5309C15.3331 29.0421 15.1434 28.9635 15.0036 28.8236C14.8637 28.6838 14.7852 28.4941 14.7852 28.2963V25.7916C14.7852 25.5939 14.8637 25.4042 15.0036 25.2643C15.1434 25.1245 15.3331 25.0459 15.5309 25.0459H30.5849C30.7827 25.0459 30.9723 25.1245 31.1122 25.2643C31.252 25.4042 31.3306 25.5939 31.3306 25.7916V28.2963C31.3306 28.4941 31.252 28.6838 31.1122 28.8236C30.9723 28.9635 30.7827 29.0421 30.5849 29.0421ZM16.2766 27.5506H29.8391V26.5374H16.2766V27.5506Z" fill="#FFBB38"/>
</g>
<defs>
<clipPath id="clip0_4501_3029">
<rect width="50" height="50" fill="white"/>
</clipPath>
</defs>
</svg>
