<svg width="170" height="49" viewBox="0 0 170 49" fill="none" xmlns="http://www.w3.org/2000/svg">
<path d="M168.297 43.0252C168.297 45.6169 166.154 47.7163 163.503 47.7163H6.62047C3.97094 47.7163 1.82031 45.6169 1.82031 43.0252V5.61519C1.82031 3.02468 3.97094 0.917969 6.62047 0.917969H163.502C166.154 0.917969 168.295 3.02468 168.295 5.61519L168.297 43.0252Z" fill="black"/>
<path d="M162.999 0.974432C165.885 0.974432 168.234 3.26477 168.234 6.07943V42.5546C168.234 45.3693 165.885 47.6596 162.999 47.6596H7.12179C4.23495 47.6596 1.88589 45.3693 1.88589 42.5546V6.07943C1.88589 3.26477 4.23495 0.974432 7.12179 0.974432H162.999ZM162.999 0.000242956H7.12179C3.69406 0.000242956 0.886719 2.7374 0.886719 6.07943V42.5546C0.886719 45.8966 3.69406 48.6338 7.12179 48.6338H162.999C166.426 48.6338 169.234 45.8966 169.234 42.5546V6.07943C169.234 2.7374 166.426 0.000242956 162.999 0.000242956Z" fill="#A6A6A6"/>
<path d="M38.4543 24.0534C38.4181 20.1347 41.7452 18.2283 41.8973 18.1395C40.0131 15.4611 37.0926 15.0951 36.0663 15.0659C33.6134 14.8142 31.2341 16.497 29.9846 16.497C28.7101 16.497 26.786 15.0902 24.7122 15.1316C22.0436 15.1717 19.5471 16.6781 18.1778 19.0174C15.3521 23.7871 17.4596 30.7964 20.1668 34.6518C21.5211 36.54 23.1035 38.6483 25.1748 38.5741C27.2012 38.4927 27.9582 37.3145 30.4036 37.3145C32.8265 37.3145 33.5373 38.5741 35.6498 38.5267C37.8246 38.4927 39.1938 36.63 40.5006 34.7248C42.0656 32.5606 42.6941 30.4292 42.7191 30.3198C42.668 30.3028 38.4954 28.7502 38.4543 24.0534Z" fill="white"/>
<path d="M34.4638 12.5297C35.5537 11.2008 36.2995 9.39281 36.0924 7.55811C34.515 7.62619 32.5422 8.62196 31.4062 9.9217C30.4011 11.067 29.5032 12.9443 29.7352 14.7097C31.5072 14.8385 33.3266 13.8379 34.4638 12.5297Z" fill="white"/>
<path d="M67.7836 38.3029H64.9517L63.4004 33.5502H58.0083L56.5306 38.3029H53.7734L59.1156 22.1226H62.4152L67.7836 38.3029ZM62.9328 31.5563L61.5299 27.3312C61.3815 26.8996 61.1034 25.8831 60.6931 24.2831H60.6432C60.4799 24.9713 60.2168 25.9877 59.8551 27.3312L58.4772 31.5563H62.9328Z" fill="white"/>
<path d="M81.5198 32.3256C81.5198 34.3099 80.9698 35.8783 79.87 37.0297C78.8848 38.0547 77.6615 38.5665 76.2012 38.5665C74.625 38.5665 73.4927 38.0145 72.8031 36.9106H72.7532V43.0566H70.0946V30.4763C70.0946 29.2289 70.0609 27.9486 69.9961 26.6355H72.3342L72.4826 28.4848H72.5325C73.4191 27.0915 74.7647 26.396 76.5704 26.396C77.982 26.396 79.1604 26.9395 80.1031 28.0277C81.0484 29.117 81.5198 30.5493 81.5198 32.3256ZM78.8112 32.4205C78.8112 31.2849 78.5494 30.3487 78.0231 29.6119C77.4482 28.8435 76.6763 28.4593 75.7087 28.4593C75.0527 28.4593 74.4567 28.6733 73.9242 29.0952C73.3905 29.5207 73.0413 30.0763 72.8779 30.7645C72.7956 31.0855 72.7545 31.3481 72.7545 31.5548V33.5001C72.7545 34.3488 73.0213 35.0649 73.5551 35.6497C74.0888 36.2346 74.7821 36.5264 75.6351 36.5264C76.6364 36.5264 77.4158 36.1495 77.9732 35.3981C78.5319 34.6455 78.8112 33.6533 78.8112 32.4205Z" fill="white"/>
<path d="M95.2841 32.3256C95.2841 34.3099 94.7342 35.8783 93.6331 37.0297C92.6492 38.0547 91.4259 38.5665 89.9656 38.5665C88.3894 38.5665 87.2571 38.0145 86.5687 36.9106H86.5189V43.0566H83.8602V30.4763C83.8602 29.2289 83.8266 27.9486 83.7617 26.6355H86.0999L86.2483 28.4848H86.2981C87.1835 27.0915 88.5291 26.396 90.336 26.396C91.7464 26.396 92.9248 26.9395 93.87 28.0277C94.8115 29.117 95.2841 30.5493 95.2841 32.3256ZM92.5756 32.4205C92.5756 31.2849 92.3125 30.3487 91.7863 29.6119C91.2114 28.8435 90.442 28.4593 89.473 28.4593C88.8159 28.4593 88.221 28.6733 87.6873 29.0952C87.1536 29.5207 86.8057 30.0763 86.6423 30.7645C86.5613 31.0855 86.5189 31.3481 86.5189 31.5548V33.5001C86.5189 34.3488 86.7857 35.0649 87.317 35.6497C87.8507 36.2333 88.544 36.5264 89.3995 36.5264C90.4008 36.5264 91.1802 36.1495 91.7376 35.3981C92.2963 34.6455 92.5756 33.6533 92.5756 32.4205Z" fill="white"/>
<path d="M110.674 33.7657C110.674 35.142 110.184 36.2618 109.2 37.1263C108.119 38.071 106.614 38.5427 104.68 38.5427C102.894 38.5427 101.463 38.2072 100.379 37.5348L100.995 35.3743C102.162 36.0624 103.443 36.4077 104.838 36.4077C105.84 36.4077 106.619 36.1864 107.179 35.7463C107.736 35.3062 108.014 34.7153 108.014 33.9785C108.014 33.3219 107.785 32.7687 107.325 32.3201C106.867 31.8714 106.103 31.4544 105.035 31.069C102.13 30.0124 100.678 28.4646 100.678 26.4293C100.678 25.0992 101.187 24.0086 102.206 23.1599C103.221 22.3101 104.575 21.8857 106.269 21.8857C107.779 21.8857 109.033 22.1423 110.035 22.6542L109.37 24.7673C108.435 24.2712 107.377 24.0232 106.194 24.0232C105.258 24.0232 104.528 24.2481 104.004 24.6955C103.561 25.0956 103.339 25.5831 103.339 26.1606C103.339 26.8002 103.592 27.3291 104.101 27.7449C104.544 28.1291 105.348 28.5449 106.515 28.9935C107.943 29.554 108.992 30.2094 109.667 30.9608C110.339 31.7097 110.674 32.6471 110.674 33.7657Z" fill="white"/>
<path d="M119.463 28.5809H116.533V34.2455C116.533 35.6863 117.049 36.4061 118.084 36.4061C118.559 36.4061 118.953 36.3659 119.265 36.2857L119.339 38.2541C118.815 38.445 118.125 38.5411 117.271 38.5411C116.221 38.5411 115.401 38.2286 114.808 37.6049C114.218 36.9799 113.922 35.9319 113.922 34.4595V28.5785H112.176V26.6332H113.922V24.4969L116.533 23.7285V26.6332H119.463V28.5809Z" fill="white"/>
<path d="M132.686 32.3733C132.686 34.1667 132.159 35.6391 131.109 36.7905C130.008 37.9759 128.547 38.5668 126.725 38.5668C124.969 38.5668 123.571 37.999 122.529 36.8634C121.486 35.7278 120.965 34.2943 120.965 32.5666C120.965 30.7587 121.501 29.2778 122.577 28.1264C123.651 26.9738 125.1 26.3975 126.922 26.3975C128.678 26.3975 130.09 26.9653 131.157 28.1021C132.177 29.2048 132.686 30.6286 132.686 32.3733ZM129.927 32.4572C129.927 31.3812 129.691 30.4584 129.214 29.6887C128.656 28.7574 127.86 28.293 126.827 28.293C125.758 28.293 124.947 28.7586 124.389 29.6887C123.912 30.4596 123.676 31.397 123.676 32.5058C123.676 33.5819 123.912 34.5047 124.389 35.2731C124.964 36.2044 125.767 36.6689 126.803 36.6689C127.818 36.6689 128.615 36.1947 129.19 35.2488C129.68 34.4646 129.927 33.532 129.927 32.4572Z" fill="white"/>
<path d="M141.328 28.9152C141.065 28.8678 140.784 28.8435 140.49 28.8435C139.555 28.8435 138.831 29.1876 138.323 29.8769C137.88 30.4849 137.658 31.2533 137.658 32.181V38.3027H135.001L135.026 30.3098C135.026 28.9651 134.992 27.7407 134.926 26.6367H137.241L137.339 28.869H137.412C137.693 28.1018 138.136 27.4842 138.742 27.0209C139.334 26.6039 139.974 26.396 140.663 26.396C140.909 26.396 141.131 26.413 141.328 26.4434V28.9152Z" fill="white"/>
<path d="M153.22 31.9175C153.22 32.382 153.189 32.7735 153.123 33.0932H145.147C145.178 34.2459 145.564 35.1273 146.305 35.7353C146.977 36.2787 147.846 36.5511 148.913 36.5511C150.094 36.5511 151.172 36.3675 152.141 35.9991L152.557 37.7985C151.425 38.28 150.088 38.5195 148.545 38.5195C146.69 38.5195 145.233 37.987 144.173 36.9231C143.116 35.8593 142.586 34.4307 142.586 32.6385C142.586 30.8792 143.079 29.4141 144.065 28.2457C145.097 26.9982 146.493 26.3745 148.249 26.3745C149.973 26.3745 151.279 26.9982 152.165 28.2457C152.868 29.2366 153.22 30.4622 153.22 31.9175ZM150.685 31.2452C150.703 30.4767 150.529 29.8129 150.169 29.2524C149.709 28.5314 149.002 28.1715 148.05 28.1715C147.181 28.1715 146.474 28.5229 145.934 29.2281C145.491 29.7886 145.228 30.4609 145.147 31.2439H150.685V31.2452Z" fill="white"/>
<path d="M62.053 12.1689C62.053 13.6 61.6128 14.6772 60.7337 15.4006C59.9194 16.0681 58.7622 16.4025 57.2632 16.4025C56.52 16.4025 55.884 16.3709 55.3516 16.3077V8.4886C56.0461 8.37917 56.7944 8.32324 57.6024 8.32324C59.0303 8.32324 60.1064 8.62599 60.8322 9.23147C61.6452 9.91599 62.053 10.8947 62.053 12.1689ZM60.6751 12.2042C60.6751 11.2765 60.4232 10.5652 59.9194 10.0692C59.4156 9.57434 58.6798 9.32631 57.7109 9.32631C57.2994 9.32631 56.949 9.35306 56.6584 9.40899V15.3532C56.8193 15.3775 57.1136 15.3885 57.5413 15.3885C58.5414 15.3885 59.3133 15.1173 59.857 14.5751C60.4007 14.0328 60.6751 13.2425 60.6751 12.2042Z" fill="white"/>
<path d="M69.359 13.4189C69.359 14.3004 69.1009 15.0226 68.5846 15.5892C68.0434 16.1716 67.3264 16.4622 66.431 16.4622C65.5681 16.4622 64.881 16.1837 64.3685 15.6245C63.8572 15.0664 63.6016 14.3624 63.6016 13.5138C63.6016 12.6262 63.8647 11.8979 64.3934 11.3325C64.9221 10.7672 65.633 10.4839 66.5283 10.4839C67.3912 10.4839 68.0846 10.7623 68.6096 11.3204C69.1084 11.8626 69.359 12.563 69.359 13.4189ZM68.0035 13.4603C68.0035 12.9314 67.8863 12.4779 67.6531 12.0997C67.3788 11.6426 66.9885 11.414 66.4809 11.414C65.9559 11.414 65.5569 11.6426 65.2825 12.0997C65.0481 12.4779 64.9321 12.9387 64.9321 13.4834C64.9321 14.0123 65.0493 14.4658 65.2825 14.8439C65.5656 15.301 65.9597 15.5296 66.4685 15.5296C66.9673 15.5296 67.3588 15.2974 67.6406 14.8317C67.8826 14.4463 68.0035 13.9891 68.0035 13.4603Z" fill="white"/>
<path d="M79.1538 10.6011L77.3145 16.3325H76.1173L75.3554 13.8437C75.1621 13.2224 75.005 12.6048 74.8828 11.992H74.8591C74.7456 12.6218 74.5885 13.2382 74.3865 13.8437L73.5772 16.3325H72.3663L70.6367 10.6011H71.9798L72.6444 13.3258C72.8053 13.9702 72.9375 14.5842 73.0435 15.1653H73.0671C73.1644 14.6863 73.3253 14.0759 73.5522 13.3379L74.3865 10.6023H75.4514L76.2508 13.2796C76.4441 13.9325 76.6012 14.5611 76.7221 15.1665H76.7583C76.8468 14.5769 76.9803 13.9483 77.1574 13.2796L77.8706 10.6023H79.1538V10.6011Z" fill="white"/>
<path d="M85.93 16.3323H84.6231V13.0495C84.6231 12.038 84.2291 11.5322 83.4385 11.5322C83.0506 11.5322 82.7376 11.6708 82.4945 11.9492C82.2538 12.2276 82.1316 12.5559 82.1316 12.9316V16.3311H80.8247V12.2386C80.8247 11.7352 80.8085 11.1893 80.7773 10.5984H81.9258L81.9869 11.4945H82.0231C82.1752 11.2161 82.4022 10.9863 82.7002 10.8027C83.0544 10.5887 83.4509 10.4805 83.8849 10.4805C84.4336 10.4805 84.89 10.6531 85.2529 10.9996C85.7043 11.424 85.93 12.0574 85.93 12.8988V16.3323Z" fill="white"/>
<path d="M89.5361 16.332H88.2305V7.9707H89.5361V16.332Z" fill="white"/>
<path d="M97.2262 13.4189C97.2262 14.3004 96.9681 15.0226 96.4518 15.5892C95.9106 16.1716 95.1923 16.4622 94.2982 16.4622C93.4341 16.4622 92.7469 16.1837 92.2357 15.6245C91.7244 15.0664 91.4688 14.3624 91.4688 13.5138C91.4688 12.6262 91.7319 11.8979 92.2606 11.3325C92.7893 10.7672 93.5001 10.4839 94.3942 10.4839C95.2584 10.4839 95.9505 10.7623 96.4768 11.3204C96.9756 11.8626 97.2262 12.563 97.2262 13.4189ZM95.8695 13.4603C95.8695 12.9314 95.7522 12.4779 95.5191 12.0997C95.246 11.6426 94.8544 11.414 94.3481 11.414C93.8219 11.414 93.4228 11.6426 93.1497 12.0997C92.9153 12.4779 92.7993 12.9387 92.7993 13.4834C92.7993 14.0123 92.9165 14.4658 93.1497 14.8439C93.4328 15.301 93.8269 15.5296 94.3356 15.5296C94.8344 15.5296 95.2248 15.2974 95.5066 14.8317C95.7497 14.4463 95.8695 13.9891 95.8695 13.4603Z" fill="white"/>
<path d="M103.553 16.3321H102.379L102.282 15.6719H102.246C101.844 16.1983 101.272 16.4622 100.528 16.4622C99.9736 16.4622 99.5247 16.2883 99.1867 15.943C98.8799 15.6293 98.7266 15.239 98.7266 14.7758C98.7266 14.0755 99.0258 13.5417 99.6282 13.1721C100.229 12.8025 101.075 12.6213 102.163 12.6298V12.5228C102.163 11.7678 101.757 11.3909 100.943 11.3909C100.363 11.3909 99.8514 11.5332 99.4099 11.8152L99.1443 10.9787C99.6905 10.6492 100.365 10.4839 101.161 10.4839C102.697 10.4839 103.468 11.2742 103.468 12.8548V14.9655C103.468 15.5381 103.496 15.9941 103.553 16.3321ZM102.196 14.3624V13.4785C100.754 13.4542 100.033 13.8396 100.033 14.6335C100.033 14.9326 100.116 15.1564 100.284 15.3059C100.452 15.4555 100.667 15.5296 100.923 15.5296C101.209 15.5296 101.477 15.4409 101.722 15.2646C101.968 15.0871 102.118 14.8621 102.175 14.5861C102.188 14.5241 102.196 14.4487 102.196 14.3624Z" fill="white"/>
<path d="M110.979 16.332H109.819L109.758 15.4116H109.722C109.351 16.112 108.72 16.4621 107.834 16.4621C107.125 16.4621 106.536 16.191 106.068 15.6487C105.6 15.1065 105.367 14.4025 105.367 13.538C105.367 12.6103 105.62 11.859 106.129 11.2851C106.622 10.7501 107.225 10.4826 107.944 10.4826C108.733 10.4826 109.285 10.7416 109.6 11.2608H109.624V7.9707H110.933V14.7879C110.933 15.346 110.948 15.8603 110.979 16.332ZM109.624 13.9149V12.9593C109.624 12.7939 109.612 12.6602 109.588 12.5581C109.515 12.2517 109.356 11.9939 109.116 11.786C108.873 11.5781 108.579 11.4735 108.242 11.4735C107.754 11.4735 107.372 11.662 107.092 12.0401C106.814 12.4182 106.673 12.9009 106.673 13.4906C106.673 14.0572 106.806 14.5168 107.074 14.8706C107.357 15.2475 107.739 15.436 108.217 15.436C108.646 15.436 108.989 15.2791 109.249 14.9642C109.501 14.6736 109.624 14.3235 109.624 13.9149Z" fill="white"/>
<path d="M122.156 13.4189C122.156 14.3004 121.898 15.0226 121.382 15.5892C120.84 16.1716 120.125 16.4622 119.228 16.4622C118.366 16.4622 117.679 16.1837 117.165 15.6245C116.654 15.0664 116.398 14.3624 116.398 13.5138C116.398 12.6262 116.662 11.8979 117.19 11.3325C117.719 10.7672 118.43 10.4839 119.326 10.4839C120.188 10.4839 120.883 10.7623 121.406 11.3204C121.905 11.8626 122.156 12.563 122.156 13.4189ZM120.802 13.4603C120.802 12.9314 120.684 12.4779 120.451 12.0997C120.176 11.6426 119.787 11.414 119.278 11.414C118.754 11.414 118.355 11.6426 118.079 12.0997C117.845 12.4779 117.729 12.9387 117.729 13.4834C117.729 14.0123 117.846 14.4658 118.079 14.8439C118.362 15.301 118.757 15.5296 119.265 15.5296C119.764 15.5296 120.157 15.2974 120.439 14.8317C120.679 14.4463 120.802 13.9891 120.802 13.4603Z" fill="white"/>
<path d="M129.183 16.3323H127.877V13.0495C127.877 12.038 127.483 11.5322 126.691 11.5322C126.303 11.5322 125.99 11.6708 125.748 11.9492C125.506 12.2276 125.386 12.5559 125.386 12.9316V16.3311H124.077V12.2386C124.077 11.7352 124.062 11.1893 124.031 10.5984H125.178L125.24 11.4945H125.276C125.429 11.2161 125.656 10.9863 125.953 10.8027C126.308 10.5887 126.704 10.4805 127.139 10.4805C127.686 10.4805 128.143 10.6531 128.506 10.9996C128.958 11.424 129.183 12.0574 129.183 12.8988V16.3323Z" fill="white"/>
<path d="M137.979 11.5552H136.54V14.3394C136.54 15.0471 136.795 15.4009 137.301 15.4009C137.536 15.4009 137.73 15.3814 137.884 15.3413L137.918 16.3079C137.659 16.4027 137.32 16.4501 136.902 16.4501C136.386 16.4501 135.985 16.2969 135.694 15.9905C135.402 15.6842 135.258 15.1686 135.258 14.4452V11.5552H134.398V10.6007H135.258V9.55025L136.538 9.17334V10.5995H137.977V11.5552H137.979Z" fill="white"/>
<path d="M144.898 16.332H143.59V13.0736C143.59 12.0462 143.196 11.5319 142.407 11.5319C141.801 11.5319 141.387 11.8298 141.16 12.4255C141.121 12.5508 141.099 12.704 141.099 12.8839V16.3308H139.793V7.9707H141.099V11.4249H141.124C141.535 10.7963 142.125 10.4826 142.889 10.4826C143.431 10.4826 143.878 10.6553 144.234 11.0018C144.676 11.4334 144.898 12.0754 144.898 12.924V16.332Z" fill="white"/>
<path d="M152.035 13.1954C152.035 13.424 152.017 13.6161 151.986 13.7729H148.067C148.084 14.3395 148.271 14.7711 148.634 15.0702C148.966 15.3377 149.394 15.4715 149.917 15.4715C150.497 15.4715 151.026 15.3815 151.502 15.2003L151.707 16.0855C151.149 16.3213 150.494 16.4393 149.734 16.4393C148.824 16.4393 148.107 16.1779 147.588 15.655C147.067 15.1322 146.809 14.4307 146.809 13.5504C146.809 12.686 147.049 11.9662 147.534 11.3923C148.041 10.7795 148.725 10.4731 149.589 10.4731C150.435 10.4731 151.077 10.7795 151.511 11.3923C151.861 11.8787 152.035 12.4805 152.035 13.1954ZM150.788 12.8659C150.798 12.4878 150.712 12.1619 150.535 11.8872C150.308 11.5334 149.962 11.3558 149.495 11.3558C149.068 11.3558 148.72 11.5285 148.455 11.875C148.238 12.151 148.109 12.4805 148.067 12.8659H150.788Z" fill="white"/>
</svg>
