<svg width="1437" height="202" viewBox="0 0 1437 202" fill="none" xmlns="http://www.w3.org/2000/svg">
<path d="M15.972 97.5658C20.564 88.7098 26.96 81.9858 35.488 77.0658C44.016 72.3098 54.02 69.8498 65.5 69.8498C74.356 69.8498 82.392 71.6538 89.608 75.0978C96.66 78.7058 102.4 83.6258 106.828 89.8578C111.092 96.2538 113.716 103.634 114.7 111.834H90.1C88.624 105.274 85.672 100.19 81.08 96.4178C76.488 92.6458 70.912 90.6778 64.188 90.6778C55.004 90.6778 47.624 94.1218 42.376 101.01C36.964 107.898 34.34 117.082 34.34 128.234C34.34 139.386 36.964 148.57 42.376 155.458C47.624 162.346 55.004 165.79 64.188 165.79C70.912 165.79 76.488 163.986 81.08 160.214C85.672 156.442 88.624 151.194 90.1 144.634H114.7C113.716 152.998 111.092 160.378 106.828 166.61C102.4 173.006 96.66 177.926 89.608 181.37C82.392 184.978 74.356 186.618 65.5 186.618C54.02 186.618 44.016 184.322 35.488 179.402C26.96 174.646 20.564 167.922 15.972 159.066C11.38 150.21 9.248 140.042 9.248 128.234C9.248 116.59 11.38 106.422 15.972 97.5658ZM210.172 166.118V185.634H198.364C187.704 185.634 182.456 181.042 182.784 171.858C179.668 176.778 175.896 180.386 171.468 182.846C166.876 185.47 161.464 186.618 155.232 186.618C145.72 186.618 138.176 184.486 132.436 180.222C126.696 175.958 123.908 169.726 123.908 161.854C123.908 152.998 127.188 146.11 133.748 141.19C140.308 136.27 149.984 133.81 162.612 133.81H179.34V129.71C179.34 125.938 177.864 122.986 175.076 120.69C172.124 118.394 168.352 117.246 163.596 117.246C159.332 117.246 155.724 118.23 153.1 120.034C150.312 122.002 148.672 124.462 148.18 127.578H125.876C126.532 119.05 130.468 112.326 137.356 107.57C144.244 102.814 153.264 100.354 164.744 100.354C176.552 100.354 185.736 102.978 192.296 108.226C198.856 113.474 202.136 121.182 202.136 131.022V160.706C202.136 162.838 202.464 164.314 203.448 164.97C204.268 165.79 205.58 166.118 207.548 166.118H210.172ZM179.34 149.226H162.448C157.528 149.226 153.756 150.21 151.132 152.178C148.508 154.146 147.196 156.77 147.196 160.214C147.196 163.166 148.18 165.626 150.476 167.266C152.772 169.07 155.724 169.89 159.66 169.89C165.564 169.89 170.32 168.25 173.928 164.806C177.372 161.362 179.176 156.77 179.34 150.866V149.226ZM270.45 101.338V122.33H261.266C254.706 122.33 249.786 124.298 246.834 128.234C243.718 132.17 242.242 137.582 242.242 144.306V185.634H219.118V101.338H240.11L242.242 113.966C244.702 109.866 247.818 106.75 251.59 104.618C255.198 102.486 260.282 101.338 266.514 101.338H270.45ZM280.024 120.854C283.632 114.294 288.552 109.374 294.948 105.766C301.344 102.158 308.724 100.354 317.252 100.354C325.78 100.354 333.16 102.158 339.72 105.438C346.28 108.718 351.364 113.474 354.972 119.542C358.58 125.61 360.548 132.662 360.712 140.862C360.712 143.814 360.384 146.438 360.056 148.734H298.884V149.39C299.376 155.622 301.344 160.378 304.788 163.822C308.068 167.43 312.824 169.07 318.728 169.07C323.32 169.07 327.256 168.086 330.372 166.118C333.488 164.15 335.62 161.034 336.604 157.098H359.4C358.416 162.674 356.284 167.758 353.004 172.186C349.56 176.778 345.132 180.222 339.556 182.846C333.98 185.47 327.584 186.618 320.368 186.618C310.856 186.618 302.82 184.978 295.932 181.37C289.044 177.926 283.796 173.006 280.188 166.446C276.58 159.886 274.776 152.342 274.776 143.65C274.776 134.958 276.416 127.414 280.024 120.854ZM337.588 133.646C336.768 128.562 334.636 124.626 331.192 121.838C327.748 119.05 323.484 117.574 318.236 117.574C313.152 117.574 308.888 119.05 305.444 122.002C302 124.954 300.032 128.726 299.376 133.646H337.588ZM405.992 101.338H430.428L447.32 160.706L463.228 101.338H484.056L499.472 160.87L516.692 101.338H540.308L512.592 185.634H487.992L473.232 134.794L458.144 185.634H433.544L405.992 101.338ZM569.555 70.0138C572.015 72.4738 573.327 75.5898 573.327 79.1978C573.327 82.9698 572.015 86.0858 569.555 88.5458C566.931 91.1698 563.815 92.3178 560.043 92.3178C556.107 92.3178 552.991 91.1698 550.367 88.5458C547.743 86.0858 546.595 82.9698 546.595 79.1978C546.595 75.5898 547.743 72.4738 550.367 70.0138C552.991 67.5538 556.107 66.2418 560.043 66.2418C563.815 66.2418 566.931 67.5538 569.555 70.0138ZM548.399 101.338H571.523V185.634H548.399V101.338ZM593.05 120.854H579.11V101.338H593.05V77.7218H616.174V101.338H635.362V120.854H616.174V157.754C616.174 160.706 616.666 162.838 617.978 164.15C619.29 165.462 621.422 166.118 624.374 166.118H636.346V185.634H617.158C601.086 185.634 593.05 177.598 593.05 161.526V120.854ZM718.583 109.538C724.979 115.77 728.259 125.774 728.259 139.878V185.634H705.135V140.862C705.135 133.974 703.659 128.562 700.871 124.954C697.919 121.346 693.655 119.378 688.079 119.378C682.175 119.378 677.419 121.51 674.139 125.446C670.859 129.546 669.219 135.122 669.219 142.338V185.634H646.095V70.8338H669.219V111.67C675.451 104.126 683.651 100.354 694.147 100.354C703.987 100.354 712.187 103.47 718.583 109.538Z" fill="#313234"/>
<path d="M804.829 148.242C805.157 153.982 807.453 158.574 811.717 162.018C815.981 165.462 821.557 167.102 828.609 167.102C834.349 167.102 839.105 165.954 842.713 163.494C846.321 161.034 848.289 157.59 848.289 153.162C848.289 150.21 847.141 147.75 845.173 145.946C843.205 144.142 840.253 142.666 836.645 141.682C833.037 140.698 827.297 139.386 819.753 137.746C812.209 136.434 805.813 134.63 800.729 132.334C795.481 130.038 791.381 126.758 788.101 122.33C784.821 117.902 783.345 111.998 783.345 104.618C783.345 98.0578 785.149 91.9898 788.757 86.7418C792.365 81.4938 797.449 77.3938 804.009 74.4418C810.569 71.4898 817.949 69.8498 826.149 69.8498C834.513 69.8498 842.057 71.4898 848.781 74.6058C855.505 77.7218 860.753 81.9858 864.689 87.3978C868.625 92.9738 870.593 99.0418 870.757 105.93H846.649C845.993 101.01 844.025 97.0738 840.417 94.1218C836.809 91.1698 832.053 89.5298 826.149 89.5298C820.573 89.5298 816.309 90.6778 813.029 92.9738C809.749 95.2698 808.109 98.5498 808.109 102.814C808.109 105.93 809.093 108.39 811.061 110.03C813.029 111.67 815.817 113.146 819.425 114.13C823.033 115.114 828.609 116.426 836.153 117.738C843.697 119.214 850.257 121.018 855.505 123.15C860.753 125.282 864.853 128.562 868.133 132.826C871.413 137.09 873.053 142.83 873.053 150.046C873.053 157.098 871.085 163.33 867.313 168.906C863.377 174.482 858.129 178.746 851.241 181.862C844.353 185.142 836.809 186.618 828.281 186.618C819.097 186.618 810.897 184.978 803.681 181.698C796.465 178.418 790.889 173.662 786.953 167.758C782.853 161.854 780.721 155.294 780.721 147.914L804.829 148.242ZM887.977 120.854C891.585 114.294 896.505 109.374 902.901 105.766C909.297 102.158 916.677 100.354 925.205 100.354C933.733 100.354 941.113 102.158 947.673 105.438C954.233 108.718 959.317 113.474 962.925 119.542C966.533 125.61 968.501 132.662 968.665 140.862C968.665 143.814 968.337 146.438 968.009 148.734H906.837V149.39C907.329 155.622 909.297 160.378 912.741 163.822C916.021 167.43 920.777 169.07 926.681 169.07C931.273 169.07 935.209 168.086 938.325 166.118C941.441 164.15 943.573 161.034 944.557 157.098H967.353C966.369 162.674 964.237 167.758 960.957 172.186C957.513 176.778 953.085 180.222 947.509 182.846C941.933 185.47 935.537 186.618 928.321 186.618C918.809 186.618 910.773 184.978 903.885 181.37C896.997 177.926 891.749 173.006 888.141 166.446C884.533 159.886 882.729 152.342 882.729 143.65C882.729 134.958 884.369 127.414 887.977 120.854ZM945.541 133.646C944.721 128.562 942.589 124.626 939.145 121.838C935.701 119.05 931.437 117.574 926.189 117.574C921.105 117.574 916.841 119.05 913.397 122.002C909.953 124.954 907.985 128.726 907.329 133.646H945.541ZM1053.95 109.538C1060.19 115.77 1063.47 125.774 1063.47 139.878V185.634H1040.34V141.19C1040.34 126.758 1034.6 119.378 1023.29 119.378C1017.22 119.378 1012.63 121.51 1009.35 125.446C1006.07 129.546 1004.43 135.286 1004.43 142.502V185.634H981.302V101.338H1001.47L1003.61 111.834C1006.56 108.226 1010 105.438 1014.27 103.47C1018.37 101.502 1023.45 100.354 1029.68 100.354C1039.52 100.354 1047.56 103.47 1053.95 109.538ZM1162.33 70.8338V185.634H1142.16L1139.86 173.99C1133.3 182.518 1124.61 186.618 1113.62 186.618C1106.08 186.618 1099.52 184.978 1093.62 181.37C1087.71 177.762 1082.96 172.678 1079.68 166.118C1076.4 159.558 1074.76 152.014 1074.76 143.322C1074.76 134.794 1076.4 127.414 1079.68 120.854C1082.96 114.294 1087.71 109.374 1093.62 105.766C1099.52 102.158 1106.24 100.354 1113.79 100.354C1124.61 100.354 1133.14 104.29 1139.21 111.834V70.8338H1162.33ZM1133.96 161.198C1137.57 156.77 1139.54 150.866 1139.54 143.65C1139.54 136.434 1137.57 130.53 1133.96 125.938C1130.19 121.51 1125.27 119.214 1119.04 119.214C1112.8 119.214 1107.72 121.51 1103.95 125.938C1100.18 130.53 1098.37 136.27 1098.37 143.486C1098.37 150.702 1100.18 156.606 1103.95 161.034C1107.72 165.626 1112.8 167.758 1119.04 167.758C1125.27 167.758 1130.19 165.626 1133.96 161.198ZM1197.31 157.59C1197.64 161.362 1199.45 164.314 1202.73 166.61C1206.01 168.906 1210.11 170.054 1215.35 170.054C1220.27 170.054 1224.05 169.398 1227 167.758C1229.79 166.118 1231.26 163.822 1231.26 160.87C1231.26 158.738 1230.61 157.098 1229.29 155.95C1227.98 154.966 1226.01 154.146 1223.72 153.654C1221.26 153.162 1217.32 152.506 1211.91 151.85C1204.37 150.866 1198.3 149.718 1193.38 148.078C1188.46 146.602 1184.52 144.142 1181.57 140.862C1178.62 137.582 1177.14 133.318 1177.14 127.742C1177.14 122.33 1178.62 117.574 1181.57 113.31C1184.52 109.046 1188.79 105.766 1194.36 103.47C1199.77 101.174 1206.01 100.026 1213.22 100.026C1224.7 100.19 1233.89 102.65 1240.94 107.406C1247.99 112.326 1251.76 118.886 1252.42 127.414H1230.44C1230.11 124.298 1228.31 121.674 1225.36 119.706C1222.41 117.738 1218.47 116.59 1213.88 116.59C1209.45 116.59 1205.84 117.41 1203.22 119.05C1200.59 120.69 1199.28 122.986 1199.28 125.61C1199.28 127.578 1199.94 129.054 1201.41 130.038C1202.73 131.022 1204.69 131.842 1206.99 132.17C1209.29 132.662 1213.06 133.154 1218.47 133.646C1229.79 134.958 1238.48 137.418 1244.55 141.026C1250.61 144.634 1253.73 150.702 1253.73 159.23C1253.73 164.806 1252.09 169.562 1248.81 173.662C1245.53 177.926 1241.1 181.042 1235.36 183.338C1229.62 185.634 1223.06 186.618 1215.52 186.618C1203.71 186.618 1194.2 184.158 1186.98 178.91C1179.6 173.662 1175.67 166.61 1175.34 157.59H1197.31ZM1288.18 70.0138C1290.64 72.4738 1291.95 75.5898 1291.95 79.1978C1291.95 82.9698 1290.64 86.0858 1288.18 88.5458C1285.55 91.1698 1282.44 92.3178 1278.66 92.3178C1274.73 92.3178 1271.61 91.1698 1268.99 88.5458C1266.36 86.0858 1265.22 82.9698 1265.22 79.1978C1265.22 75.5898 1266.36 72.4738 1268.99 70.0138C1271.61 67.5538 1274.73 66.2418 1278.66 66.2418C1282.44 66.2418 1285.55 67.5538 1288.18 70.0138ZM1267.02 101.338H1290.14V185.634H1267.02V101.338ZM1306.26 70.8338H1329.38V185.634H1306.26V70.8338ZM1347.46 120.854C1351.07 114.294 1355.99 109.374 1362.39 105.766C1368.78 102.158 1376.16 100.354 1384.69 100.354C1393.22 100.354 1400.6 102.158 1407.16 105.438C1413.72 108.718 1418.8 113.474 1422.41 119.542C1426.02 125.61 1427.99 132.662 1428.15 140.862C1428.15 143.814 1427.82 146.438 1427.5 148.734H1366.32V149.39C1366.82 155.622 1368.78 160.378 1372.23 163.822C1375.51 167.43 1380.26 169.07 1386.17 169.07C1390.76 169.07 1394.7 168.086 1397.81 166.118C1400.93 164.15 1403.06 161.034 1404.04 157.098H1426.84C1425.86 162.674 1423.72 167.758 1420.44 172.186C1417 176.778 1412.57 180.222 1407 182.846C1401.42 185.47 1395.02 186.618 1387.81 186.618C1378.3 186.618 1370.26 184.978 1363.37 181.37C1356.48 177.926 1351.24 173.006 1347.63 166.446C1344.02 159.886 1342.22 152.342 1342.22 143.65C1342.22 134.958 1343.86 127.414 1347.46 120.854ZM1405.03 133.646C1404.21 128.562 1402.08 124.626 1398.63 121.838C1395.19 119.05 1390.92 117.574 1385.68 117.574C1380.59 117.574 1376.33 119.05 1372.88 122.002C1369.44 124.954 1367.47 128.726 1366.82 133.646H1405.03Z" fill="#474C56"/>
</svg>
