<svg width="62" height="60" viewBox="0 0 62 60" fill="none" xmlns="http://www.w3.org/2000/svg">
<path d="M22.583 26.3377L26.9399 21.9044C27.8422 20.9863 29.3052 20.9863 30.2075 21.9044L59.3437 51.5522C60.2466 52.4702 60.2466 53.9586 59.3437 54.8773L54.9873 59.3101C54.0845 60.2288 52.6217 60.2288 51.7196 59.3101L22.583 29.6627C21.6807 28.7446 21.6807 27.2559 22.583 26.3377Z" fill="#E4572E"/>
<path d="M31.9541 35.8763L36.3112 31.443C37.2134 30.5249 38.6761 30.5249 39.5783 31.443L59.3422 51.5537C60.2444 52.4717 60.2444 53.9601 59.3422 54.8781L54.9851 59.3116C54.083 60.2296 52.6202 60.2296 51.718 59.3116L31.9541 39.201C31.0518 38.283 31.0518 36.7946 31.9541 35.8763Z" fill="#E4572E"/>
<path fill-rule="evenodd" clip-rule="evenodd" d="M8.08705 8.22803C6.59823 8.22803 5.39132 9.45611 5.39132 10.971C5.39132 12.4884 4.18694 13.7139 2.69566 13.7139C1.20691 13.7139 0 14.942 0 16.4569C0 17.9718 1.20691 19.1999 2.69566 19.1999C4.18694 19.1999 5.39132 20.4255 5.39132 21.9429C5.39132 23.4577 6.59823 24.6858 8.08705 24.6858C9.5758 24.6858 10.7827 23.4577 10.7827 21.9429C10.7827 20.4255 11.9871 19.1999 13.4784 19.1999C14.9671 19.1999 16.174 17.9718 16.174 16.4569C16.174 14.942 14.9671 13.7139 13.4784 13.7139C11.9871 13.7139 10.7827 12.4884 10.7827 10.971C10.7827 9.45611 9.5758 8.22803 8.08705 8.22803Z" fill="#E4572E"/>
<path fill-rule="evenodd" clip-rule="evenodd" d="M48.5216 0C47.0329 0 45.8257 1.22808 45.8257 2.74295C45.8257 7.29256 42.2097 10.9719 37.7388 10.9719C36.2501 10.9719 35.043 12.1999 35.043 13.7148C35.043 15.2297 36.2501 16.4578 37.7388 16.4578C42.2097 16.4578 45.8257 20.137 45.8257 24.6866C45.8257 26.2016 47.0329 27.4296 48.5216 27.4296C50.0104 27.4296 51.2168 26.2016 51.2168 24.6866C51.2168 20.137 54.8328 16.4578 59.3037 16.4578C60.7925 16.4578 61.9996 15.2297 61.9996 13.7148C61.9996 12.1999 60.7925 10.9719 59.3037 10.9719C54.8328 10.9719 51.2168 7.29256 51.2168 2.74295C51.2168 1.22808 50.0104 0 48.5216 0Z" fill="#E4572E"/>
<path fill-rule="evenodd" clip-rule="evenodd" d="M16.1733 41.1445C16.1733 38.1147 13.7596 35.6587 10.782 35.6587C7.80445 35.6587 5.39062 38.1147 5.39062 41.1445C5.39062 44.1742 7.80445 46.6308 10.782 46.6308C13.7596 46.6308 16.1733 44.1742 16.1733 41.1445Z" fill="#E4572E"/>
</svg>
