<svg width="169" height="49" viewBox="0 0 169 49" fill="none" xmlns="http://www.w3.org/2000/svg">
<path d="M162.659 48.6338H6.99603C3.57301 48.6338 0.769531 45.8966 0.769531 42.5546V6.07943C0.769531 2.7374 3.57301 0.000242956 6.99603 0.000242956H162.659C166.082 0.000242956 168.885 2.7374 168.885 6.07943V42.5546C168.885 45.8966 166.082 48.6338 162.659 48.6338Z" fill="black"/>
<path d="M162.659 0.974432C165.541 0.974432 167.887 3.26477 167.887 6.07943V42.5546C167.887 45.3693 165.541 47.6596 162.659 47.6596H6.99603C4.11316 47.6596 1.76733 45.3693 1.76733 42.5546V6.07943C1.76733 3.26477 4.11316 0.974432 6.99603 0.974432H162.659ZM162.659 0.000242956H6.99603C3.57301 0.000242956 0.769531 2.7374 0.769531 6.07943V42.5546C0.769531 45.8966 3.57301 48.6338 6.99603 48.6338H162.659C166.082 48.6338 168.885 45.8966 168.885 42.5546V6.07943C168.885 2.7374 166.082 0.000242956 162.659 0.000242956Z" fill="#A6A6A6"/>
<path d="M59.8184 12.4552C59.8184 13.4704 59.507 14.2835 58.8937 14.8899C58.1886 15.6088 57.2702 15.9705 56.1447 15.9705C55.0691 15.9705 54.1507 15.6027 53.3973 14.8777C52.6423 14.1422 52.2656 13.2394 52.2656 12.1588C52.2656 11.0782 52.6423 10.1755 53.3973 9.44598C54.1507 8.71496 55.0691 8.34717 56.1447 8.34717C56.6802 8.34717 57.1908 8.45507 57.678 8.65569C58.1637 8.85782 58.5591 9.13138 58.8455 9.46878L58.1948 10.1101C57.6951 9.53413 57.0149 9.24993 56.1447 9.24993C55.3602 9.24993 54.68 9.51741 54.1024 10.0569C53.5312 10.598 53.2447 11.2986 53.2447 12.1588C53.2447 13.019 53.5312 13.7257 54.1024 14.2668C54.68 14.8002 55.3602 15.0738 56.1447 15.0738C56.9775 15.0738 57.678 14.8002 58.2306 14.2607C58.5949 13.9035 58.8019 13.4111 58.8564 12.7819H56.1447V11.9035H59.7623C59.8059 12.0935 59.8184 12.2774 59.8184 12.4552Z" fill="white" stroke="white" stroke-width="0.16" stroke-miterlimit="10"/>
<path d="M65.5554 9.40883H62.1573V11.7189H65.2207V12.5974H62.1573V14.9075H65.5554V15.8026H61.1953V8.51367H65.5554V9.40883Z" fill="white" stroke="white" stroke-width="0.16" stroke-miterlimit="10"/>
<path d="M69.6088 15.8026H68.6468V9.40883H66.5625V8.51367H71.6947V9.40883H69.6088V15.8026Z" fill="white" stroke="white" stroke-width="0.16" stroke-miterlimit="10"/>
<path d="M75.4062 15.8026V8.51367H76.3667V15.8026H75.4062Z" fill="white" stroke="white" stroke-width="0.16" stroke-miterlimit="10"/>
<path d="M80.6244 15.8031H79.6702V9.40932H77.5781V8.51416H82.7165V9.40932H80.6244V15.8031Z" fill="white" stroke="white" stroke-width="0.16" stroke-miterlimit="10"/>
<path d="M92.4353 14.8656C91.699 15.6027 90.7869 15.9705 89.6988 15.9705C88.6045 15.9705 87.6923 15.6027 86.956 14.8656C86.2213 14.13 85.8555 13.2272 85.8555 12.1588C85.8555 11.0904 86.2213 10.1876 86.956 9.45206C87.6923 8.71496 88.6045 8.34717 89.6988 8.34717C90.7806 8.34717 91.6928 8.71496 92.4291 9.45814C93.1701 10.1998 93.5359 11.0965 93.5359 12.1588C93.5359 13.2272 93.1701 14.13 92.4353 14.8656ZM87.6674 14.2546C88.2215 14.8002 88.8956 15.0738 89.6988 15.0738C90.4958 15.0738 91.176 14.8002 91.7239 14.2546C92.2766 13.709 92.5567 13.0084 92.5567 12.1588C92.5567 11.3093 92.2766 10.6086 91.7239 10.063C91.176 9.51741 90.4958 9.24385 89.6988 9.24385C88.8956 9.24385 88.2215 9.51741 87.6674 10.063C87.1148 10.6086 86.8346 11.3093 86.8346 12.1588C86.8346 13.0084 87.1148 13.709 87.6674 14.2546Z" fill="white" stroke="white" stroke-width="0.16" stroke-miterlimit="10"/>
<path d="M94.8867 15.8026V8.51367H96.0542L99.6842 14.1825H99.7263L99.6842 12.7813V8.51367H100.645V15.8026H99.6422L95.8409 9.85413H95.7989L95.8409 11.2615V15.8026H94.8867Z" fill="white" stroke="white" stroke-width="0.16" stroke-miterlimit="10"/>
<path d="M85.6164 26.4474C82.6915 26.4474 80.3021 28.6207 80.3021 31.6193C80.3021 34.5935 82.6915 36.7896 85.6164 36.7896C88.5475 36.7896 90.9369 34.5935 90.9369 31.6193C90.9369 28.6207 88.5475 26.4474 85.6164 26.4474ZM85.6164 34.7531C84.0115 34.7531 82.6308 33.4598 82.6308 31.6193C82.6308 29.7545 84.0115 28.4839 85.6164 28.4839C87.2213 28.4839 88.6082 29.7545 88.6082 31.6193C88.6082 33.4598 87.2213 34.7531 85.6164 34.7531ZM74.0211 26.4474C71.09 26.4474 68.7068 28.6207 68.7068 31.6193C68.7068 34.5935 71.09 36.7896 74.0211 36.7896C76.9507 36.7896 79.3354 34.5935 79.3354 31.6193C79.3354 28.6207 76.9507 26.4474 74.0211 26.4474ZM74.0211 34.7531C72.4147 34.7531 71.0293 33.4598 71.0293 31.6193C71.0293 29.7545 72.4147 28.4839 74.0211 28.4839C75.626 28.4839 77.0067 29.7545 77.0067 31.6193C77.0067 33.4598 75.626 34.7531 74.0211 34.7531ZM60.2232 28.0326V30.2302H65.5982C65.441 31.4582 65.0207 32.3609 64.3763 32.9901C63.5917 33.75 62.3698 34.5935 60.2232 34.5935C56.9153 34.5935 54.3251 31.9871 54.3251 28.7575C54.3251 25.5279 56.9153 22.9215 60.2232 22.9215C62.0117 22.9215 63.3131 23.6039 64.2735 24.4884L65.8597 22.9397C64.5164 21.6874 62.7293 20.7254 60.2232 20.7254C55.6872 20.7254 51.875 24.3288 51.875 28.7575C51.875 33.1862 55.6872 36.7896 60.2232 36.7896C62.6749 36.7896 64.5163 36.0054 65.964 34.5343C67.4475 33.0859 67.9098 31.0494 67.9098 29.4049C67.9098 28.8943 67.8662 28.4247 67.7884 28.0326H60.2232ZM116.645 29.7363C116.207 28.5797 114.858 26.4474 112.109 26.4474C109.384 26.4474 107.116 28.5432 107.116 31.6193C107.116 34.516 109.361 36.7896 112.37 36.7896C114.803 36.7896 116.207 35.3413 116.785 34.4978L114.979 33.323C114.377 34.1832 113.556 34.7531 112.37 34.7531C111.192 34.7531 110.346 34.2257 109.805 33.1862L116.889 30.3244L116.645 29.7363ZM109.422 31.4582C109.361 29.4642 111.008 28.4429 112.188 28.4429C113.113 28.4429 113.897 28.8943 114.159 29.5402L109.422 31.4582ZM103.664 36.475H105.993V21.2771H103.664V36.475ZM99.8502 27.5994H99.7723C99.2493 26.9945 98.2515 26.4474 96.9875 26.4474C94.3351 26.4474 91.9098 28.721 91.9098 31.636C91.9098 34.5343 94.3351 36.7896 96.9875 36.7896C98.2515 36.7896 99.2493 36.2379 99.7723 35.6148H99.8502V36.3565C99.8502 38.3338 98.7683 39.3961 97.0233 39.3961C95.6006 39.3961 94.718 38.393 94.3537 37.5495L92.3286 38.3748C92.9123 39.7456 94.458 41.4326 97.0233 41.4326C99.7537 41.4326 102.057 39.8642 102.057 36.048V26.762H99.8502V27.5994ZM97.1868 34.7531C95.5819 34.7531 94.2385 33.4415 94.2385 31.636C94.2385 29.8138 95.5819 28.4839 97.1868 28.4839C98.7683 28.4839 100.015 29.8138 100.015 31.636C100.015 33.4415 98.7683 34.7531 97.1868 34.7531ZM127.547 21.2771H121.978V36.475H124.3V30.7165H127.547C130.127 30.7165 132.656 28.8943 132.656 25.996C132.656 23.0993 130.12 21.2771 127.547 21.2771ZM127.608 28.6025H124.3V23.3911H127.608C129.342 23.3911 130.332 24.7969 130.332 25.996C130.332 27.1724 129.342 28.6025 127.608 28.6025ZM141.965 26.4185C140.287 26.4185 138.542 27.142 137.824 28.7453L139.885 29.5888C140.329 28.7453 141.144 28.4718 142.007 28.4718C143.212 28.4718 144.433 29.1785 144.452 30.4262V30.5858C144.032 30.3487 143.132 29.9977 142.025 29.9977C139.806 29.9977 137.544 31.1907 137.544 33.4172C137.544 35.4537 139.362 36.7653 141.406 36.7653C142.969 36.7653 143.831 36.0768 144.373 35.2759H144.452V36.4507H146.695V30.6208C146.695 27.9262 144.634 26.4185 141.965 26.4185ZM141.684 34.747C140.925 34.747 139.866 34.3792 139.866 33.4598C139.866 32.2834 141.186 31.8321 142.329 31.8321C143.352 31.8321 143.831 32.0524 144.452 32.3427C144.27 33.75 143.029 34.747 141.684 34.747ZM154.868 26.7514L152.198 33.3397H152.119L149.359 26.7514H146.854L151.001 35.9583L148.635 41.0815H151.062L157.452 26.7514H154.868ZM133.932 36.475H136.261V21.2771H133.932V36.475Z" fill="white"/>
<path d="M13.765 9.16577C13.3992 9.53964 13.1875 10.1217 13.1875 10.8755V37.7638C13.1875 38.5176 13.3992 39.0997 13.765 39.4736L13.8553 39.5557L29.2877 24.4945V24.1388L13.8553 9.07762L13.765 9.16577Z" fill="url(#paint0_linear_2121_8956)"/>
<path d="M34.4236 29.5176L29.2852 24.4946V24.139L34.4298 19.1161L34.545 19.1814L40.6376 22.566C42.3764 23.5265 42.3764 25.1071 40.6376 26.0737L34.545 29.4522L34.4236 29.5176Z" fill="url(#paint1_linear_2121_8956)"/>
<path d="M34.5442 29.4521L29.2844 24.3167L13.7617 39.4737C14.3392 40.0664 15.281 40.1379 16.3519 39.5451L34.5442 29.4521Z" fill="url(#paint2_linear_2121_8956)"/>
<path d="M34.5442 19.1815L16.3519 9.08852C15.281 8.50188 14.3392 8.5733 13.7617 9.16603L29.2844 24.3169L34.5442 19.1815Z" fill="url(#paint3_linear_2121_8956)"/>
<defs>
<linearGradient id="paint0_linear_2121_8956" x1="27.9175" y1="38.0438" x2="7.51861" y2="17.1507" gradientUnits="userSpaceOnUse">
<stop stop-color="#00A0FF"/>
<stop offset="0.0066" stop-color="#00A1FF"/>
<stop offset="0.2601" stop-color="#00BEFF"/>
<stop offset="0.5122" stop-color="#00D2FF"/>
<stop offset="0.7604" stop-color="#00DFFF"/>
<stop offset="1" stop-color="#00E3FF"/>
</linearGradient>
<linearGradient id="paint1_linear_2121_8956" x1="42.9018" y1="24.3151" x2="12.7694" y2="24.3151" gradientUnits="userSpaceOnUse">
<stop stop-color="#FFE000"/>
<stop offset="0.4087" stop-color="#FFBD00"/>
<stop offset="0.7754" stop-color="#FFA500"/>
<stop offset="1" stop-color="#FF9C00"/>
</linearGradient>
<linearGradient id="paint2_linear_2121_8956" x1="31.6841" y1="21.5251" x2="4.02158" y2="-6.80773" gradientUnits="userSpaceOnUse">
<stop stop-color="#FF3A44"/>
<stop offset="1" stop-color="#C31162"/>
</linearGradient>
<linearGradient id="paint3_linear_2121_8956" x1="9.85434" y1="48.4194" x2="22.2069" y2="35.7677" gradientUnits="userSpaceOnUse">
<stop stop-color="#32A071"/>
<stop offset="0.0685" stop-color="#2DA771"/>
<stop offset="0.4762" stop-color="#15CF74"/>
<stop offset="0.8009" stop-color="#06E775"/>
<stop offset="1" stop-color="#00F076"/>
</linearGradient>
</defs>
</svg>
