<svg width="46" height="46" viewBox="0 0 46 46" fill="none" xmlns="http://www.w3.org/2000/svg">
<path d="M31.1976 7.95785C30.5179 10.5946 29.6324 12.3163 29.0386 12.9121C27.6159 14.3398 24.5517 14.6565 22.8282 15.3838C22.2673 15.6213 20.7167 12.0036 21.2907 11.6869C21.7144 11.4521 26.6341 10.8187 27.0524 10.6886C27.2676 10.6215 28.9 8.45971 29.8238 7.24397C31.3124 5.29555 31.5697 6.51801 31.1976 7.95785Z" fill="#F7A9A0"/>
<path d="M20.1345 15.8908C20.3984 15.884 20.4076 16.0249 20.0395 16.3349C19.6713 16.6449 17.957 17.5426 18.3173 18.1263C18.6776 18.71 21.078 17.4004 21.6521 16.8395C22.2262 16.2786 22.9639 15.1675 22.9639 15.1675C22.4452 15.3272 21.1506 15.5915 20.1345 15.8908Z" fill="#F7A9A0"/>
<path d="M21.7043 11.5728C19.1494 11.9753 18.1332 12.4839 17.0141 13.8124C16.8864 13.9559 16.8093 14.1386 16.7951 14.3317C16.283 14.9167 16.3992 15.3394 16.3992 15.3394C16.0877 16.0332 16.2672 16.4478 16.2672 16.4478C16.2672 16.4478 15.6733 17.1416 16.027 17.5763C16.4229 18.0648 17.1778 16.994 17.9471 16.6639C19.7116 15.9057 22.434 15.3314 22.9619 15.165L21.7043 11.5728Z" fill="#F7A9A0"/>
<path d="M19.2523 14.5519C18.7331 14.7668 18.2291 15.0178 17.7439 15.3033C17.2324 15.6487 16.7472 16.0327 16.2923 16.452C16.2892 16.4538 16.2856 16.4545 16.282 16.4539C16.2785 16.4534 16.2753 16.4517 16.2728 16.4491C16.2704 16.4464 16.2689 16.443 16.2686 16.4394C16.2683 16.4358 16.2692 16.4322 16.2711 16.4292C17.0717 15.531 18.0991 14.8733 19.2417 14.5277C19.2681 14.5197 19.2787 14.5398 19.2523 14.5519Z" fill="#263238"/>
<path d="M18.9589 13.4018C18.4693 13.6568 17.6142 14.1117 16.4172 15.3543C16.4172 15.3543 16.4053 15.3543 16.4093 15.3543C17.0589 14.4704 17.9376 13.7879 18.947 13.383C18.9787 13.3642 18.9906 13.3844 18.9589 13.4018Z" fill="#263238"/>
<path d="M18.7885 12.7871C17.9742 13.2541 17.5189 13.6526 16.8024 14.3343C16.8024 14.3343 16.7918 14.3343 16.7958 14.3276C17.5282 13.4661 17.8898 13.238 18.7753 12.7562C18.807 12.7401 18.8202 12.7683 18.7885 12.7871Z" fill="#263238"/>
<path d="M28.2991 9.15333L30.6521 11.3956C30.6521 11.3956 31.6023 7.91746 31.5957 6.81712C31.5957 5.57588 30.9675 5.84962 30.144 6.68293C29.3205 7.51624 28.2991 9.15333 28.2991 9.15333Z" fill="#FFA900"/>
<path opacity="0.1" d="M28.2991 9.15333L30.6521 11.3956C30.6521 11.3956 31.6023 7.91746 31.5957 6.81712C31.5957 5.57588 30.9675 5.84962 30.144 6.68293C29.3205 7.51624 28.2991 9.15333 28.2991 9.15333Z" fill="black"/>
<path d="M28.781 8.79882C29.1189 9.04304 30.0308 9.92063 30.1839 10.0642C30.2644 10.1407 30.5705 10.456 30.651 10.5312C30.6616 10.5406 30.651 10.5553 30.6352 10.5459C30.4808 10.4037 30.3119 10.2776 30.1575 10.134C30.0031 9.99041 29.0423 9.13295 28.7705 8.81089C28.7639 8.80418 28.7731 8.79345 28.781 8.79882Z" fill="#263238"/>
<path d="M15.8294 36.0606C16.1487 36.1666 25.3442 35.7923 25.6887 35.5655C25.7309 35.54 25.8945 33.7419 25.8945 33.7419L24.8309 26.8325L18.7933 26.9144L19.9586 32.8187C19.9586 32.8187 18.6284 33.4413 17.5317 33.9847C16.8561 34.3175 16.2688 34.6221 16.1342 34.7335C15.7805 35.0207 15.5087 35.956 15.8294 36.0606Z" fill="#F7A9A0"/>
<path d="M15.8287 36.0608C16.148 36.1668 25.3462 35.7924 25.6893 35.567C25.7302 35.5401 25.8965 33.742 25.8965 33.742L25.5679 31.6138L19.7758 31.8821L19.9632 32.8134C19.9632 32.8134 18.6343 33.436 17.5363 33.9782C16.8606 34.311 16.2734 34.6156 16.1388 34.7269C15.7825 35.0221 15.5106 35.9574 15.8287 36.0608Z" fill="#EBEBEB"/>
<path d="M15.8335 36.07C16.1595 36.1734 25.4157 35.9546 25.7627 35.7185C25.8947 35.6312 25.9435 34.2572 25.9541 32.5959V32.5449L19.9799 32.6187V32.7207C19.9799 32.7207 16.4735 34.4168 16.1185 34.7174C15.7636 35.018 15.5075 35.9707 15.8335 36.07Z" fill="#C7C7C7"/>
<path d="M16.3614 36.097C18.3871 36.1185 25.4671 35.9252 25.7627 35.7199C25.8947 35.6327 25.9435 34.2586 25.9541 32.5974V32.5464L22.2128 32.592L16.3614 36.097Z" fill="#A6A6A6"/>
<path d="M15.9298 35.7053C17.4897 35.6288 23.7872 35.4718 25.3339 35.5174C25.347 35.5174 25.347 35.5268 25.3339 35.5282C23.7898 35.6369 17.4923 35.7415 15.9312 35.7308C15.8982 35.7308 15.8968 35.7066 15.9298 35.7053Z" fill="#263238"/>
<path d="M19.4838 32.753C20.0948 32.6188 20.8484 32.6994 21.3314 33.1341C21.3498 33.1502 21.3314 33.1771 21.3063 33.1704C20.7151 32.992 20.1067 32.8786 19.4917 32.8322C19.4823 32.8317 19.4733 32.8278 19.4665 32.8212C19.4596 32.8145 19.4553 32.8056 19.4544 32.7961C19.4534 32.7865 19.4559 32.7769 19.4613 32.769C19.4667 32.7611 19.4747 32.7554 19.4838 32.753Z" fill="#263238"/>
<path d="M19.0473 33.0345C19.6583 32.9003 20.4118 32.9822 20.8948 33.4156C20.9133 33.4317 20.8948 33.4586 20.8698 33.4532C20.2772 33.2755 19.6675 33.163 19.0513 33.1177C19.0404 33.1183 19.0298 33.1144 19.0218 33.107C19.0137 33.0995 19.0089 33.0892 19.0084 33.0781C19.0078 33.0671 19.0117 33.0563 19.019 33.0481C19.0263 33.04 19.0364 33.0351 19.0473 33.0345Z" fill="#263238"/>
<path d="M18.6098 33.3168C19.2208 33.1826 19.9743 33.2644 20.4573 33.6979C20.4758 33.7153 20.4573 33.7408 20.4323 33.7354C19.8411 33.5567 19.2328 33.4429 18.6177 33.3959C18.6083 33.3954 18.5993 33.3915 18.5925 33.3849C18.5856 33.3783 18.5813 33.3694 18.5804 33.3598C18.5794 33.3502 18.5818 33.3406 18.5872 33.3327C18.5926 33.3248 18.6006 33.3192 18.6098 33.3168Z" fill="#263238"/>
<path d="M19.4521 31.9252L26.1917 31.6139C26.1917 31.6139 23.8624 21.9966 24.1105 21.6839C24.3745 21.3485 34.1322 23.8309 36.0827 21.3699C38.0806 18.8485 37.079 15.2188 37.079 15.2188H30.4239C30.4239 15.2188 30.5558 16.1272 30.4661 16.5606C30.4661 16.5606 21.0964 15.1033 19.0588 16.201C18.6629 16.417 17.2113 17.6301 17.1875 18.7801C17.0595 23.8591 19.4521 31.9252 19.4521 31.9252Z" fill="#455A64"/>
<path d="M19.3849 30.6838C20.1847 30.5818 20.9857 30.5201 21.7894 30.4584C22.5931 30.3967 23.3967 30.3483 24.2004 30.3175C24.6544 30.2987 25.1084 30.3027 25.5623 30.2866C25.5647 30.2874 25.5667 30.289 25.5681 30.291C25.5695 30.2931 25.5703 30.2955 25.5703 30.298C25.5703 30.3005 25.5695 30.303 25.5681 30.305C25.5667 30.3071 25.5647 30.3086 25.5623 30.3094C25.1585 30.339 24.756 30.3913 24.3522 30.4235L23.1566 30.5121C22.3529 30.5657 21.5492 30.6114 20.7455 30.661C20.2929 30.6892 19.8402 30.7039 19.3862 30.7147C19.3829 30.7138 19.38 30.7119 19.3778 30.7092C19.3756 30.7066 19.3744 30.7032 19.3742 30.6998C19.3741 30.6963 19.3751 30.6928 19.377 30.69C19.3789 30.6871 19.3817 30.6849 19.3849 30.6838Z" fill="#263238"/>
<path d="M23.072 21.0008C24.3666 21.0437 25.6546 21.1578 26.9426 21.2866C28.2306 21.4154 29.5266 21.555 30.8251 21.6408C31.4691 21.6824 32.1158 21.7093 32.7624 21.7133C33.2995 21.7367 33.8371 21.6798 34.3579 21.5442C34.875 21.3905 35.3169 21.046 35.5971 20.5781C35.8787 20.1039 36.0632 19.5767 36.1395 19.0282C36.3097 17.9185 36.1395 16.7846 35.9402 15.6896C35.9151 15.5554 35.8901 15.4212 35.8663 15.2763C35.8663 15.2642 35.8835 15.2589 35.8874 15.2763C36.1514 16.3807 36.3981 17.5172 36.319 18.6578C36.2866 19.2175 36.1523 19.7663 35.923 20.2761C35.7162 20.7716 35.3605 21.1877 34.9069 21.4651C34.4437 21.7334 33.896 21.8126 33.3642 21.8394C32.7439 21.8716 32.1158 21.8394 31.4955 21.8113C30.1679 21.7455 28.8456 21.606 27.5259 21.4664C26.2063 21.3268 24.8932 21.19 23.5669 21.1229C23.4204 21.1148 23.2739 21.1095 23.1275 21.1041C23.328 22.3118 25.0265 29.5016 25.1215 30.0705C25.1307 30.1269 25.0779 30.1444 25.0634 30.0866C24.7731 28.9662 23.1248 21.767 23.0153 21.0638C23.0135 21.0557 23.0137 21.0472 23.0159 21.0391C23.018 21.031 23.022 21.0235 23.0276 21.0174C23.0332 21.0112 23.0401 21.0064 23.0478 21.0036C23.0556 21.0007 23.0639 20.9997 23.072 21.0008Z" fill="#263238"/>
<path d="M17.8763 36.3413H32.2793V37.961H17.8763V36.3413Z" fill="#FFA900"/>
<path d="M44.9365 22.1318H44.1196L38.8409 28.2723H39.6578L44.9365 22.1318Z" fill="#A6A6A6"/>
<path d="M34.6481 21.645H46V22.1308H34.6481V21.645Z" fill="#A6A6A6"/>
<path d="M41.8564 22.1318H41.0396L35.7609 28.2723H36.5777L41.8564 22.1318Z" fill="#A6A6A6"/>
<path d="M36.604 33.4521C32.5024 33.4521 30.1257 36.3493 30.1257 39.759C30.1257 43.1687 32.3269 46.0001 36.3269 46.0001C40.7531 46.0001 42.8672 42.4199 42.8672 39.7281C42.8672 37.0363 40.7557 33.4521 36.604 33.4521Z" fill="#37474F"/>
<path d="M37.2351 33.4521C33.3354 33.4521 31.0775 36.3493 31.0775 39.759C31.0775 43.1687 33.1691 46.0001 36.9738 46.0001C41.1822 46.0001 43.1895 42.4146 43.1895 39.7228C43.1895 37.0309 41.1822 33.4521 37.2351 33.4521Z" fill="#263238"/>
<path d="M37.1948 35.9009C34.8193 35.9009 33.4429 37.6668 33.4429 39.744C33.4429 41.8213 34.7177 43.5456 37.0351 43.5456C39.6005 43.5456 40.8252 41.3637 40.8252 39.7226C40.8252 38.0814 39.6005 35.9009 37.1948 35.9009Z" fill="#C7C7C7"/>
<path d="M24.9936 25.8071V25.2583L38.7961 25.7105V26.945C38.7961 26.945 42.7934 31.4336 43.1973 36.0994L29.3565 36.3973L27.1328 36.3409H24.4024V33.5203C24.4024 33.5203 26.4664 31.9905 26.1048 28.8653C25.9847 27.828 24.9936 25.8071 24.9936 25.8071Z" fill="#FFA900"/>
<path d="M30.6459 35.7438C30.7898 36.0122 32.8894 36.3973 36.8695 36.506C40.4525 36.604 43.1288 36.5234 43.336 36.2886C43.5431 36.0538 43.0153 31.9007 40.5897 29.6517C38.1641 27.4027 34.7303 27.0793 32.4658 28.4212C30.4744 29.598 28.9884 32.589 30.6459 35.7438Z" fill="#FFA900"/>
<path opacity="0.1" d="M29.9701 31.8124C30.1828 30.8289 30.6737 29.9301 31.3821 29.2266C32.0923 28.503 32.9791 27.9847 33.9515 27.725C35.0362 27.4497 36.1722 27.4622 37.2507 27.7612C37.7905 27.9052 38.3125 28.1109 38.8066 28.3745C39.3284 28.6596 39.8201 28.9981 40.2741 29.3849C40.3955 29.4869 40.5182 29.5889 40.6383 29.6935C40.6489 29.7016 40.6383 29.7163 40.6225 29.7083C40.1657 29.2998 39.6711 28.9372 39.1458 28.6254C38.6664 28.347 38.1578 28.1242 37.6295 27.9612C36.5821 27.6281 35.4698 27.5645 34.3923 27.776C33.4185 27.975 32.5159 28.4387 31.7807 29.1179C31.0722 29.7664 30.5511 30.5992 30.2736 31.5265C29.9437 32.6564 30.0519 33.9003 30.3805 35.0154C30.424 35.1657 30.4715 35.3133 30.5204 35.4609C30.5204 35.477 30.5019 35.4824 30.4966 35.4677C30.0532 34.3096 29.722 33.0617 29.9701 31.8124Z" fill="black"/>
<path d="M39.5641 36.9341C41.9673 36.9341 43.2394 36.8589 43.8848 36.5986L43.5852 35.8324C42.8303 36.137 40.4668 36.1316 36.6635 36.0874C33.8539 36.0538 31.7807 35.7841 30.4874 35.2822L30.1984 36.0525C31.5972 36.5892 33.7087 36.8737 36.6543 36.9086C37.772 36.9247 38.7354 36.9341 39.5641 36.9341Z" fill="#DBDBDB"/>
<path d="M24.7669 25.6197C24.7669 25.6197 24.6745 22.5494 24.7669 22.4287C24.8592 22.3079 38.832 22.0516 39.2503 22.0892C39.6687 22.1267 39.7109 25.7123 39.6792 25.88C39.6475 26.0477 25.1311 25.6519 24.7669 25.6197Z" fill="#37474F"/>
<path d="M23.4572 22.4902C23.4982 22.4419 25.2692 22.3909 25.3668 22.3882C25.4645 22.3855 25.4988 25.6584 25.446 25.6557C25.3932 25.653 23.5219 25.6798 23.4599 25.61C23.3979 25.5403 23.3688 22.5948 23.4572 22.4902Z" fill="#455A64"/>
<path d="M33.2437 22.0918C33.2938 22.1449 33.3265 22.2123 33.3374 22.285C33.354 22.3616 33.3659 22.4391 33.3731 22.5172C33.3902 22.6728 33.3994 22.8312 33.4074 22.9882C33.4206 23.3049 33.4285 23.6229 33.4338 23.9423C33.439 24.2616 33.447 24.5783 33.4338 24.8936C33.4326 25.0498 33.422 25.2058 33.4021 25.3606C33.3942 25.4355 33.3769 25.509 33.3506 25.5794C33.341 25.6109 33.3239 25.6396 33.3009 25.663C33.2779 25.6864 33.2497 25.7037 33.2186 25.7135C33.2535 25.7125 33.2873 25.7013 33.316 25.6814C33.3448 25.6614 33.3673 25.6334 33.381 25.6008C33.4179 25.5306 33.4467 25.4563 33.4667 25.3794C33.5041 25.2221 33.5284 25.0618 33.5393 24.9004C33.5637 24.5789 33.5716 24.2565 33.5631 23.9342C33.5552 23.6135 33.542 23.2914 33.5063 22.9707C33.4892 22.8103 33.4641 22.6509 33.4311 22.493C33.4127 22.4149 33.3902 22.3379 33.3638 22.2622C33.3427 22.1965 33.3057 22.1146 33.2437 22.0918Z" fill="#455A64"/>
<path d="M45.4748 21.6382H32.2793V13.297L45.4748 13.297V21.6382Z" fill="#37474F"/>
<path d="M45.4748 21.6382H35.9414V13.297L45.4748 13.297V21.6382Z" fill="#263238"/>
<path d="M40.1943 13.2954H41.2197V21.6365H40.1943V13.2954Z" fill="#FFA900"/>
<path d="M35.9396 12.5239H45.7422V13.2955H35.9396V12.5239Z" fill="#37474F"/>
<path d="M31.9837 12.5239H35.9414V13.2955H31.9837V12.5239Z" fill="#263238"/>
<path d="M40.1094 12.5239H41.3076V13.2955H40.1094V12.5239Z" fill="#FFA900"/>
<path d="M44.0776 12.5591L34.4453 12.5591V6.46962L44.0776 6.46962V12.5591Z" fill="#37474F"/>
<path d="M44.0768 12.5591H37.1182V6.46962L44.0768 6.46962V12.5591Z" fill="#263238"/>
<path d="M40.2234 6.4707H40.9717V12.5602H40.2234V6.4707Z" fill="#FFA900"/>
<path d="M37.1181 5.90723H44.2734V6.47082H37.1181V5.90723Z" fill="#37474F"/>
<path d="M34.2294 5.90723H37.1182V6.47082H34.2294V5.90723Z" fill="#263238"/>
<path d="M40.1602 5.90723H41.0352V6.47082H40.1602V5.90723Z" fill="#FFA900"/>
<path d="M6.47831 33.4009C2.37544 33.4009 1.81198e-05 36.298 1.81198e-05 39.7077C1.81198e-05 43.1174 2.20124 45.9448 6.2025 45.9448C10.63 45.9448 12.7441 42.3646 12.7441 39.6742C12.7441 36.9837 10.63 33.4009 6.47831 33.4009Z" fill="#37474F"/>
<path d="M7.10875 33.4009C3.2091 33.4009 0.949811 36.298 0.949811 39.7077C0.949811 43.1174 3.04282 45.9448 6.84613 45.9448C11.0546 45.9448 13.0645 42.3646 13.0645 39.6742C13.0645 36.9837 11.0546 33.4009 7.10875 33.4009Z" fill="#263238"/>
<path d="M7.06913 35.8501C4.69371 35.8501 3.31597 37.616 3.31597 39.6932C3.31597 41.7705 4.59078 43.4948 6.90945 43.4948C9.47358 43.4948 10.6982 41.3129 10.6982 39.6731C10.6982 38.0333 9.47358 35.8501 7.06913 35.8501Z" fill="#C7C7C7"/>
<path d="M13.1151 19.1569H14.7291L15.835 17.5063H13.9439L13.1151 19.1569Z" fill="#FFA900"/>
<path d="M15.835 17.5063L15.187 18.4725L14.7291 19.1569H13.1151L13.5519 18.2873L13.9452 17.5063H15.835Z" fill="#FFA900"/>
<path opacity="0.1" d="M15.835 17.5063L15.187 18.4725L13.5519 18.2873L13.9452 17.5063H15.835Z" fill="black"/>
<path d="M9.19323 31.4739L10.765 31.8416L12.2061 30.4836L10.3638 30.0542L9.19323 31.4739Z" fill="#FFA900"/>
<path d="M12.2061 30.4836L11.3628 31.2793L10.7663 31.8416L9.19191 31.4739L9.80952 30.7265L10.3638 30.0542L12.2061 30.4836Z" fill="#FFA900"/>
<path opacity="0.1" d="M12.2061 30.4836L11.3628 31.2793L9.80952 30.7265L10.3638 30.0542L12.2061 30.4836Z" fill="black"/>
<path d="M0.356118 34.2061L1.88299 35.022C1.88299 35.022 6.30523 34.2061 9.14121 34.8234C11.9772 35.4407 12.7426 36.9811 12.7426 36.9811H14.1758C14.1758 36.9811 12.9458 32.5382 10.8594 30.9252C8.77302 29.3123 5.41972 29.6732 3.56557 30.689C1.71143 31.7049 0.356118 34.2061 0.356118 34.2061Z" fill="#FFA900"/>
<path opacity="0.1" d="M2.0444 34.715C2.34018 34.401 2.6606 34.1119 3.00249 33.8508C3.34128 33.583 3.69949 33.3417 4.07407 33.1289C4.8002 32.7186 5.5965 32.4526 6.42046 32.3452C8.0331 32.1439 9.71965 32.6216 10.9074 33.8817C11.5751 34.5955 12.0502 35.4718 12.5015 36.3561C12.5081 36.3695 12.4897 36.3802 12.4831 36.3668C12.1007 35.5893 11.6178 34.8672 11.0472 34.2198C10.4975 33.6094 9.81321 33.1404 9.05057 32.8511C7.52898 32.2835 5.88335 32.5009 4.42114 33.1866C4.00245 33.3795 3.5984 33.6038 3.21232 33.8575C2.81749 34.1279 2.43649 34.4185 2.0708 34.7284C2.06844 34.7306 2.06548 34.732 2.06232 34.7324C2.05916 34.7328 2.05594 34.7323 2.05309 34.7308C2.05024 34.7294 2.04788 34.7271 2.04633 34.7243C2.04478 34.7214 2.04411 34.7182 2.0444 34.715Z" fill="black"/>
<path d="M18.8238 18.2688C18.8476 18.3252 22.0346 18.921 22.0346 18.921C22.0346 18.921 22.5625 18.5587 22.2365 18.0998L19.0389 17.3979C18.916 17.5005 18.8287 17.6405 18.79 17.7973C18.7513 17.9541 18.7631 18.1194 18.8238 18.2688Z" fill="#263238"/>
<path d="M12.1345 14.0791V17.9236C12.1345 17.9236 14.176 17.7424 14.7198 17.7236C15.2635 17.7049 17.6798 18.0229 17.6798 18.0229L17.8672 17.1614C17.8672 17.1614 16.0038 16.4998 15.212 15.9832C14.4202 15.4666 13.5083 14.479 13.0187 14.2602C12.7416 14.1315 12.439 14.0695 12.1345 14.0791Z" fill="#FFA900"/>
<path d="M17.6714 17.0527C17.55 17.1797 17.4585 17.3329 17.4036 17.5009C17.3488 17.6689 17.332 17.8474 17.3547 18.0229C17.3547 18.0229 18.8763 18.3061 18.8947 18.3061C18.8821 18.124 18.9255 17.9425 19.0189 17.7867C19.1123 17.6309 19.2511 17.5085 19.416 17.4365L17.6714 17.0527Z" fill="#DBDBDB"/>
<path d="M12.1149 17.9237C11.5625 17.9237 11.1146 17.0634 11.1146 16.0021C11.1146 14.9409 11.5625 14.0806 12.1149 14.0806C12.6674 14.0806 13.1152 14.9409 13.1152 16.0021C13.1152 17.0634 12.6674 17.9237 12.1149 17.9237Z" fill="#DBDBDB"/>
<path d="M12.0527 17.717C11.5797 17.717 11.1962 16.9492 11.1962 16.002C11.1962 15.0549 11.5797 14.2871 12.0527 14.2871C12.5257 14.2871 12.9092 15.0549 12.9092 16.002C12.9092 16.9492 12.5257 17.717 12.0527 17.717Z" fill="white"/>
<path d="M11.7928 19.1626C11.4603 19.6578 10.1287 26.3913 9.86741 26.7295C9.60611 27.0676 9.10595 27.0918 9.10595 27.0918L8.22573 29.3166C8.22573 29.3166 10.4124 30.0184 11.6265 31.0329C13.1956 32.3439 14.646 36.6903 14.646 36.6903C14.8835 36.8593 17.8317 38.0925 18.6406 38.1408C18.6406 38.1408 14.8809 33.9434 14.5747 28.1344C14.4559 25.8841 15.8178 22.7146 15.9063 21.1446C16.0039 19.4592 15.5024 19.1626 14.6222 19.1626H11.7928Z" fill="#FFA900"/>
<path d="M18.8216 38.6195L19.4102 38.0532C16.111 34.5026 14.8942 28.9083 14.9906 27.3812C15.0407 26.5989 15.2875 25.724 15.5501 24.7968C15.8299 23.8078 16.1466 22.6873 16.2812 21.4703C16.4066 20.3404 16.2812 19.6104 15.9025 19.1743C15.5237 18.7382 15.0038 18.7395 14.658 18.7409H11.5172V19.5648H14.6593C14.9615 19.5648 15.1674 19.5755 15.298 19.7245C15.4287 19.8734 15.5989 20.2612 15.4749 21.379C15.3429 22.5263 15.0539 23.5649 14.7702 24.5687C14.4957 25.5402 14.2423 26.4567 14.1816 27.3276C14.0787 28.958 15.3442 34.8931 18.8216 38.6195Z" fill="#DBDBDB"/>
<path d="M9.85094 28.5663C9.66618 29.2587 9.08421 29.6989 8.55106 29.5513C8.01791 29.4037 7.73418 28.7233 7.92025 28.0322C8.10632 27.3412 8.6883 26.8984 9.22145 27.046C9.7546 27.1936 10.037 27.8752 9.85094 28.5663Z" fill="#DBDBDB"/>
<path d="M9.65379 28.5111C9.48883 29.1283 8.98472 29.5255 8.52811 29.3994C8.0715 29.2733 7.8366 28.6708 8.00024 28.0575C8.16388 27.4443 8.66931 27.0431 9.1246 27.1692C9.57989 27.2953 9.81875 27.8938 9.65379 28.5111Z" fill="white"/>
<path opacity="0.1" d="M12.1858 28.4551C12.3323 27.7587 12.4906 27.0649 12.6279 26.3671C12.7651 25.6693 12.8918 24.9702 12.9987 24.2684C13.103 23.6149 13.2151 22.9547 13.256 22.2932C13.297 21.6021 13.256 20.9043 12.9261 20.2803C12.9254 20.2791 12.925 20.2778 12.9248 20.2763C12.9246 20.2749 12.9247 20.2735 12.9251 20.2721C12.9255 20.2708 12.9261 20.2695 12.927 20.2684C12.9278 20.2672 12.9289 20.2663 12.9301 20.2656C12.9313 20.2649 12.9326 20.2644 12.934 20.2642C12.9354 20.2641 12.9368 20.2642 12.9382 20.2645C12.9395 20.2649 12.9408 20.2656 12.9419 20.2664C12.943 20.2673 12.9439 20.2684 12.9446 20.2696C13.2838 20.7728 13.3946 21.378 13.4131 21.9778C13.4113 22.6391 13.354 23.2991 13.2415 23.9504C13.049 25.3807 12.7847 26.8 12.4497 28.2028C12.2584 28.9959 12.0116 29.7755 11.7477 30.5457C11.7477 30.5482 11.7467 30.5506 11.7449 30.5524C11.7432 30.5541 11.7409 30.5551 11.7384 30.5551C11.736 30.5551 11.7336 30.5541 11.7319 30.5524C11.7302 30.5506 11.7292 30.5482 11.7292 30.5457C11.8867 29.8453 12.0389 29.1484 12.1858 28.4551Z" fill="black"/>
<path opacity="0.1" d="M24.4025 33.5203V36.3382H26.7674V34.2046C26.7674 34.2046 28.0871 33.527 28.351 31.0619C28.5885 28.829 26.836 25.8487 26.5034 25.3079L24.9977 25.2583V25.8071C24.9977 25.8071 25.9888 27.828 26.1089 28.8653C26.4665 31.9905 24.4025 33.5203 24.4025 33.5203Z" fill="black"/>
<path d="M18.4544 36.9975C18.7737 37.1022 27.9705 36.7292 28.315 36.5024C28.3559 36.4769 28.5195 34.6774 28.5195 34.6774L27.4559 27.7681L21.4183 27.8499L22.5836 33.7542C22.5836 33.7542 21.2547 34.3755 20.1567 34.919C19.4811 35.2531 18.8938 35.5577 18.7592 35.6677C18.4068 35.9576 18.135 36.8929 18.4544 36.9975Z" fill="#F7A9A0"/>
<path d="M18.4527 36.9972C18.7734 37.1018 27.9702 36.7288 28.3133 36.502C28.3555 36.4765 28.5205 34.6784 28.5205 34.6784L28.1919 32.5488L22.3998 32.8172L22.5833 33.7458C22.5833 33.7458 21.2544 34.3684 20.1564 34.9105C19.482 35.2447 18.8935 35.5493 18.7589 35.6593C18.4065 35.9585 18.1346 36.8925 18.4527 36.9972Z" fill="#EBEBEB"/>
<path d="M18.4598 37.0094C18.7845 37.1127 28.042 36.8926 28.3891 36.6565C28.521 36.5692 28.5685 35.1965 28.5791 33.5352V33.4829L22.6062 33.5567V33.66C22.6062 33.66 19.0999 35.3548 18.7449 35.6554C18.3899 35.956 18.1339 36.9061 18.4598 37.0094Z" fill="#C7C7C7"/>
<path d="M18.5562 36.6405C20.1147 36.5653 26.4122 36.4083 27.9589 36.454C27.972 36.454 27.972 36.4634 27.9589 36.4634C26.4148 36.5734 20.1173 36.6781 18.5562 36.6673C18.5232 36.666 18.5232 36.6418 18.5562 36.6405Z" fill="#263238"/>
<path d="M22.1082 33.6883C22.7193 33.5542 23.4728 33.636 23.9558 34.0694C23.9756 34.0869 23.9558 34.1124 23.9307 34.107C23.3396 33.9282 22.7312 33.8144 22.1162 33.7675C22.1067 33.767 22.0978 33.7631 22.0909 33.7565C22.0841 33.7499 22.0798 33.741 22.0788 33.7314C22.0778 33.7218 22.0803 33.7122 22.0857 33.7043C22.0911 33.6964 22.0991 33.6908 22.1082 33.6883Z" fill="#263238"/>
<path d="M21.6713 33.9713C22.2823 33.8371 23.0359 33.9177 23.5189 34.3511C23.5373 34.3685 23.5189 34.3954 23.4938 34.3887C22.9022 34.2097 22.2934 34.0959 21.6779 34.0492C21.6729 34.0496 21.6678 34.049 21.663 34.0475C21.6582 34.0459 21.6538 34.0434 21.6499 34.0401C21.646 34.0368 21.6429 34.0328 21.6405 34.0282C21.6382 34.0237 21.6368 34.0187 21.6364 34.0136C21.6359 34.0085 21.6365 34.0033 21.638 33.9984C21.6395 33.9936 21.642 33.989 21.6452 33.9851C21.6485 33.9812 21.6525 33.9779 21.6569 33.9756C21.6614 33.9732 21.6663 33.9718 21.6713 33.9713Z" fill="#263238"/>
<path d="M21.2348 34.253C21.8458 34.1188 22.5993 34.1994 23.0823 34.6341C23.1008 34.6502 23.0823 34.6771 23.0573 34.6704C22.4659 34.4926 21.8576 34.3793 21.2427 34.3322C21.2333 34.3317 21.2243 34.3278 21.2175 34.3212C21.2106 34.3145 21.2063 34.3056 21.2054 34.2961C21.2044 34.2865 21.2068 34.2769 21.2122 34.269C21.2176 34.2611 21.2256 34.2554 21.2348 34.253Z" fill="#263238"/>
<path d="M22.0741 32.8617L28.8137 32.549C28.8137 32.549 26.4831 22.9318 26.7312 22.6191C26.9952 22.2823 35.8819 24.7661 37.8337 22.3051C39.8317 19.7837 37.8337 15.5635 37.8337 15.5635H31.0017C31.0017 15.5635 31.0017 16.3364 31.4662 17.4931C31.4662 17.4931 23.7197 16.0345 21.6782 17.1321C21.2757 17.3495 19.8306 18.5626 19.8069 19.7126C19.6881 24.7983 22.0741 32.8617 22.0741 32.8617Z" fill="#455A64"/>
<path d="M22.0099 31.6202C22.8097 31.5182 23.612 31.4552 24.4157 31.3948C25.2194 31.3344 26.0217 31.2847 26.8268 31.2525C27.2794 31.2351 27.7334 31.2391 28.1873 31.2217C28.1905 31.2217 28.1935 31.223 28.1957 31.2252C28.198 31.2275 28.1992 31.2306 28.1992 31.2338C28.1992 31.237 28.198 31.24 28.1957 31.2423C28.1935 31.2446 28.1905 31.2458 28.1873 31.2458C27.7835 31.2754 27.381 31.3263 26.9772 31.3586C26.5734 31.3908 26.1854 31.4203 25.7816 31.4471C24.9792 31.5021 24.1755 31.5464 23.3718 31.5974C22.9179 31.6256 22.4652 31.6403 22.0112 31.6511C22.0079 31.6502 22.005 31.6483 22.0028 31.6456C22.0006 31.643 21.9994 31.6396 21.9992 31.6362C21.9991 31.6327 22.0001 31.6292 22.002 31.6264C22.0039 31.6235 22.0067 31.6213 22.0099 31.6202Z" fill="#263238"/>
<path d="M34.9766 16.1443C34.9855 16.1726 34.997 16.2 35.0109 16.2262C35.0124 16.2281 35.0132 16.2305 35.0132 16.2329C35.0132 16.2353 35.0124 16.2377 35.0109 16.2396C35.0901 16.4905 35.1231 16.7562 35.1996 17.0085C35.2723 17.2763 35.4336 17.5104 35.6562 17.6714C36.1234 18.0015 36.6842 18.1505 37.2279 18.2873C37.2312 18.2883 37.2341 18.2904 37.2361 18.2931C37.2382 18.2959 37.2393 18.2993 37.2393 18.3028C37.2393 18.3062 37.2382 18.3096 37.2361 18.3124C37.2341 18.3152 37.2312 18.3172 37.2279 18.3182C36.9145 18.32 36.6028 18.2715 36.3042 18.1746C36.0236 18.0956 35.7591 17.9666 35.5229 17.7935C35.3011 17.6228 35.1429 17.3806 35.0742 17.1065C35.041 16.9607 35.015 16.8134 34.9964 16.665C34.9658 16.4944 34.9477 16.3217 34.9423 16.1484C34.9442 16.1457 34.9466 16.1435 34.9494 16.1419C34.9523 16.1402 34.9554 16.1392 34.9586 16.1388C34.9618 16.1385 34.965 16.1387 34.9681 16.1397C34.9712 16.1406 34.9741 16.1422 34.9766 16.1443Z" fill="#263238"/>
<path d="M30.3671 17.1496C30.7387 17.2587 31.1007 17.3992 31.4492 17.5696L31.4664 17.5777C31.4592 17.5558 31.4539 17.5334 31.4505 17.5106C31.4505 17.4838 31.4426 17.4583 31.4373 17.4314C31.4321 17.4046 31.4373 17.3764 31.4294 17.3482V17.3053C31.3845 17.3023 31.3407 17.29 31.3007 17.269C31.2608 17.2479 31.2255 17.2187 31.1972 17.1832C31.1243 17.0802 31.0751 16.9619 31.0533 16.837C31.0124 16.6813 30.9741 16.523 30.9411 16.3646C30.9082 16.2063 30.8725 16.0117 30.8448 15.8279C30.8113 15.654 30.7914 15.4776 30.7854 15.3005C30.7854 15.2941 30.7879 15.288 30.7924 15.2834C30.7968 15.2789 30.8029 15.2764 30.8092 15.2764C30.8155 15.2764 30.8215 15.2789 30.826 15.2834C30.8304 15.288 30.8329 15.2941 30.8329 15.3005C30.8738 15.4629 30.8923 15.6306 30.9227 15.7943C30.953 15.958 30.9873 16.1231 31.0243 16.2868C31.0612 16.4505 31.1008 16.6142 31.1457 16.7753C31.1906 16.9363 31.2249 17.1282 31.3885 17.1778C31.7264 17.2758 31.5746 16.5069 31.5601 16.3539C31.5258 16.005 31.5046 15.6481 31.4439 15.3019C31.4439 15.2884 31.4637 15.2817 31.4664 15.3019C31.5403 15.6199 31.6234 15.9325 31.6788 16.2546C31.7066 16.4129 31.7264 16.5726 31.7435 16.731C31.7709 16.8682 31.7599 17.0104 31.7118 17.1416C31.6909 17.1859 31.6596 17.2243 31.6208 17.2536C31.5819 17.2828 31.5366 17.3019 31.4888 17.3093L31.4994 17.3456C31.5073 17.371 31.5152 17.3965 31.5218 17.422C31.5284 17.4475 31.5337 17.4744 31.539 17.4999C31.5506 17.5301 31.5547 17.5629 31.5508 17.5951C31.5479 17.6042 31.5418 17.6118 31.5337 17.6166C31.6775 17.6797 31.8227 17.7427 31.9652 17.8112C32.1444 17.8827 32.3178 17.9684 32.4838 18.0675C32.5036 18.0769 32.4838 18.1037 32.4693 18.0997C32.2835 18.0467 32.1018 17.9798 31.9256 17.8997C31.7448 17.83 31.5667 17.7548 31.3872 17.6783C31.0317 17.5456 30.6878 17.3827 30.3592 17.1912C30.3537 17.1902 30.349 17.187 30.3459 17.1823C30.3428 17.1776 30.3416 17.1719 30.3427 17.1664C30.3437 17.1609 30.3469 17.156 30.3515 17.1529C30.356 17.1497 30.3617 17.1486 30.3671 17.1496Z" fill="#263238"/>
<path d="M20.0073 18.8389C20.2411 18.14 20.7142 17.55 21.3402 17.1763C21.9829 16.8153 22.7325 16.7187 23.4517 16.6959C24.2884 16.6704 25.1303 16.7147 25.9657 16.7683C26.8551 16.8247 27.7446 16.9106 28.6288 17.0367C29.513 17.1629 30.3813 17.3172 31.251 17.5077C31.4595 17.5533 31.6667 17.6097 31.8739 17.6687C31.8897 17.6687 31.8871 17.7036 31.8739 17.701C31.0095 17.5775 30.149 17.4326 29.2846 17.3118C28.4203 17.191 27.5466 17.0958 26.673 17.0287C25.7994 16.9616 24.935 16.924 24.0653 16.9106C23.3527 16.8999 22.6137 16.9106 21.9367 17.1441C21.6019 17.2528 21.2919 17.4285 21.0248 17.6607C20.7624 17.8992 20.5474 18.1867 20.3913 18.5074C20.035 19.22 20.002 20.0372 19.9664 20.8262C19.8635 23.1678 21.5197 30.6085 21.814 31.8041C21.8147 31.8145 21.8119 31.8248 21.8059 31.8333C21.7999 31.8417 21.7912 31.8478 21.7812 31.8503C21.7713 31.8529 21.7608 31.8518 21.7516 31.8473C21.7424 31.8428 21.735 31.8351 21.7308 31.8256C21.3996 30.4757 19.7513 23.4469 19.7513 21.3348C19.75 20.4921 19.7196 19.6333 20.0073 18.8389Z" fill="#263238"/>
<path d="M25.7418 21.8088C26.9494 21.8517 28.1503 21.9658 29.3512 22.0946C30.5521 22.2234 31.7622 22.363 32.971 22.4488C33.5728 22.4904 34.1759 22.5173 34.779 22.5213C35.2804 22.5452 35.7824 22.4881 36.2663 22.3522C36.7577 22.1908 37.1708 21.846 37.4223 21.3874C37.6863 20.9068 37.8579 20.3794 37.9278 19.8335C38.0861 18.7238 37.9278 17.5899 37.7417 16.4949C37.7179 16.3607 37.6955 16.2265 37.6717 16.083C37.6717 16.0695 37.6889 16.0642 37.6915 16.083C37.9436 17.1873 38.1693 18.3239 38.0874 19.4645C38.0575 20.0219 37.9329 20.5699 37.7192 21.0842C37.533 21.5708 37.2017 21.9861 36.7717 22.2717C36.3289 22.5126 35.8354 22.6411 35.3333 22.6461C34.7521 22.6682 34.1702 22.6588 33.59 22.6179C32.3521 22.5522 31.1195 22.4126 29.8883 22.2731C28.657 22.1335 27.4337 21.9966 26.2011 21.9295C26.0691 21.9228 25.9279 21.9161 25.792 21.9121C25.9781 23.1131 27.5617 30.3082 27.6501 30.8772C27.6593 30.9336 27.6092 30.951 27.596 30.8947C27.3321 29.7728 25.788 22.575 25.6864 21.8705C25.6847 21.8625 25.6848 21.8542 25.6869 21.8462C25.689 21.8383 25.6929 21.831 25.6983 21.825C25.7038 21.8189 25.7106 21.8143 25.7181 21.8114C25.7257 21.8086 25.7338 21.8077 25.7418 21.8088Z" fill="#263238"/>
<path d="M38.2253 16.4208C38.2068 16.4476 29.1789 17.1534 29.0839 17.0675C28.9519 16.9454 29.8454 7.54019 30.6517 6.16073C30.8246 5.86686 31.4857 5.71254 32.0651 5.71791C32.2159 5.71716 32.3665 5.73019 32.5151 5.75682H32.5296C32.6495 5.77756 32.7651 5.81885 32.8714 5.87893C34.6054 6.97928 36.4556 11.3243 36.9215 12.6393C37.6935 14.8078 38.2926 16.3241 38.2253 16.4208Z" fill="#FFA900"/>
<path d="M31.0677 7.36027C31.5164 7.36027 32.2739 6.62358 32.4244 5.93251C32.4349 5.8842 32.2489 5.47224 32.0483 4.95964C31.9269 4.64699 31.7988 4.29809 31.7052 3.97068C31.6867 3.90224 29.8273 5.06699 29.8273 5.06699C30.0595 5.4428 30.2457 5.84614 30.3815 6.26798C30.3937 6.31187 30.4021 6.35677 30.4066 6.40217C30.4061 6.40976 30.4061 6.41738 30.4066 6.42498C30.4422 6.69738 30.5887 7.36698 31.0677 7.36027Z" fill="#F7A9A0"/>
<path d="M30.407 6.40623C30.4065 6.41383 30.4065 6.42145 30.407 6.42905C30.4782 6.4185 30.5484 6.40189 30.6168 6.3794C31.8045 6.00099 31.6805 4.39341 31.6303 3.99219C31.2859 4.15053 29.8237 5.06569 29.8237 5.06569C30.0558 5.44181 30.2423 5.84506 30.3793 6.26668C30.3921 6.31239 30.4014 6.35905 30.407 6.40623Z" fill="#263238"/>
<path d="M31.5406 1.45606C31.8666 2.178 31.7663 4.4082 31.3057 4.96106C30.6367 5.76619 29.3962 6.00907 28.6849 5.15832C27.996 4.33306 28.1768 1.43325 28.7046 0.911259C29.4846 0.143702 31.0576 0.391951 31.5406 1.45606Z" fill="#F7A9A0"/>
<path d="M29.629 3.04492C29.629 3.04492 29.6395 3.05297 29.6395 3.05968C29.629 3.20863 29.6395 3.38308 29.7715 3.43809C29.7715 3.43809 29.7715 3.44749 29.7715 3.44615C29.6092 3.41662 29.596 3.18582 29.629 3.04492Z" fill="#263238"/>
<path d="M29.7676 2.89467C30.0051 2.88527 30.0038 3.37103 29.7834 3.37909C29.563 3.38714 29.567 2.90138 29.7676 2.89467Z" fill="#263238"/>
<path d="M28.7742 3.06934C28.7742 3.06934 28.7623 3.07604 28.7636 3.08275C28.7636 3.2317 28.7478 3.40481 28.6145 3.45446C28.6145 3.45446 28.6145 3.46385 28.6145 3.46251C28.7782 3.43969 28.8046 3.21023 28.7742 3.06934Z" fill="#263238"/>
<path d="M28.6421 2.91215C28.4059 2.89337 28.3861 3.37779 28.6065 3.39389C28.8269 3.40999 28.8414 2.92557 28.6421 2.91215Z" fill="#263238"/>
<path d="M29.9554 2.67327C29.8931 2.65432 29.8319 2.63192 29.772 2.60617C29.7037 2.59281 29.6419 2.5564 29.5965 2.50285C29.5852 2.48318 29.5807 2.46028 29.5835 2.43772C29.5864 2.41515 29.5965 2.39418 29.6123 2.37805C29.6482 2.3513 29.6906 2.33483 29.7349 2.33035C29.7792 2.32586 29.8239 2.33353 29.8644 2.35256C29.9523 2.37772 30.0277 2.4357 30.0755 2.51493C30.0851 2.53357 30.0893 2.55462 30.0875 2.57559C30.0857 2.59656 30.078 2.61656 30.0654 2.63323C30.0527 2.6499 30.0356 2.66253 30.0162 2.66963C29.9967 2.67672 29.9756 2.67799 29.9554 2.67327Z" fill="#263238"/>
<path d="M28.4585 2.66679C28.5227 2.65419 28.5862 2.63761 28.6485 2.61713C28.7176 2.61006 28.7823 2.5793 28.8319 2.52991C28.8453 2.51196 28.8525 2.49004 28.8525 2.46752C28.8525 2.44499 28.8453 2.42307 28.8319 2.40512C28.7984 2.37509 28.7576 2.35477 28.7137 2.34628C28.6698 2.33778 28.6245 2.34142 28.5825 2.35681C28.4928 2.37398 28.4128 2.42474 28.3582 2.49905C28.3471 2.51623 28.341 2.53626 28.3407 2.5568C28.3403 2.57735 28.3457 2.59757 28.3562 2.61513C28.3667 2.63269 28.3819 2.64686 28.4 2.656C28.4181 2.66514 28.4383 2.66888 28.4585 2.66679Z" fill="#263238"/>
<path d="M29.7642 4.43901C29.7285 4.4739 29.6929 4.52221 29.6322 4.52758C29.5773 4.52591 29.5234 4.51265 29.4738 4.48866C29.4738 4.48866 29.4646 4.48866 29.4672 4.49671C29.4883 4.52626 29.5169 4.54946 29.5498 4.56386C29.5828 4.57827 29.619 4.58335 29.6546 4.57857C29.685 4.5707 29.7124 4.55367 29.7331 4.52973C29.7538 4.50579 29.7669 4.47604 29.7708 4.44438C29.78 4.43767 29.7694 4.43364 29.7642 4.43901Z" fill="#263238"/>
<path d="M29.6098 3.98964C29.5721 4.04904 29.5228 4.09985 29.4649 4.13889C29.4069 4.17792 29.3417 4.20432 29.2732 4.21642C29.2137 4.22785 29.1528 4.23057 29.0924 4.22447C29.081 4.22587 29.0695 4.22587 29.0581 4.22447H29.0251C29.0174 4.22278 29.0104 4.21861 29.0052 4.21257C29 4.20653 28.9968 4.19894 28.9961 4.19093C28.9955 4.18603 28.9955 4.18107 28.9961 4.17617V4.16275C28.9961 4.04735 29.0053 3.87156 29.0053 3.87156C28.9631 3.89303 28.7506 3.98964 28.7546 3.92926C28.7685 3.40802 28.8349 2.88959 28.9526 2.38207C28.9526 2.37851 28.9539 2.3751 28.9564 2.37258C28.9589 2.37007 28.9623 2.36865 28.9658 2.36865C28.9693 2.36865 28.9726 2.37007 28.9751 2.37258C28.9776 2.3751 28.979 2.37851 28.979 2.38207C28.9684 2.86381 28.876 3.34017 28.8575 3.82325C28.933 3.78799 29.013 3.7636 29.0951 3.75079C29.1109 3.75079 29.0674 4.09029 29.0726 4.14262C29.1657 4.15198 29.2596 4.14231 29.3489 4.1142C29.4382 4.08608 29.5211 4.04008 29.5926 3.97891C29.6058 3.96818 29.6177 3.97757 29.6098 3.98964Z" fill="#263238"/>
<path d="M29.1595 4.16565C29.2216 4.24882 29.3039 4.31405 29.3984 4.35486C29.4501 4.37528 29.5068 4.37903 29.5607 4.36559C29.6782 4.33473 29.6821 4.23141 29.661 4.12942C29.6484 4.07981 29.6307 4.03168 29.6082 3.98584C29.4814 4.09304 29.3242 4.15607 29.1595 4.16565Z" fill="#263238"/>
<path d="M29.3984 4.35483C29.4501 4.37526 29.5068 4.379 29.5607 4.36557C29.6782 4.3347 29.6821 4.23138 29.661 4.12939C29.5987 4.13144 29.5388 4.15481 29.4912 4.19572C29.4435 4.23663 29.4108 4.29269 29.3984 4.35483Z" fill="#FF9BBC"/>
<path d="M28.3893 1.64831C28.4698 1.45776 28.5635 1.26587 28.677 1.22695C28.7905 1.18804 28.863 1.46983 29.1204 1.48728C29.4661 1.51143 29.6337 1.18804 30.1181 1.15315C30.8148 1.10484 31.121 1.6899 31.1368 2.699C31.1514 3.59538 31.6845 3.67991 31.6845 3.67991C31.6845 3.67991 32.0078 1.70332 31.4602 1.04848C30.9125 0.393646 29.6548 0.109166 28.8103 0.729116C28.5028 0.955894 28.3893 1.64831 28.3893 1.64831Z" fill="#263238"/>
<path d="M31.239 3.32838C31.239 3.32838 31.6442 2.56753 31.9781 2.70575C32.3119 2.84396 32.0638 3.91344 31.7141 4.09191C31.6703 4.11868 31.6216 4.13616 31.571 4.14328C31.5203 4.15041 31.4688 4.14704 31.4195 4.13337C31.3702 4.1197 31.3241 4.09603 31.284 4.06376C31.2439 4.0315 31.2107 3.99132 31.1863 3.94565L31.239 3.32838Z" fill="#F7A9A0"/>
<path d="M31.8994 3.00732V3.01672C31.6526 3.1509 31.5444 3.41928 31.4771 3.67827C31.4892 3.65015 31.5071 3.62502 31.5296 3.60462C31.5521 3.58422 31.5787 3.56903 31.6076 3.5601C31.6364 3.55117 31.6668 3.54871 31.6967 3.5529C31.7266 3.55708 31.7552 3.56781 31.7806 3.58433C31.7886 3.58433 31.7806 3.60044 31.7806 3.59909C31.7334 3.58989 31.6846 3.59564 31.6407 3.61555C31.5968 3.63547 31.56 3.6686 31.5352 3.71047C31.4952 3.78158 31.4625 3.85667 31.4375 3.93457C31.4283 3.95872 31.3847 3.95201 31.3913 3.92383V3.91712C31.3465 3.58165 31.5497 3.08247 31.8994 3.00732Z" fill="#263238"/>
<path d="M28.4725 1.05903C28.6771 1.00938 29.8107 1.04427 30.3201 1.26702C30.8295 1.48977 31.7348 2.23452 31.7809 2.27343C31.8271 2.31235 32.0607 0.412241 30.5444 0.0660357C28.8935 -0.312375 28.4725 1.05903 28.4725 1.05903Z" fill="#FFA900"/>
<path d="M31.6934 2.19575C31.6934 2.19575 30.6917 0.853866 30.1348 0.545233C29.5779 0.236601 28.3308 0.0648396 27.5588 0.411045C26.9584 0.679422 28.4258 1.46576 28.4258 1.46576C28.4397 1.40138 28.4682 1.34117 28.509 1.28992C28.5497 1.23868 28.6017 1.19781 28.6607 1.17055C29.0355 1.01892 29.7482 1.13566 30.1546 1.27388C30.6666 1.44966 31.6934 2.19575 31.6934 2.19575Z" fill="#FFA900"/>
<path opacity="0.2" d="M31.6934 2.20208C31.6934 2.20208 30.6917 0.852151 30.1348 0.54486C29.5779 0.237569 28.3308 0.0644662 27.5588 0.410672C26.9584 0.679048 28.4258 1.46539 28.4258 1.46539C28.4397 1.401 28.4682 1.3408 28.509 1.28955C28.5497 1.23831 28.6017 1.19743 28.6607 1.17018C29.0355 1.01854 29.7482 1.13529 30.1546 1.2735C30.6666 1.44929 31.6934 2.20208 31.6934 2.20208Z" fill="black"/>
<path d="M33.443 8.3882C33.5275 11.0344 32.5668 15.99 31.8594 16.3268C29.5764 17.411 25.7348 17.4794 24.4191 17.4915C23.8516 17.4915 22.9806 13.388 23.5428 13.1572C23.9163 13.0043 29.5487 13.0029 29.6476 12.799C29.7466 12.595 31.0887 9.64822 31.6681 8.01649C32.4374 5.84667 33.3942 6.8343 33.443 8.3882Z" fill="#F7A9A0"/>
<path d="M24.1471 13.1025C24.1471 13.1025 22.4223 13.2099 21.2992 13.3333C20.671 13.4018 19.6061 13.6178 19.1692 13.8822C18.5094 14.2847 16.0231 16.362 16.5061 16.9873C16.9443 17.5522 18.8604 15.4871 18.8604 15.4871C18.8604 15.4871 16.749 17.3966 17.3956 17.9803C18.0422 18.564 19.903 15.9353 19.903 15.9353C19.903 15.9353 17.773 17.9481 18.5371 18.4419C19.1138 18.8136 20.931 16.531 20.931 16.531C20.931 16.531 19.1112 18.2755 19.6892 18.6781C20.3279 19.1303 22.1346 17.1295 22.1346 17.1295C23.7749 17.9186 24.8729 17.6113 25.6291 17.2986C25.8151 17.2288 24.1471 13.1025 24.1471 13.1025Z" fill="#F7A9A0"/>
<path d="M19.551 14.7786C19.295 14.9933 19.0337 15.2093 18.7975 15.4495C18.5612 15.6897 18.3316 15.934 18.1178 16.1929C17.8317 16.5261 17.5838 16.8912 17.3788 17.2812C17.7919 16.6103 18.6259 15.7515 18.8634 15.5139C19.101 15.2764 19.324 15.0268 19.5602 14.7893C19.5668 14.7813 19.5576 14.7732 19.551 14.7786Z" fill="#263238"/>
<path d="M20.4103 15.6316C20.0949 15.9201 19.7715 16.1966 19.468 16.4998C19.1645 16.8031 18.9058 17.1158 18.6247 17.4392C18.6036 17.4633 18.6247 17.4673 18.6472 17.4392C18.9401 17.1292 19.2344 16.8648 19.53 16.5575C19.8256 16.2502 20.112 15.9309 20.4182 15.6357C20.4235 15.6343 20.4155 15.6276 20.4103 15.6316Z" fill="#263238"/>
<path d="M21.2828 16.2291C20.7878 16.6608 20.3381 17.1433 19.9407 17.669C19.9209 17.6945 19.9473 17.6971 19.9697 17.669C20.4065 17.1819 20.7457 16.7967 21.2973 16.2452C21.3013 16.2385 21.2828 16.2211 21.2828 16.2291Z" fill="#263238"/>
<path d="M19.3871 13.6699C19.7971 13.4918 20.2323 13.3808 20.6764 13.3411C21.6345 13.2217 22.5979 13.1439 23.5612 13.0728C24.5246 13.0017 25.5025 12.9386 26.4738 12.9024C27.0201 12.8809 27.5665 12.8643 28.1128 12.8527C28.6592 12.842 28.7726 12.8621 29.3216 12.8688C29.3361 12.8688 29.3348 12.8889 29.3216 12.8903C28.3649 12.9413 27.837 12.9815 26.8802 13.0325C25.9235 13.0835 24.9693 13.1412 24.0152 13.2083C23.0611 13.2754 22.1228 13.3425 21.1805 13.4498C20.7248 13.4813 20.2729 13.5554 19.8305 13.6713C19.3972 13.8331 18.9952 14.0711 18.6428 14.3744C18.239 14.6978 16.7253 16.1779 16.5867 16.3698C16.5696 16.3926 16.563 16.3859 16.5722 16.3564C16.6818 15.9551 18.5016 14.0899 19.3871 13.6699Z" fill="#263238"/>
<path d="M30.7177 10.0964L33.5247 11.7147C33.5247 11.7147 33.6435 8.10774 33.3835 7.03691C33.0905 5.82922 32.5494 6.24789 31.9397 7.25162C31.3301 8.25534 30.7177 10.0964 30.7177 10.0964Z" fill="#FFA900"/>
<path opacity="0.1" d="M30.7177 10.0964L33.5247 11.7147C33.5247 11.7147 33.6435 8.10774 33.3835 7.03691C33.0905 5.82922 32.5494 6.24789 31.9397 7.25162C31.3301 8.25534 30.7177 10.0964 30.7177 10.0964Z" fill="black"/>
<path d="M31.1052 9.63513C31.4892 9.79213 32.5793 10.4282 32.76 10.5315C32.8551 10.5852 33.2272 10.82 33.3222 10.8737C33.3341 10.8804 33.3222 10.8978 33.3104 10.8911C33.1269 10.7891 32.9342 10.706 32.7495 10.6053C32.5647 10.5047 31.4298 9.89814 31.0973 9.64855C31.096 9.64728 31.0952 9.64562 31.095 9.64383C31.0947 9.64204 31.0951 9.64022 31.096 9.63868C31.0969 9.63713 31.0983 9.63594 31.1 9.63529C31.1017 9.63465 31.1035 9.63459 31.1052 9.63513Z" fill="#263238"/>
<path d="M31.1607 8.76142C31.2043 8.59368 31.2491 8.42729 31.2993 8.2609C31.2716 8.38435 31.2399 8.5078 31.2082 8.63126C31.3098 8.39777 31.4141 8.16697 31.5276 7.94287H31.5342C31.4114 8.30652 31.2702 8.66346 31.1383 9.02443C31.0063 9.38539 30.8743 9.73026 30.7424 10.0832C30.8018 10.1301 30.8598 10.1758 30.9205 10.2174C30.923 10.219 30.9247 10.2215 30.9253 10.2244C30.9259 10.2273 30.9254 10.2303 30.9238 10.2328C30.9223 10.2353 30.9198 10.237 30.9169 10.2377C30.9141 10.2383 30.9111 10.2377 30.9087 10.2361C30.8361 10.1986 30.7635 10.161 30.6883 10.1275C30.6796 10.1241 30.6724 10.1176 30.6683 10.1091C30.6641 10.1007 30.6632 10.0909 30.6658 10.0818C30.8136 9.64304 30.9773 9.19753 31.1607 8.76142Z" fill="#263238"/>
</svg>
