<svg width="64" height="49" viewBox="0 0 64 49" fill="none" xmlns="http://www.w3.org/2000/svg">
<g clip-path="url(#clip0_2373_10984)">
<path fill-rule="evenodd" clip-rule="evenodd" d="M23.0654 13.6087C25.8953 8.16344 28.7252 5.44153 34.3843 5.44153C38.5433 5.44153 42.1803 7.60317 44.1478 10.8225C31.7482 13.9976 20.4316 19.4242 12.1695 28.0072C10.719 29.5139 9.2391 31.1982 7.80944 33.0558C3.39478 27.4807 0.427734 21.9063 0.427734 16.3313C0.427734 10.3202 5.49869 5.44153 11.7466 5.44153C17.4064 5.44153 20.2355 8.16413 23.0654 13.6087ZM45.6507 15.2819C45.6852 15.6273 45.7031 15.9769 45.7031 16.3313C45.7031 27.221 34.3843 38.1107 23.0654 49.0005C21.1676 47.1746 19.2697 45.3487 17.4257 43.5228C20.0503 36.7788 24.3666 31.708 29.1675 26.9364C30.1872 25.9229 31.4495 24.5253 32.6566 23.6604C37.4928 20.1972 41.203 17.5264 45.6507 15.2819ZM13.9582 40.0112C12.787 38.7919 11.6554 37.5732 10.5776 36.3539C14.4249 30.7526 19.5297 25.5146 23.4201 22.8977C27.987 19.8248 35.2459 15.5368 40.803 14.6048C36.9887 17.3047 34.4345 17.3337 26.7936 23.7468C25.2749 25.0207 24.2689 26.2103 22.868 27.469C21.9524 28.2918 20.247 30.4396 19.3451 31.6092C17.5837 33.8945 15.571 36.9204 13.9582 40.0112Z" fill="#070602"/>
<path fill-rule="evenodd" clip-rule="evenodd" d="M54.9185 11.6044C56.1292 11.8628 57.3592 12.3643 58.6553 13.1395C63.9618 16.3125 65.5911 23.0316 62.293 28.1369C56.3173 37.3852 40.7288 40.885 25.1404 44.3848C24.3053 40.9424 23.4709 37.4999 22.7521 34.1272C24.6923 31.5621 26.8745 29.2147 29.168 26.9363C30.1877 25.9228 31.45 24.5252 32.6571 23.6603C40.4115 18.1066 45.2727 14.5902 54.9185 11.6044ZM21.7023 28.7007C21.4689 27.328 21.2664 25.9746 21.1041 24.6454C21.9084 23.9801 22.6868 23.3916 23.4206 22.8969C27.9875 19.824 35.2464 15.536 40.8035 14.604C36.9892 17.3039 34.435 17.3329 26.7941 23.746C25.2754 25.0199 24.2694 26.2095 22.8684 27.4682C22.5518 27.7521 22.1418 28.195 21.7023 28.7007ZM20.7537 20.8548C20.389 14.7837 21.1135 9.36264 23.8407 5.1409C27.1395 0.0355862 34.1226 -1.53193 39.4291 1.6411C43.1889 3.88979 44.5647 6.67457 44.7055 10.6815C35.9745 12.8645 27.7628 16.1502 20.7537 20.8541V20.8548Z" fill="#FFA900"/>
</g>
<defs>
<clipPath id="clip0_2373_10984">
<rect width="64" height="49" fill="white"/>
</clipPath>
</defs>
</svg>
