<svg width="32" height="26" viewBox="0 0 32 26" fill="none" xmlns="http://www.w3.org/2000/svg">
<g clip-path="url(#clip0_5997_10121)">
<path d="M0 5.678C0 3.98899 0.490909 2.55153 1.54545 1.52734L3.36364 3.32416C1.34545 5.31864 3.10909 11.5177 8.87273 17.2136C14.6364 22.9095 20.9091 24.6524 22.9273 22.658L24.7455 24.4548C21.3273 27.8328 13.5636 25.4251 7.05454 19.0104C2.54545 14.5363 0 9.48726 0 5.678Z" fill="#009A46"/>
<path d="M11.4734 26.0016C9.76435 26.0016 8.3098 25.5165 7.27344 24.4743L9.09162 22.6775C11.1098 24.672 17.3825 22.929 23.1462 17.2331C28.9098 11.5372 30.6734 5.33817 28.6553 3.3437L30.4734 1.54688C33.8916 4.9249 31.4553 12.5973 24.9643 19.0299C20.4371 23.4861 15.3098 26.0016 11.4734 26.0016Z" fill="#FF5805"/>
<path d="M25.5461 16.4592C24.437 13.3148 22.1824 9.95473 19.2006 7.00795C12.6915 0.575328 4.9279 -1.81444 1.50972 1.54561C1.27336 1.79717 1.49154 2.39012 1.98245 2.87526C2.47336 3.3604 3.09154 3.57602 3.3279 3.34243C5.34608 1.34796 11.6188 3.09088 17.3824 8.7868C20.1097 11.482 22.1461 14.5007 23.1279 17.2858C23.9824 19.7294 23.9097 21.7059 22.9097 22.6942C22.6734 22.9278 22.8734 23.5207 23.3824 24.0238C23.8915 24.527 24.4915 24.7246 24.7279 24.491C26.4734 22.7481 26.7643 19.8912 25.5461 16.4592Z" fill="#F5AFCB"/>
<path d="M30.4568 1.54478C28.7114 -0.180171 25.8204 -0.467662 22.3477 0.718239C19.1659 1.8143 15.7659 4.04236 12.7841 6.98915C6.275 13.4218 3.85682 21.0942 7.275 24.4722C7.51136 24.7058 8.12954 24.5082 8.62045 24.005C9.11136 23.5019 9.32954 22.909 9.09318 22.6754C7.075 20.6809 8.83863 14.4819 14.6023 8.78597C17.3295 6.09074 20.3841 4.07829 23.1841 3.10801C25.6568 2.26351 27.6568 2.33538 28.6568 3.32363C28.8932 3.55722 29.4932 3.35957 30.0023 2.85646C30.5114 2.35335 30.7114 1.79633 30.4568 1.54478Z" fill="#FF9B00"/>
</g>
<defs>
<clipPath id="clip0_5997_10121">
<rect width="32" height="26" fill="white"/>
</clipPath>
</defs>
</svg>
