<svg width="28" height="29" viewBox="0 0 28 29" fill="none" xmlns="http://www.w3.org/2000/svg">
<path d="M25.1079 0.969482H1.50254C0.749177 0.969482 0.0585938 1.63991 0.0585938 2.43224V4.99206C0.0585938 5.78438 0.749177 6.45481 1.50254 6.45481H25.1079C25.9241 6.45481 26.5519 5.78438 26.6146 4.99206V2.43224C26.6146 1.63991 25.9241 0.969482 25.1079 0.969482ZM25.1079 15.3532H1.50254C1.12586 15.3532 0.749177 15.5361 0.435275 15.7799C0.184154 16.0237 0.0585938 16.3893 0.0585938 16.816V19.3758C0.0585938 20.1681 0.749177 20.8386 1.50254 20.8386H25.1079C25.9241 20.8386 26.5519 20.2291 26.6146 19.3758V16.816C26.6146 15.9627 25.9241 15.3532 25.1079 15.3532ZM14.812 22.5451H1.50254C1.12586 22.5451 0.749177 22.667 0.498056 22.9717C0.246935 23.2155 0.0585938 23.5812 0.0585938 24.0079V26.5677C0.0585938 27.36 0.749177 28.0304 1.50254 28.0304H14.7492C15.5653 28.0304 16.1931 27.36 16.1931 26.5677V23.9469C16.2559 23.1546 15.6281 22.5451 14.812 22.5451ZM26.6146 8.16136H1.50254C1.12586 8.16136 0.749177 8.28325 0.498056 8.58799C0.246935 8.83178 0.0585938 9.19747 0.0585938 9.62411V12.1839C0.0585938 12.9763 0.749177 13.6467 1.50254 13.6467H26.5519C27.368 13.6467 27.9958 12.9763 27.9958 12.1839V9.62411C28.0586 8.83178 27.4308 8.16136 26.6146 8.16136Z" fill="#00C3F7"/>
</svg>
