<svg width="57" height="57" viewBox="0 0 57 57" fill="none" xmlns="http://www.w3.org/2000/svg">
<g clip-path="url(#clip0_7106_26448)">
<path d="M24.3711 14.9402L27.7561 5.52002L49.5947 15.6663" fill="#939393"/>
<path d="M41.7434 56.6701C45.5 56.6701 48.5453 53.6247 48.5453 49.8681C48.5453 46.1115 45.5 43.0662 41.7434 43.0662C37.9867 43.0662 34.9414 46.1115 34.9414 49.8681C34.9414 53.6247 37.9867 56.6701 41.7434 56.6701Z" fill="#536878"/>
<path d="M21.2238 56.6701C24.9805 56.6701 28.0258 53.6247 28.0258 49.8681C28.0258 46.1115 24.9805 43.0662 21.2238 43.0662C17.4672 43.0662 14.4219 46.1115 14.4219 49.8681C14.4219 53.6247 17.4672 56.6701 21.2238 56.6701Z" fill="#536878"/>
<path d="M16.1126 16.7525L11.6429 3.53291H0.078125V0H14.1788L19.4587 15.621L16.1126 16.7525Z" fill="#536878"/>
<path d="M16.3625 39.1348L8.74414 14.6709H55.3405L46.6207 39.1348H16.3625Z" fill="white"/>
<path d="M54.0851 15.5573L45.9966 38.2502H17.0135L9.94764 15.5573H54.0851ZM56.5962 13.7864H7.54102L15.7101 40.0211H47.2451L56.5962 13.7864Z" fill="#E4572E"/>
<path d="M46.7207 20.5068H18.4609V22.2777H46.7207V20.5068Z" fill="#536878"/>
<path d="M36.8524 26.3394H18.4609V28.1102H36.8524V26.3394Z" fill="#536878"/>
</g>
<defs>
<clipPath id="clip0_7106_26448">
<rect width="56.67" height="56.67" fill="white"/>
</clipPath>
</defs>
</svg>
