<svg width="28" height="23" viewBox="0 0 28 23" fill="none" xmlns="http://www.w3.org/2000/svg">
<g clip-path="url(#clip0_5997_10146)">
<path fill-rule="evenodd" clip-rule="evenodd" d="M10.0915 6.60999C11.3296 4.1652 12.5676 2.94312 15.0435 2.94312C16.8631 2.94312 18.4542 3.91365 19.315 5.35906C13.8902 6.78462 8.93918 9.22103 5.32453 13.0746C4.68994 13.7511 4.04247 14.5073 3.417 15.3414C1.48558 12.8383 0.1875 10.3355 0.1875 7.83238C0.1875 5.13356 2.40605 2.94312 5.13949 2.94312C7.61565 2.94312 8.85341 4.16551 10.0915 6.60999ZM19.9725 7.36123C19.9876 7.51632 19.9955 7.67326 19.9955 7.83238C19.9955 12.7217 15.0435 17.6109 10.0915 22.5002C9.26118 21.6804 8.43088 20.8606 7.62413 20.0408C8.77236 17.0129 10.6607 14.7362 12.7612 12.5939C13.2073 12.1388 13.7595 11.5114 14.2876 11.123C16.4034 9.56812 18.0267 8.36898 19.9725 7.36123ZM6.10708 18.4642C5.5947 17.9167 5.09959 17.3696 4.62805 16.8221C6.31128 14.3073 8.5446 11.9555 10.2467 10.7806C12.2447 9.40093 15.4205 7.47568 17.8517 7.05726C16.1829 8.26942 15.0655 8.28244 11.7226 11.1618C11.0581 11.7337 10.618 12.2679 10.0051 12.833C9.60455 13.2024 8.85844 14.1667 8.46386 14.6919C7.69324 15.7179 6.81267 17.0765 6.10708 18.4642Z" fill="#070602"/>
<path fill-rule="evenodd" clip-rule="evenodd" d="M24.0284 5.71015C24.5581 5.82615 25.0962 6.05134 25.6633 6.39935C27.9849 7.82398 28.6977 10.8407 27.2548 13.1329C24.6404 17.2852 17.8205 18.8565 11.0005 20.4279C10.6351 18.8823 10.2701 17.3367 9.95563 15.8224C10.8045 14.6708 11.7592 13.6168 12.7626 12.5938C13.2087 12.1388 13.761 11.5113 14.2891 11.123C17.6816 8.6295 19.8084 7.05072 24.0284 5.71015ZM9.49634 13.386C9.39424 12.7697 9.30565 12.1621 9.23465 11.5653C9.5865 11.2666 9.92704 11.0023 10.2481 10.7802C12.2461 9.40059 15.4219 7.47534 17.8531 7.05692C16.1843 8.26908 15.0669 8.28211 11.724 11.1614C11.0596 11.7334 10.6194 12.2675 10.0065 12.8327C9.86799 12.9601 9.6886 13.159 9.49634 13.386ZM9.08135 9.86337C8.92176 7.13757 9.23874 4.70363 10.4319 2.80816C11.8751 0.515977 14.9302 -0.187807 17.2518 1.23682C18.8967 2.24644 19.4987 3.49675 19.5602 5.29575C15.7404 6.2759 12.1478 7.75109 9.08135 9.86306V9.86337Z" fill="#FFA900"/>
</g>
<defs>
<clipPath id="clip0_5997_10146">
<rect width="28" height="22" fill="white" transform="translate(0 0.5)"/>
</clipPath>
</defs>
</svg>
