<svg width="11" height="14" viewBox="0 0 11 14" fill="none" xmlns="http://www.w3.org/2000/svg">
<path d="M1.584 13.5V8.874H0.18V7.722H1.584V6.246H0.18V5.094H1.584V0.647999H3.456L5.166 5.094H7.29V0.647999H8.712V5.094H10.116V6.246H8.712V7.722H10.116V8.874H8.712V13.5H6.822L5.112 8.874H2.988V13.5H1.584ZM2.988 7.722H4.68L4.14 6.246H2.952L2.988 7.722ZM7.29 10.962H7.362L7.308 8.874H6.552L7.29 10.962ZM2.952 5.094H3.708L2.952 2.862H2.88L2.952 5.094ZM6.12 7.722H7.326L7.29 6.246H5.58L6.12 7.722Z" fill="#00070C"/>
</svg>
