<svg width="37" height="29" viewBox="0 0 37 29" fill="none" xmlns="http://www.w3.org/2000/svg">
<g clip-path="url(#clip0_2365_8518)">
<path fill-rule="evenodd" clip-rule="evenodd" d="M13.3355 8.05236C14.9715 4.82968 16.6075 3.21875 19.8792 3.21875C22.2836 3.21875 24.3862 4.49809 25.5237 6.4034C18.3552 8.28255 11.8128 11.4942 7.03627 16.5739C6.1977 17.4657 5.34212 18.4625 4.51559 19.5619C1.96337 16.2624 0.248047 12.9632 0.248047 9.66369C0.248047 6.10616 3.1797 3.21875 6.79175 3.21875C10.0638 3.21875 11.6994 4.83009 13.3355 8.05236ZM26.3926 9.04263C26.4125 9.24706 26.4229 9.45395 26.4229 9.66369C26.4229 16.1086 19.8792 22.5536 13.3355 28.9985C12.2383 27.9179 11.1411 26.8373 10.075 25.7566C11.5923 21.7653 14.0877 18.7642 16.8632 15.9402C17.4527 15.3404 18.1825 14.5132 18.8804 14.0013C21.6763 11.9517 23.8213 10.371 26.3926 9.04263ZM8.07035 23.6784C7.39328 22.9567 6.73903 22.2355 6.11592 21.5138C8.34019 18.1988 11.2914 15.0987 13.5405 13.55C16.1808 11.7313 20.3773 9.1935 23.59 8.64194C21.3849 10.2398 19.9082 10.257 15.4908 14.0525C14.6128 14.8064 14.0312 15.5105 13.2213 16.2554C12.692 16.7424 11.7061 18.0135 11.1847 18.7057C10.1664 20.0583 9.00274 21.8491 8.07035 23.6784Z" fill="#070602"/>
<path fill-rule="evenodd" clip-rule="evenodd" d="M31.7514 6.86792C32.4513 7.02083 33.1625 7.31767 33.9118 7.77642C36.9796 9.65434 37.9215 13.631 36.0148 16.6525C32.5601 22.126 23.548 24.1973 14.536 26.2686C14.0532 24.2312 13.5708 22.1938 13.1552 20.1977C14.2769 18.6796 15.5385 17.2903 16.8644 15.9419C17.4539 15.3421 18.1837 14.5149 18.8815 14.003C23.3645 10.7162 26.175 8.63504 31.7514 6.86792ZM12.5483 16.9861C12.4134 16.1737 12.2963 15.3727 12.2025 14.5861C12.6675 14.1923 13.1175 13.844 13.5417 13.5512C16.182 11.7326 20.3785 9.19477 23.5912 8.64321C21.386 10.2411 19.9094 10.2582 15.492 14.0537C14.614 14.8077 14.0324 15.5117 13.2225 16.2567C13.0394 16.4247 12.8024 16.6868 12.5483 16.9861ZM11.9999 12.3426C11.789 8.74952 12.2079 5.54115 13.7846 3.04258C15.6917 0.0210612 19.7288 -0.906654 22.7967 0.971264C24.9703 2.30212 25.7657 3.95026 25.847 6.32168C20.7995 7.61369 16.052 9.55825 11.9999 12.3422V12.3426Z" fill="#FFA900"/>
</g>
<defs>
<clipPath id="clip0_2365_8518">
<rect width="37" height="29" fill="white"/>
</clipPath>
</defs>
</svg>
