<svg width="19" height="18" viewBox="0 0 19 18" fill="none" xmlns="http://www.w3.org/2000/svg">
<path d="M5.2526 7.16675L9.83594 1.66675L14.4193 7.16675M18.0859 7.16675L16.2526 14.5001C16.1669 15.0255 15.9365 15.4967 15.6015 15.8317C15.2665 16.1667 14.8482 16.3442 14.4193 16.3334H5.2526C4.8237 16.3442 4.40535 16.1667 4.07037 15.8317C3.73538 15.4967 3.50498 15.0255 3.41927 14.5001L1.58594 7.16675H18.0859ZM8.0026 11.7501C8.0026 12.2363 8.19576 12.7026 8.53958 13.0464C8.88339 13.3903 9.34971 13.5834 9.83594 13.5834C10.3222 13.5834 10.7885 13.3903 11.1323 13.0464C11.4761 12.7026 11.6693 12.2363 11.6693 11.7501C11.6693 11.2639 11.4761 10.7975 11.1323 10.4537C10.7885 10.1099 10.3222 9.91675 9.83594 9.91675C9.34971 9.91675 8.88339 10.1099 8.53958 10.4537C8.19576 10.7975 8.0026 11.2639 8.0026 11.7501Z" stroke="#36454F" stroke-width="1.75" stroke-linecap="round" stroke-linejoin="round"/>
</svg>
