<svg width="19" height="16" viewBox="0 0 19 16" fill="none" xmlns="http://www.w3.org/2000/svg">
<path d="M9.83594 5.95117C9.44035 5.59696 8.95068 5.36486 8.42605 5.28289C7.90142 5.20091 7.36429 5.27258 6.8795 5.48923C6.39472 5.70587 5.98302 6.05824 5.69413 6.50376C5.40524 6.94929 5.25151 7.46893 5.25151 7.99992C5.25151 8.53091 5.40524 9.05055 5.69413 9.49608C5.98302 9.9416 6.39472 10.294 6.8795 10.5106C7.36429 10.7273 7.90142 10.7989 8.42605 10.717C8.95068 10.635 9.44035 10.4029 9.83594 10.0487M8.91927 7.99992C8.91927 8.36105 8.9904 8.71865 9.1286 9.0523C9.2668 9.38594 9.46937 9.6891 9.72473 9.94446C9.98009 10.1998 10.2832 10.4024 10.6169 10.5406C10.9505 10.6788 11.3081 10.7499 11.6693 10.7499C12.0304 10.7499 12.388 10.6788 12.7217 10.5406C13.0553 10.4024 13.3585 10.1998 13.6138 9.94446C13.8692 9.6891 14.0717 9.38594 14.2099 9.0523C14.3481 8.71865 14.4193 8.36105 14.4193 7.99992C14.4193 7.63878 14.3481 7.28118 14.2099 6.94754C14.0717 6.61389 13.8692 6.31074 13.6138 6.05537C13.3585 5.80001 13.0553 5.59745 12.7217 5.45925C12.388 5.32105 12.0304 5.24992 11.6693 5.24992C11.3081 5.24992 10.9505 5.32105 10.6169 5.45925C10.2832 5.59745 9.98009 5.80001 9.72473 6.05537C9.46937 6.31074 9.2668 6.61389 9.1286 6.94754C8.9904 7.28118 8.91927 7.63878 8.91927 7.99992ZM1.58594 3.41659C1.58594 2.93035 1.77909 2.46404 2.12291 2.12022C2.46673 1.77641 2.93304 1.58325 3.41927 1.58325H16.2526C16.7388 1.58325 17.2051 1.77641 17.549 2.12022C17.8928 2.46404 18.0859 2.93035 18.0859 3.41659V12.5833C18.0859 13.0695 17.8928 13.5358 17.549 13.8796C17.2051 14.2234 16.7388 14.4166 16.2526 14.4166H3.41927C2.93304 14.4166 2.46673 14.2234 2.12291 13.8796C1.77909 13.5358 1.58594 13.0695 1.58594 12.5833V3.41659Z" stroke="#354052" stroke-width="1.75" stroke-linecap="round" stroke-linejoin="round"/>
</svg>
