<svg width="140" height="145" viewBox="0 0 140 145" fill="none" xmlns="http://www.w3.org/2000/svg">
<path fill-rule="evenodd" clip-rule="evenodd" d="M61.5236 0.369284C92.8634 -2.45295 126.817 10.8887 136.78 40.8318C146.93 71.3348 127.234 101.391 101.53 120.605C74.5898 140.744 37.2335 156.119 11.428 134.536C-12.1082 114.852 8.09849 80.2398 18.8474 51.452C27.4359 28.4499 37.1378 2.56529 61.5236 0.369284Z" fill="#FFF3E1"/>
<path d="M86.5018 56.3614C89.2655 55.924 90.683 54.5794 91.621 52.9189C92.3062 51.7055 92.5654 49.5963 92.256 48.0411C92.0858 47.1694 91.7825 46.3291 91.3569 45.5495C91.8429 44.2827 91.5351 42.8652 90.9146 41.6502C90.1225 40.0998 88.6159 38.9496 86.795 39.191C86.5001 39.2299 86.7156 39.515 86.957 39.6219C89.0452 40.5696 89.6867 42.1524 89.873 43.7448C89.7278 43.6279 89.5758 43.5197 89.4178 43.4208C87.9274 42.4715 85.5087 42.2382 83.8741 42.9105C82.2395 43.5828 81.9755 45.198 83.1062 46.4875C84.6323 48.229 87.4802 48.6956 89.489 47.6053C89.7122 48.3394 89.8033 49.1073 89.758 49.8733C89.6689 51.3167 88.9139 52.603 87.5175 53.4486C87.0445 53.7354 85.9753 53.9735 85.4228 53.9346C84.4703 53.8569 84.1382 53.8083 83.2909 53.4486C82.9005 53.2866 82.5117 53.5896 82.3837 53.9606C81.6207 56.1832 85.0146 56.5979 86.5018 56.3614ZM88.7017 45.9772C87.8917 46.4049 86.7124 46.6252 85.8586 46.2882C85.3078 46.076 84.8866 45.8622 84.6047 45.4928C84.1187 44.8448 84.8089 44.5305 85.5767 44.5354C86.8322 44.5419 87.9403 44.9841 88.7017 45.9772Z" fill="#E4572E"/>
<path opacity="0.2" d="M91.3536 45.5496C91.6789 46.1442 91.9318 46.7756 92.1069 47.4304C91.339 48.438 90.2147 48.7685 89.7417 48.8673C89.7006 48.4373 89.6171 48.0124 89.4922 47.5989C90.6942 46.9039 91.0182 46.285 91.3536 45.5496Z" fill="black"/>
<path opacity="0.2" d="M88.7014 45.9772C88.6077 45.8549 88.5066 45.7386 88.3984 45.6289C88.7457 45.4299 89.0537 45.1691 89.3073 44.8594C89.8435 44.2228 89.8791 43.7449 89.8791 43.7449C89.9245 44.5241 89.3947 45.5949 88.7014 45.9772Z" fill="black"/>
<path d="M65.2668 90.1238C65.2668 90.1076 65.2668 90.0914 65.2668 90.0768L65.2587 90.0266C65.0967 88.925 65.7447 87.7861 67.2027 86.9259C69.8433 85.3626 74.1541 85.3156 76.8287 86.8222C78.2997 87.6501 78.9687 88.7662 78.8343 89.8808V89.931C78.8343 89.9456 81.6563 89.5341 81.6563 89.5341L81.0083 90.2259C79.2812 92.0815 78.1558 94.416 77.7797 96.9229L77.4216 99.3157V99.34C77.3082 100.014 76.8093 100.673 75.9215 101.2C73.8657 102.415 70.514 102.452 68.4339 101.279C67.5348 100.774 67.0212 100.126 66.8933 99.4534V99.4356C66.8933 99.4356 66.8933 99.4242 66.8933 99.4177L65.2668 90.1238Z" fill="#E4572E"/>
<path opacity="0.1" d="M65.2668 90.1238C65.2668 90.1076 65.2668 90.0914 65.2668 90.0768L65.2587 90.0266C65.0967 88.925 65.7447 87.7861 67.2027 86.9259C69.8433 85.3626 74.1541 85.3156 76.8287 86.8222C78.2997 87.6501 78.9687 88.7662 78.8343 89.8808V89.931C78.8343 89.9456 81.6563 89.5341 81.6563 89.5341L81.0083 90.2259C79.2812 92.0815 78.1558 94.416 77.7797 96.9229L77.4216 99.3157V99.34C77.3082 100.014 76.8093 100.673 75.9215 101.2C73.8657 102.415 70.514 102.452 68.4339 101.279C67.5348 100.774 67.0212 100.126 66.8933 99.4534V99.4356C66.8933 99.4356 66.8933 99.4242 66.8933 99.4177L65.2668 90.1238Z" fill="white"/>
<path d="M79.4088 81.75C79.4088 81.7338 79.4088 81.7176 79.4007 81.703L79.391 81.6528C79.229 80.5512 79.8964 79.4447 81.335 78.5521C82.3491 77.9203 87.653 77.8636 90.731 77.8296C92.5551 77.8101 93.5562 77.6157 93.4218 78.7206V78.7708C93.4218 78.7854 95.4241 76.2517 95.4241 76.2517C93.8663 79.4105 92.8004 82.7889 92.2635 86.2698L91.5588 90.9419V90.9662C91.4438 91.6401 90.9448 92.2994 90.0571 92.8259C88.0029 94.0409 84.6511 94.0782 82.5694 92.9053C81.6719 92.3999 81.1584 91.7519 81.0288 91.0796V91.0617C81.0288 91.0617 81.0288 91.0504 81.0288 91.0439L79.4088 81.75Z" fill="#E4572E"/>
<path d="M63.6261 84.8217C63.6261 84.8055 63.6261 84.7909 63.6261 84.7747L63.6342 84.7245C63.7687 83.6196 63.0818 82.5277 61.6303 81.6659C60.6032 81.0568 55.2977 81.1151 52.2343 81.1475C50.4102 81.1669 49.4058 80.9936 49.5629 82.0968V82.147C49.5629 82.1616 49.5629 82.1762 49.5629 82.1908L51.6689 94.2744V94.2987C51.7985 94.971 52.3169 95.619 53.2095 96.1244C55.2896 97.2957 58.643 97.2584 60.6972 96.0434C61.5849 95.5185 62.0839 94.8592 62.1989 94.1853V94.1658C62.1989 94.1658 62.1989 94.1545 62.1989 94.1496L63.6261 84.8217Z" fill="#E4572E"/>
<path d="M63.6261 84.8217C63.6261 84.8055 63.6261 84.7909 63.6261 84.7747L63.6342 84.7245C63.7687 83.6196 63.0818 82.5277 61.6303 81.6659C60.6032 81.0568 55.2977 81.1151 52.2343 81.1475C50.4102 81.1669 49.4058 80.9936 49.5629 82.0968V82.147C49.5629 82.1616 49.5629 82.1762 49.5629 82.1908L51.6689 94.2744V94.2987C51.7985 94.971 52.3169 95.619 53.2095 96.1244C55.2896 97.2957 58.643 97.2584 60.6972 96.0434C61.5849 95.5185 62.0839 94.8592 62.1989 94.1853V94.1658C62.1989 94.1658 62.1989 94.1545 62.1989 94.1496L63.6261 84.8217Z" fill="#E4572E"/>
<path d="M63.9626 50.0175C66.9644 48.6794 71.0582 48.1254 74.5687 48.0865C80.3226 48.0243 85.8655 50.2503 89.9781 54.2748C94.0908 58.2993 96.4363 63.7928 96.4987 69.5466C96.5845 77.5186 92.4179 84.9966 86.5276 89.5342C83.6942 91.7163 79.5324 93.9649 76.9372 95.0195C72.5129 96.8145 69.7249 97.0072 65.7187 97.051C62.8697 97.0818 60.0426 96.5511 57.3988 95.4893C54.7549 94.4275 52.3461 92.8553 50.3098 90.8625C48.2736 88.8698 46.6498 86.4954 45.5312 83.8751C44.4126 81.2548 43.821 78.4398 43.7903 75.5908C43.7304 70.0909 45.7716 65.1985 49.0327 61.283C50.3821 59.663 52.5351 57.1779 54.2393 55.9192C57.5636 53.4665 60.6286 51.5047 63.9626 50.0175Z" fill="#E4572E"/>
<path opacity="0.3" d="M63.9626 50.0175C66.9644 48.6794 71.0582 48.1254 74.5687 48.0865C80.3226 48.0243 85.8655 50.2503 89.9781 54.2748C94.0908 58.2993 96.4363 63.7928 96.4987 69.5466C96.5845 77.5186 92.4179 84.9966 86.5276 89.5342C83.6942 91.7163 79.5324 93.9649 76.9372 95.0195C72.5129 96.8145 69.7249 97.0072 65.7187 97.051C62.8697 97.0818 60.0426 96.5511 57.3988 95.4893C54.7549 94.4275 52.3461 92.8553 50.3098 90.8625C48.2736 88.8698 46.6498 86.4954 45.5312 83.8751C44.4126 81.2548 43.821 78.4398 43.7903 75.5908C43.7304 70.0909 45.7716 65.1985 49.0327 61.283C50.3821 59.663 52.5351 57.1779 54.2393 55.9192C57.5636 53.4665 60.6286 51.5047 63.9626 50.0175Z" fill="white"/>
<path opacity="0.5" d="M65.8157 88.0696C68.005 88.0696 69.7798 86.2948 69.7798 84.1055C69.7798 81.9162 68.005 80.1414 65.8157 80.1414C63.6264 80.1414 61.8516 81.9162 61.8516 84.1055C61.8516 86.2948 63.6264 88.0696 65.8157 88.0696Z" fill="#E4572E"/>
<path opacity="0.5" d="M46.559 74.17C46.5588 73.4265 46.3495 72.6981 45.9551 72.0678C45.5606 71.4376 44.9969 70.9311 44.3283 70.606C43.952 72.2409 43.7715 73.9148 43.7904 75.5923C43.7969 76.3633 43.8445 77.1333 43.933 77.8992C44.7013 77.6234 45.3658 77.1173 45.8357 76.4499C46.3057 75.7824 46.5583 74.9863 46.559 74.17Z" fill="#E4572E"/>
<path opacity="0.3" d="M83.2621 85.1649C91.5581 78.3042 96.4278 63.2657 89.627 53.9426C91.769 55.9428 93.4822 58.3573 94.663 61.0396C95.8437 63.7218 96.4673 66.616 96.4958 69.5465C96.5817 77.5185 92.4151 84.9964 86.5247 89.534C83.6914 91.7162 79.5296 93.9647 76.9343 95.0193C72.5101 96.8143 69.7221 97.0071 65.7158 97.0508C62.703 97.0866 59.7159 96.4928 56.9458 95.3075C54.1757 94.1222 51.6837 92.3715 49.6292 90.1674C49.5596 90.0913 49.4899 90.0168 49.4219 89.9406C61.6901 98.5704 74.9612 92.024 83.2621 85.1649Z" fill="#E4572E"/>
<path d="M60.3569 57.847L57.0278 59.8186C53.6679 58.8871 49.6682 59.5189 47.1539 63.8686C47.1539 63.8686 46.1706 53.7484 47.4326 50.9345C47.4326 50.9345 48.1227 50.5279 48.4046 50.361C48.8258 50.1083 49.5094 50.0273 50.3275 50.1601C54.465 50.8405 58.2363 54.2377 60.3569 57.847Z" fill="#E4572E"/>
<path d="M57.0276 59.8185C52.6779 58.7509 49.386 60.1425 47.1537 63.8685C47.1537 63.8685 43.1911 49.3501 49.3909 50.7109C53.5899 51.6343 57.0276 59.8185 57.0276 59.8185Z" fill="#E4572E"/>
<path opacity="0.2" d="M57.0276 59.8185C52.6779 58.7509 49.386 60.1425 47.1537 63.8685C47.1537 63.8685 43.1911 49.3501 49.3909 50.7109C53.5899 51.6343 57.0276 59.8185 57.0276 59.8185Z" fill="white"/>
<path opacity="0.5" d="M50.7353 58.435C54.7513 56.9122 57.0323 59.8185 57.0323 59.8185C52.6826 58.7509 49.3907 60.1425 47.1584 63.8685C47.1503 63.8701 46.7113 59.9578 50.7353 58.435Z" fill="#E4572E"/>
<path d="M63.7656 63.6142C67.4722 66.9141 70.8142 71.1164 73.2977 77.4376L76.4923 75.5633C77.683 74.3305 80.7043 63.9155 74.6229 60.1117C70.5567 57.5716 63.7656 63.6142 63.7656 63.6142Z" fill="#E4572E"/>
<path d="M63.7656 63.6141C68.1396 67.4632 71.2306 72.1288 73.2977 77.4376C73.2977 77.4376 79.9105 65.7007 73.7837 60.6042C70.2051 57.6282 63.7656 63.6141 63.7656 63.6141Z" fill="#E4572E"/>
<path opacity="0.2" d="M63.7656 63.6141C68.1396 67.4632 71.2306 72.1288 73.2977 77.4376C73.2977 77.4376 79.9105 65.7007 73.7837 60.6042C70.2051 57.6282 63.7656 63.6141 63.7656 63.6141Z" fill="white"/>
<path opacity="0.5" d="M63.7656 63.614C63.7656 63.614 67.4527 63.5735 70.6782 67.8908C73.693 71.9295 73.2977 77.4375 73.2977 77.4375C71.2306 72.1287 68.1461 67.4631 63.7656 63.614Z" fill="#E4572E"/>
<path d="M47.8203 74.6852C49.1163 73.9238 50.9518 74.0372 53.0043 75.1891C56.962 77.4166 60.2052 82.6848 60.2522 86.9584C60.2733 88.9979 59.5621 90.4397 58.3827 91.1493C57.8141 91.4911 55.585 92.813 55.0099 93.1468C53.7139 93.8952 51.8865 93.7818 49.8437 92.6316C45.886 90.4041 42.6363 85.1358 42.5942 80.8623C42.5731 78.8178 43.2843 77.3825 44.4604 76.673C45.0307 76.3295 47.2517 75.0189 47.8203 74.6852Z" fill="#E4572E"/>
<path opacity="0.2" d="M44.4604 76.673C45.0307 76.3295 47.2517 75.0189 47.8171 74.6852C49.1131 73.9238 50.9485 74.0372 53.0011 75.1891C54.6502 76.1173 56.1747 77.5753 57.3961 79.2682L44.4183 86.9486C43.3038 84.9739 42.6153 82.8111 42.5942 80.8623C42.5731 78.8178 43.2843 77.3825 44.4604 76.673Z" fill="white"/>
<path opacity="0.1" d="M59.4879 83.132L47.056 90.4544C46.0282 89.4062 45.1426 88.2276 44.4219 86.9487L57.3997 79.2683C58.2652 80.4571 58.9675 81.7566 59.4879 83.132Z" fill="white"/>
<path d="M49.6737 77.1588C45.7177 74.9313 42.5457 76.5886 42.5943 80.8622C42.6429 85.1357 45.8861 90.404 49.8422 92.6315C53.7982 94.859 56.9702 93.2001 56.9216 88.9281C56.873 84.6562 53.6314 79.3863 49.6737 77.1588Z" fill="#E4572E"/>
<path d="M49.6737 77.1588C45.7177 74.9313 42.5457 76.5886 42.5943 80.8622C42.6429 85.1357 45.8861 90.404 49.8422 92.6315C53.7982 94.859 56.9702 93.2001 56.9216 88.9281C56.873 84.6562 53.6314 79.3863 49.6737 77.1588Z" fill="#E4572E"/>
<path opacity="0.3" d="M49.6737 77.1588C45.7177 74.9313 42.5457 76.5886 42.5943 80.8622C42.6429 85.1357 45.8861 90.404 49.8422 92.6315C53.7982 94.859 56.9702 93.2001 56.9216 88.9281C56.873 84.6562 53.6314 79.3863 49.6737 77.1588Z" fill="white"/>
<path d="M52.3125 89.1049C52.7985 89.377 53.1808 89.0789 53.1743 88.439L53.1387 85.1796C53.1387 84.5397 52.7353 83.801 52.2525 83.5288C51.7665 83.2583 51.3842 83.5564 51.3907 84.1946L51.4263 87.4557C51.4328 88.094 51.8297 88.8327 52.3125 89.1049Z" fill="#E4572E"/>
<path d="M53.1388 85.1795L53.1744 88.4389C53.177 88.5673 53.1589 88.6953 53.121 88.818C53.0541 88.7998 52.9899 88.7731 52.9298 88.7386C52.4438 88.4664 52.0502 87.7293 52.0437 87.0894L52.008 83.83C52.0055 83.7016 52.0235 83.5736 52.0615 83.4509C52.1281 83.4693 52.1922 83.4954 52.2527 83.5287C52.7354 83.8008 53.1323 84.5396 53.1388 85.1795Z" fill="#E4572E"/>
<path opacity="0.15" d="M53.1388 85.1795L53.1744 88.4389C53.177 88.5673 53.1589 88.6953 53.121 88.818C53.0541 88.7998 52.9899 88.7731 52.9298 88.7386C52.4438 88.4664 52.0502 87.7293 52.0437 87.0894L52.008 83.83C52.0055 83.7016 52.0235 83.5736 52.0615 83.4509C52.1281 83.4693 52.1922 83.4954 52.2527 83.5287C52.7354 83.8008 53.1323 84.5396 53.1388 85.1795Z" fill="black"/>
<path d="M47.264 86.2602C47.75 86.5323 48.1324 86.2342 48.1259 85.5943L48.0902 82.3349C48.0902 81.695 47.6869 80.9579 47.2041 80.6857C46.7181 80.4136 46.3358 80.7117 46.3439 81.3516L46.3779 84.611C46.386 85.2509 46.7829 85.9896 47.264 86.2602Z" fill="#E4572E"/>
<path d="M48.0909 82.3349L48.1266 85.5943C48.1299 85.7228 48.1119 85.8509 48.0731 85.9734C48.007 85.9553 47.9433 85.9292 47.8836 85.8956C47.3976 85.6235 47.0039 84.8848 46.9974 84.2449L46.9618 80.9854C46.9568 80.855 46.9738 80.7246 47.012 80.5999C47.0784 80.6178 47.1422 80.6445 47.2016 80.6792C47.6876 80.9579 48.0845 81.695 48.0909 82.3349Z" fill="#E4572E"/>
<path opacity="0.15" d="M48.0909 82.3349L48.1266 85.5943C48.1299 85.7228 48.1119 85.8509 48.0731 85.9734C48.007 85.9553 47.9433 85.9292 47.8836 85.8956C47.3976 85.6235 47.0039 84.8848 46.9974 84.2449L46.9618 80.9854C46.9568 80.855 46.9738 80.7246 47.012 80.5999C47.0784 80.6178 47.1422 80.6445 47.2016 80.6792C47.6876 80.9579 48.0845 81.695 48.0909 82.3349Z" fill="black"/>
<path opacity="0.3" d="M55.5282 92.0079C57.3005 89.5131 56.0871 84.3388 54.0572 81.217C55.7761 83.5903 56.8971 86.4286 56.9246 88.9282C56.97 93.2002 53.8013 94.8591 49.8452 92.6316C48.4907 91.8385 47.2847 90.8156 46.2812 89.6086C48.7955 92.5506 53.636 94.6728 55.5282 92.0079Z" fill="white"/>
<path d="M60.443 75.7528C60.2049 76.6471 61.1672 75.9456 62.063 76.1822C62.9589 76.4187 63.4449 77.5073 63.683 76.6131C63.7395 76.4003 63.7535 76.1785 63.7243 75.9604C63.6951 75.7422 63.6232 75.5319 63.5127 75.3416C63.4022 75.1512 63.2553 74.9845 63.0803 74.8509C62.9054 74.7173 62.7059 74.6194 62.4931 74.563C62.2804 74.5065 62.0586 74.4925 61.8404 74.5217C61.6223 74.5509 61.412 74.6228 61.2216 74.7333C61.0313 74.8438 60.8645 74.9907 60.7309 75.1656C60.5973 75.3406 60.4995 75.5401 60.443 75.7528Z" fill="#263238"/>
<path d="M48.3042 69.5839C47.7631 70.3339 48.9117 70.0229 49.6617 70.5656C50.4118 71.1083 50.4717 72.2957 51.0209 71.5376C51.2551 71.1765 51.3414 70.7392 51.2618 70.3163C51.1822 69.8934 50.943 69.5173 50.5936 69.2661C50.2442 69.0148 49.8115 68.9077 49.3853 68.9668C48.9591 69.026 48.5719 69.247 48.3042 69.5839Z" fill="#263238"/>
<path d="M66.1474 58.2502L73.6366 53.8163L71.9518 52.8669L64.4609 57.3009L66.1474 58.2502Z" fill="#E4572E"/>
<path opacity="0.2" d="M66.1474 58.2502L73.6366 53.8163L71.9518 52.8669L64.4609 57.3009L66.1474 58.2502Z" fill="black"/>
<path d="M71.9518 52.8669L71.9615 53.8341L65.305 57.7755L64.4609 57.3009L71.9518 52.8669Z" fill="#E4572E"/>
<path opacity="0.2" d="M71.9531 52.8669L71.9628 53.8341L72.8069 54.3104L73.6379 53.8163L71.9531 52.8669Z" fill="black"/>
<path d="M72.3518 41.5435L72.2093 47.228L65.6791 47.1568L65.4766 45.25L72.3518 41.5435Z" fill="#51886A"/>
<path d="M65.6824 47.1566L65.4782 45.2499C65.4782 45.2499 69.2528 45.1819 71.7962 42.5121C73.2899 40.9391 71.6245 40.5098 69.1006 41.1805C66.5766 41.8511 61.783 43.9652 62.0244 45.5707C62.2933 47.3899 65.6824 47.1566 65.6824 47.1566Z" fill="#277A52"/>
<path d="M66.1544 58.2438L65.2537 57.7368L62.0234 45.5706C62.1142 46.1376 63.9674 46.8536 65.8645 46.7775C71.076 46.5701 74.525 41.8818 74.525 41.8818L73.2581 54.0416L66.1544 58.2438Z" fill="#51886A"/>
<path d="M63.9062 52.6775C65.4145 53.1635 67.0491 52.7812 68.4309 54.0415C68.7512 54.3262 69.0054 54.6774 69.1758 55.0705C69.3463 55.4637 69.4287 55.8893 69.4175 56.3176L66.1516 58.2438L65.2509 57.7367L63.9062 52.6775Z" fill="#277A52"/>
<path d="M65.6762 48.2924C65.2923 48.3102 63.7322 48.3847 62.5156 47.4403L62.6501 47.9522C63.9752 48.7622 65.281 48.6391 65.6892 48.6196C68.7429 48.4981 71.215 47.0191 72.8318 45.7036L71.876 54.8663L72.2259 54.659L73.2416 44.926L72.929 45.1901C71.3657 46.5363 68.8385 48.1676 65.6762 48.2924Z" fill="#E0E0E0"/>
<path d="M62.0234 45.5706C62.0693 45.7142 62.1638 45.8374 62.2907 45.9189C62.4111 46.0081 62.5397 46.0856 62.6747 46.1505C62.9457 46.2782 63.2276 46.3812 63.5171 46.4583C64.095 46.6148 64.6893 46.7034 65.2877 46.7224C66.4849 46.7357 67.6739 46.5224 68.7918 46.0938C69.9106 45.6656 70.962 45.0785 71.9135 44.3507C72.3949 43.9932 72.8542 43.6069 73.2889 43.194C73.7285 42.7834 74.1413 42.3451 74.525 41.8818C73.8006 42.8493 72.9495 43.7151 71.9945 44.456C71.0416 45.2059 69.9803 45.8068 68.8469 46.238C67.7098 46.6691 66.4982 46.8695 65.2829 46.8277C64.6784 46.7984 64.0798 46.6945 63.5009 46.5183C63.2113 46.4316 62.9304 46.3183 62.6617 46.1797C62.5257 46.1103 62.397 46.0272 62.2778 45.9318C62.1544 45.8439 62.0646 45.7164 62.0234 45.5706Z" fill="#263238"/>
<path d="M70.852 48.6228C70.943 48.594 71.0392 48.5857 71.1338 48.5985C71.2067 48.6098 71.2754 48.64 71.3331 48.6859C71.3847 48.7292 71.4243 48.785 71.4481 48.8479C71.4738 48.9107 71.487 48.9778 71.487 49.0456C71.4879 49.0803 71.4777 49.1143 71.4578 49.1428C71.4422 49.1706 71.4193 49.1936 71.3914 49.2092L71.1565 49.3291C71.1444 49.3375 71.1306 49.3434 71.1161 49.3462C71.1016 49.3489 71.0867 49.3486 71.0723 49.3453C71.0518 49.3332 71.035 49.3159 71.0237 49.2951C71.0088 49.2677 70.9885 49.2437 70.964 49.2244C70.9394 49.2052 70.9113 49.1912 70.8811 49.1833C70.7755 49.1742 70.6699 49.2011 70.5814 49.2594C70.5239 49.2901 70.4696 49.3264 70.4194 49.368C70.3673 49.4095 70.3201 49.4568 70.2785 49.5089C70.2384 49.5582 70.2052 49.6127 70.1797 49.6709C70.1567 49.7221 70.143 49.7769 70.1392 49.8329C70.1321 49.8829 70.1424 49.9338 70.1683 49.9771C70.1825 49.993 70.2 50.0054 70.2196 50.0136C70.2393 50.0217 70.2605 50.0253 70.2817 50.0241C70.3515 50.0253 70.4212 50.0177 70.4891 50.0014L70.7969 49.9317C70.9059 49.9036 71.018 49.8894 71.1306 49.8896C71.2085 49.8891 71.2848 49.9123 71.3493 49.956C71.4084 49.9998 71.4494 50.0638 71.4643 50.1358C71.4872 50.2334 71.4949 50.334 71.487 50.4339C71.4812 50.5504 71.4588 50.6655 71.4206 50.7757C71.3807 50.8954 71.3263 51.0096 71.2586 51.1159C71.1887 51.2288 71.1072 51.3341 71.0156 51.4302C70.9175 51.5312 70.8089 51.6214 70.6916 51.6991L70.677 51.994C70.6743 52.0283 70.6637 52.0615 70.6462 52.0912C70.6311 52.1194 70.608 52.1425 70.5798 52.1576L70.3093 52.2969C70.3001 52.3036 70.289 52.3073 70.2777 52.3073C70.2663 52.3073 70.2552 52.3036 70.2461 52.2969C70.2372 52.2878 70.2305 52.2768 70.2266 52.2647C70.2227 52.2527 70.2216 52.2398 70.2234 52.2273L70.2396 51.9324C70.1497 51.962 70.0555 51.9762 69.961 51.9745C69.8829 51.9747 69.806 51.9552 69.7374 51.9178C69.6739 51.8794 69.6231 51.8231 69.5916 51.7558C69.553 51.6717 69.5352 51.5794 69.5398 51.4869C69.5388 51.4522 69.549 51.4182 69.5689 51.3897C69.585 51.3622 69.6078 51.3394 69.6353 51.3233L69.8702 51.2034C69.8826 51.1948 69.8966 51.1888 69.9114 51.1857C69.9261 51.1827 69.9413 51.1826 69.9561 51.1856C69.9672 51.1904 69.9771 51.1975 69.9852 51.2064C69.9933 51.2154 69.9994 51.2259 70.0031 51.2374C70.017 51.2675 70.0344 51.2957 70.0549 51.3217C70.0762 51.3485 70.1059 51.3673 70.1392 51.3751C70.1851 51.3849 70.2325 51.3849 70.2785 51.3751C70.3527 51.3584 70.4242 51.3312 70.4907 51.2941C70.5584 51.2596 70.6233 51.2201 70.6851 51.1759C70.7441 51.1319 70.7983 51.0819 70.8471 51.0268C70.8935 50.9744 70.9337 50.9168 70.967 50.8551C70.9977 50.7964 71.0154 50.7318 71.0188 50.6656C71.0226 50.6419 71.021 50.6178 71.0143 50.5948C71.0076 50.5718 70.9958 50.5506 70.9799 50.5327C70.9397 50.5051 70.8904 50.4941 70.8422 50.502C70.7641 50.508 70.6867 50.5205 70.6106 50.5392C70.5182 50.5619 70.4097 50.5846 70.2866 50.6073C70.1965 50.6253 70.1046 50.6329 70.0128 50.6299C69.941 50.6293 69.8715 50.6048 69.8152 50.5603C69.7595 50.5129 69.7208 50.4486 69.705 50.3772C69.6811 50.2737 69.6734 50.1672 69.6823 50.0613C69.688 49.946 69.7099 49.832 69.7471 49.7227C69.7872 49.61 69.8382 49.5015 69.8994 49.3987C69.9629 49.2911 70.0379 49.1906 70.123 49.099C70.2066 49.0067 70.2994 48.9231 70.4 48.8496L70.4146 48.5531C70.4168 48.5192 70.4274 48.4864 70.4453 48.4575C70.4602 48.4287 70.4833 48.405 70.5118 48.3895L70.7823 48.2518C70.7915 48.2451 70.8025 48.2415 70.8139 48.2415C70.8253 48.2415 70.8363 48.2451 70.8455 48.2518C70.8542 48.2606 70.8608 48.2714 70.8648 48.2832C70.8687 48.295 70.8699 48.3075 70.8682 48.3198L70.852 48.6228Z" fill="#E0E0E0"/>
<path d="M59.8933 44.6862C59.882 44.7228 59.8636 44.7568 59.8392 44.7862C59.8147 44.8156 59.7847 44.8399 59.7508 44.8577C59.7169 44.8755 59.6799 44.8864 59.6418 44.8897C59.6037 44.8931 59.5653 44.8889 59.5288 44.8774L56.838 44.0431C56.7641 44.0201 56.7023 43.9687 56.6663 43.9002C56.6303 43.8317 56.623 43.7517 56.646 43.6778C56.669 43.6039 56.7204 43.5422 56.7889 43.5062C56.8574 43.4702 56.9374 43.4628 57.0113 43.4858L59.7005 44.3217C59.7744 44.3445 59.8362 44.3957 59.8724 44.4641C59.9085 44.5324 59.916 44.6123 59.8933 44.6862Z" fill="#E0E0E0"/>
<path d="M59.4293 47.693C59.4111 47.7411 59.3803 47.7835 59.3401 47.8156C59.2999 47.8478 59.2519 47.8687 59.2009 47.876L56.4145 48.2924C56.3388 48.3021 56.2624 48.2817 56.2016 48.2356C56.1407 48.1896 56.1004 48.1215 56.0891 48.0461C56.0779 47.9706 56.0967 47.8937 56.1415 47.832C56.1862 47.7702 56.2534 47.7284 56.3287 47.7157L59.1151 47.3009C59.1655 47.2935 59.217 47.2995 59.2644 47.3182C59.3118 47.3369 59.3535 47.3677 59.3852 47.4075C59.417 47.4473 59.4378 47.4948 59.4456 47.5452C59.4533 47.5955 59.4477 47.6471 59.4293 47.6946V47.693Z" fill="#E0E0E0"/>
<path d="M63.5477 40.6281C63.5344 40.6907 63.5008 40.7473 63.4521 40.789C63.4034 40.8306 63.3424 40.8551 63.2784 40.8586C63.2144 40.8621 63.1511 40.8445 63.0982 40.8083C63.0452 40.7722 63.0057 40.7197 62.9856 40.6588L62.1059 37.9826C62.0842 37.9098 62.0918 37.8314 62.127 37.764C62.1622 37.6967 62.2224 37.6458 62.2946 37.6221C62.3668 37.5985 62.4454 37.604 62.5137 37.6374C62.5819 37.6708 62.6344 37.7296 62.66 37.8012L63.5331 40.4774C63.5516 40.5254 63.5567 40.5775 63.5477 40.6281Z" fill="#E0E0E0"/>
<path d="M61.3785 42.044C61.3688 42.0944 61.346 42.1413 61.3123 42.18C61.2787 42.2187 61.2353 42.2477 61.1867 42.2642C61.1381 42.2807 61.086 42.284 61.0358 42.2737C60.9855 42.2635 60.9388 42.2401 60.9006 42.206L58.7946 40.3332C58.7394 40.2812 58.7067 40.2097 58.7034 40.134C58.7001 40.0582 58.7264 39.9842 58.7767 39.9275C58.8271 39.8708 58.8975 39.836 58.9731 39.8304C59.0488 39.8248 59.1236 39.8488 59.1817 39.8975L61.2877 41.7702C61.3256 41.8038 61.3539 41.8468 61.3698 41.8949C61.3857 41.943 61.3887 41.9944 61.3785 42.044Z" fill="#E0E0E0"/>
</svg>
