<svg width="20" height="20" viewBox="0 0 20 20" fill="none" xmlns="http://www.w3.org/2000/svg">
<path d="M11.6641 15.0002V5.00016C11.6641 4.55814 11.4885 4.13421 11.1759 3.82165C10.8633 3.50909 10.4394 3.3335 9.9974 3.3335H3.33073C2.8887 3.3335 2.46478 3.50909 2.15222 3.82165C1.83966 4.13421 1.66406 4.55814 1.66406 5.00016V14.1668C1.66406 14.3878 1.75186 14.5998 1.90814 14.7561C2.06442 14.9124 2.27638 15.0002 2.4974 15.0002H4.16406" stroke="#CA8A04" stroke-width="2" stroke-linecap="round" stroke-linejoin="round"/>
<path d="M12.5 15H7.5" stroke="#CA8A04" stroke-width="2" stroke-linecap="round" stroke-linejoin="round"/>
<path d="M15.8307 14.9998H17.4974C17.7184 14.9998 17.9304 14.912 18.0867 14.7558C18.2429 14.5995 18.3307 14.3875 18.3307 14.1665V11.1248C18.3304 10.9357 18.2657 10.7523 18.1474 10.6048L15.2474 6.97984C15.1695 6.88224 15.0706 6.8034 14.9581 6.74917C14.8456 6.69493 14.7223 6.66668 14.5974 6.6665H11.6641" stroke="#CA8A04" stroke-width="2" stroke-linecap="round" stroke-linejoin="round"/>
<path d="M14.1667 16.6668C15.0871 16.6668 15.8333 15.9206 15.8333 15.0002C15.8333 14.0797 15.0871 13.3335 14.1667 13.3335C13.2462 13.3335 12.5 14.0797 12.5 15.0002C12.5 15.9206 13.2462 16.6668 14.1667 16.6668Z" stroke="#CA8A04" stroke-width="2" stroke-linecap="round" stroke-linejoin="round"/>
<path d="M5.83073 16.6668C6.7512 16.6668 7.4974 15.9206 7.4974 15.0002C7.4974 14.0797 6.7512 13.3335 5.83073 13.3335C4.91025 13.3335 4.16406 14.0797 4.16406 15.0002C4.16406 15.9206 4.91025 16.6668 5.83073 16.6668Z" stroke="#CA8A04" stroke-width="2" stroke-linecap="round" stroke-linejoin="round"/>
</svg>
