<svg width="140" height="145" viewBox="0 0 140 145" fill="none" xmlns="http://www.w3.org/2000/svg">
<path fill-rule="evenodd" clip-rule="evenodd" d="M61.5236 0.369284C92.8634 -2.45295 126.817 10.8887 136.78 40.8318C146.93 71.3348 127.234 101.391 101.53 120.605C74.5898 140.744 37.2335 156.119 11.428 134.536C-12.1082 114.852 8.09849 80.2398 18.8474 51.452C27.4359 28.4499 37.1378 2.56529 61.5236 0.369284Z" fill="#FFF3E1"/>
<g clip-path="url(#clip0_3198_12173)">
<path d="M25.8324 57.0696L26.9371 59.1454L29.0086 60.2525L26.9371 61.3596L25.8324 63.4355L24.7277 61.3596L22.6562 60.2525L24.7277 59.1454L25.8324 57.0696Z" fill="#FFA800"/>
</g>
<g clip-path="url(#clip1_3198_12173)">
<path d="M63.1158 8.14893L64.7729 11.2627L67.88 12.9234L64.7729 14.584L63.1158 17.6978L61.4587 14.584L58.3516 12.9234L61.4587 11.2627L63.1158 8.14893Z" fill="#E4572E"/>
</g>
<mask id="path-4-inside-1_3198_12173" fill="white">
<rect x="37.3438" y="35.3564" width="61.4723" height="74.2871" rx="0.872843"/>
</mask>
<rect x="37.3438" y="35.3564" width="61.4723" height="74.2871" rx="0.872843" fill="white"/>
<rect x="37.3438" y="35.3564" width="61.4723" height="74.2871" rx="0.872843" stroke="#E4572E" stroke-width="3" mask="url(#path-4-inside-1_3198_12173)"/>
<rect x="43.1328" y="40.9734" width="33.9906" height="4.34852" fill="#E7EAF1"/>
<rect x="43.1328" y="49.3079" width="33.9906" height="4.34852" fill="#E7EAF1"/>
<rect x="43.1328" y="57.6426" width="33.9906" height="4.34852" fill="#E7EAF1"/>
<rect x="43.1328" y="65.9773" width="50.2626" height="4.34852" fill="#E7EAF1"/>
<rect x="43.1328" y="74.312" width="50.2626" height="4.34852" fill="#E7EAF1"/>
<rect x="43.1328" y="82.6465" width="50.2626" height="4.34852" fill="#E7EAF1"/>
<rect x="43.1328" y="90.9812" width="50.2626" height="4.34852" fill="#E7EAF1"/>
<rect x="43.1328" y="99.3159" width="50.2626" height="4.34852" fill="#E7EAF1"/>
<path d="M82.8906 48.855H84.1261C84.1261 49.5399 84.9724 50.1233 85.9793 50.1233C86.9862 50.1233 87.8325 49.5399 87.8325 48.855C87.8325 48.1574 87.1901 47.9038 85.831 47.5677C84.5214 47.2316 82.8906 46.813 82.8906 45.0501C82.8906 43.9149 83.7987 42.951 85.0527 42.6276V41.2451H86.9059V42.6276C88.1599 42.951 89.068 43.9149 89.068 45.0501H87.8325C87.8325 44.3652 86.9862 43.7818 85.9793 43.7818C84.9724 43.7818 84.1261 44.3652 84.1261 45.0501C84.1261 45.7476 84.7685 46.0013 86.1276 46.3374C87.4372 46.6735 89.068 47.0921 89.068 48.855C89.068 49.9902 88.1599 50.9541 86.9059 51.2775V52.66H85.0527V51.2775C83.7987 50.9541 82.8906 49.9902 82.8906 48.855Z" fill="#D0D7E4"/>
<g clip-path="url(#clip2_3198_12173)">
<path d="M111.163 72.3962L111.992 73.9531L113.545 74.7835L111.992 75.6138L111.163 77.1707L110.335 75.6138L108.781 74.7835L110.335 73.9531L111.163 72.3962Z" fill="#E4572E"/>
</g>
<g clip-path="url(#clip3_3198_12173)">
<rect width="33.0529" height="15.1748" transform="matrix(0.945042 -0.326949 0.325701 0.945473 74.0859 95.1389)" fill="#FFF3E1"/>
<path d="M83.6499 108.472C84.4637 110.834 83.212 113.407 80.8586 114.221C78.5053 115.035 75.9361 113.784 75.1223 111.422C74.3086 109.059 75.5603 106.486 77.9136 105.672C80.267 104.858 82.8362 106.109 83.6499 108.472Z" fill="white" stroke="#E4572E" stroke-width="1.99414"/>
<path d="M77.4937 95.4193C78.3074 97.7815 77.0557 100.355 74.7024 101.169C72.3491 101.983 69.7798 100.732 68.9661 98.3695C68.1523 96.0073 69.404 93.434 71.7574 92.6199C74.1107 91.8057 76.6799 93.057 77.4937 95.4193Z" fill="white" stroke="#E4572E" stroke-width="1.99414"/>
</g>
<rect x="0.953057" y="0.463893" width="31.5529" height="13.6748" transform="matrix(0.945042 -0.326949 0.325701 0.945473 73.9872 95.4758)" stroke="#E4572E" stroke-width="1.5"/>
<g clip-path="url(#clip4_3198_12173)">
<rect width="29.5721" height="13.5807" transform="matrix(0.980207 -0.197977 0.197165 0.98037 77.0938 94.678)" fill="#FFF3E1"/>
<path d="M83.988 107.644C84.4289 109.836 83.0127 111.969 80.8292 112.41C78.6456 112.851 76.5157 111.434 76.0748 109.242C75.6339 107.05 77.0501 104.917 79.2336 104.476C81.4171 104.035 83.547 105.451 83.988 107.644Z" fill="white" stroke="#E4572E" stroke-width="1.7844"/>
<path d="M80.0817 95.3334C80.5227 97.5259 79.1064 99.6583 76.9229 100.099C74.7394 100.54 72.6095 99.1241 72.1685 96.9317C71.7276 94.7393 73.1438 92.6068 75.3274 92.1658C77.5109 91.7247 79.6408 93.141 80.0817 95.3334Z" fill="white" stroke="#E4572E" stroke-width="1.7844"/>
</g>
<rect x="0.883029" y="0.586795" width="28.0721" height="12.0807" transform="matrix(0.980207 -0.197977 0.197165 0.98037 76.9955 94.8643)" stroke="#E4572E" stroke-width="1.5"/>
<g clip-path="url(#clip5_3198_12173)">
<rect x="70.1562" y="94.4307" width="35.3499" height="16.2367" fill="#FFF3E1"/>
<rect width="36.8228" height="5.60906" transform="translate(70.1562 100.335)" fill="white"/>
<rect x="82.2344" y="97.0876" width="11.7833" height="11.8085" rx="5.89165" fill="white"/>
<path d="M86.1641 104.173H86.9496C86.9496 104.598 87.4877 104.96 88.1279 104.96C88.7682 104.96 89.3063 104.598 89.3063 104.173C89.3063 103.74 88.8978 103.582 88.0337 103.374C87.201 103.165 86.1641 102.905 86.1641 101.811C86.1641 101.107 86.7414 100.508 87.5388 100.308V99.4495H88.7171V100.308C89.5144 100.508 90.0918 101.107 90.0918 101.811H89.3063C89.3063 101.386 88.7682 101.024 88.1279 101.024C87.4877 101.024 86.9496 101.386 86.9496 101.811C86.9496 102.244 87.3581 102.402 88.2222 102.61C89.0549 102.819 90.0918 103.079 90.0918 104.173C90.0918 104.877 89.5144 105.476 88.7171 105.676V106.535H87.5388V105.676C86.7414 105.476 86.1641 104.877 86.1641 104.173Z" fill="#FFF3E1"/>
<path d="M75.1854 110.427C75.1854 113.101 73.023 115.265 70.3604 115.265C67.6978 115.265 65.5354 113.101 65.5354 110.427C65.5354 107.754 67.6978 105.59 70.3604 105.59C73.023 105.59 75.1854 107.754 75.1854 110.427Z" fill="white" stroke="#E4572E" stroke-width="2.13321"/>
<path d="M74.3339 95.9067C74.3339 98.5806 72.1715 100.744 69.5088 100.744C66.8462 100.744 64.6838 98.5806 64.6838 95.9067C64.6838 93.2328 66.8462 91.069 69.5088 91.069C72.1715 91.069 74.3339 93.2328 74.3339 95.9067Z" fill="white" stroke="#E4572E" stroke-width="2.13321"/>
<path d="M110.31 95.9067C110.31 98.5806 108.148 100.744 105.485 100.744C102.823 100.744 100.66 98.5806 100.66 95.9067C100.66 93.2328 102.823 91.069 105.485 91.069C108.148 91.069 110.31 93.2328 110.31 95.9067Z" fill="white" stroke="#E4572E" stroke-width="2.13321"/>
<path d="M110.162 110.427C110.162 113.101 108 115.265 105.337 115.265C102.674 115.265 100.512 113.101 100.512 110.427C100.512 107.754 102.674 105.59 105.337 105.59C108 105.59 110.162 107.754 110.162 110.427Z" fill="white" stroke="#E4572E" stroke-width="2.13321"/>
</g>
<rect x="70.9062" y="95.1807" width="33.8499" height="14.7367" stroke="#E4572E" stroke-width="1.5"/>
<defs>
<clipPath id="clip0_3198_12173">
<rect width="6.62849" height="6.64269" fill="white" transform="translate(22.5156 56.9312)"/>
</clipPath>
<clipPath id="clip1_3198_12173">
<rect width="9.94273" height="9.96403" fill="white" transform="translate(58.1406 7.94141)"/>
</clipPath>
<clipPath id="clip2_3198_12173">
<rect width="4.97137" height="4.98201" fill="white" transform="translate(108.68 72.2925)"/>
</clipPath>
<clipPath id="clip3_3198_12173">
<rect width="33.0529" height="15.1748" transform="matrix(0.945042 -0.326949 0.325701 0.945473 74.0859 95.1389)" fill="white"/>
</clipPath>
<clipPath id="clip4_3198_12173">
<rect width="29.5721" height="13.5807" transform="matrix(0.980207 -0.197977 0.197165 0.98037 77.0938 94.678)" fill="white"/>
</clipPath>
<clipPath id="clip5_3198_12173">
<rect x="70.1562" y="94.4307" width="35.3499" height="16.2367" fill="white"/>
</clipPath>
</defs>
</svg>
