<svg width="48" height="48" viewBox="0 0 48 48" fill="none" xmlns="http://www.w3.org/2000/svg">
<path d="M24 48C37.2548 48 48 37.2548 48 24C48 10.7452 37.2548 0 24 0C10.7452 0 0 10.7452 0 24C0 37.2548 10.7452 48 24 48Z" fill="#FFDD67"/>
<path d="M14.7969 23.6792C17.006 23.6792 18.7969 21.8883 18.7969 19.6792C18.7969 17.4701 17.006 15.6792 14.7969 15.6792C12.5877 15.6792 10.7969 17.4701 10.7969 19.6792C10.7969 21.8883 12.5877 23.6792 14.7969 23.6792Z" fill="#664E27"/>
<path d="M33.2031 23.6792C35.4123 23.6792 37.2031 21.8883 37.2031 19.6792C37.2031 17.4701 35.4123 15.6792 33.2031 15.6792C30.994 15.6792 29.2031 17.4701 29.2031 19.6792C29.2031 21.8883 30.994 23.6792 33.2031 23.6792Z" fill="#664E27"/>
<path d="M34.0744 30.6397C27.5944 35.1997 20.3944 35.1197 13.9144 30.6397C13.1144 30.0797 12.4744 31.0397 12.9544 31.9197C14.9544 35.1197 18.8744 38.0797 23.9944 38.0797C29.1144 38.0797 33.0344 35.1997 35.0344 31.9197C35.5144 31.0397 34.8744 30.0797 34.0744 30.6397Z" fill="#664E27"/>
</svg>
