<svg width="24" height="25" viewBox="0 0 24 25" fill="none" xmlns="http://www.w3.org/2000/svg">
<path d="M3 7.5H6M3 11.5H5M9.79999 8L12.782 11.28C13.047 11.5715 13.3668 11.808 13.7232 11.976C14.0796 12.1439 14.4656 12.24 14.8591 12.2588C15.2527 12.2775 15.6461 12.2186 16.0168 12.0853C16.3876 11.952 16.7285 11.747 17.02 11.482L20.3 8.5M9.01999 9.301L8.41999 15.301C8.39219 15.579 8.42295 15.8598 8.5103 16.1252C8.59765 16.3906 8.73965 16.6348 8.92714 16.842C9.11463 17.0492 9.34345 17.2148 9.59885 17.3281C9.85425 17.4414 10.1306 17.5 10.41 17.5H18.39C18.886 17.5 19.3642 17.3157 19.732 16.9829C20.0997 16.6501 20.3306 16.1925 20.38 15.699L20.98 9.699C21.0078 9.42097 20.977 9.14019 20.8897 8.87478C20.8023 8.60936 20.6603 8.36519 20.4728 8.15801C20.2854 7.95083 20.0565 7.78524 19.8011 7.67191C19.5457 7.55857 19.2694 7.50001 18.99 7.5H11.01C10.514 7.50002 10.0358 7.68432 9.66802 8.01712C9.30029 8.34993 9.06934 8.80749 9.01999 9.301Z" stroke="#00070C" stroke-width="1.25" stroke-linecap="round" stroke-linejoin="round"/>
</svg>
