<svg width="48" height="48" viewBox="0 0 48 48" fill="none" xmlns="http://www.w3.org/2000/svg">
<path d="M24 48C37.2548 48 48 37.2548 48 24C48 10.7452 37.2548 0 24 0C10.7452 0 0 10.7452 0 24C0 37.2548 10.7452 48 24 48Z" fill="#FFDD67"/>
<path d="M14.7969 24.4785C17.006 24.4785 18.7969 22.6877 18.7969 20.4785C18.7969 18.2694 17.006 16.4785 14.7969 16.4785C12.5877 16.4785 10.7969 18.2694 10.7969 20.4785C10.7969 22.6877 12.5877 24.4785 14.7969 24.4785Z" fill="#664E27"/>
<path d="M33.1953 24.4785C35.4045 24.4785 37.1953 22.6877 37.1953 20.4785C37.1953 18.2694 35.4045 16.4785 33.1953 16.4785C30.9862 16.4785 29.1953 18.2694 29.1953 20.4785C29.1953 22.6877 30.9862 24.4785 33.1953 24.4785Z" fill="#664E27"/>
<path d="M29.5181 36.7986H18.4781C17.2781 36.7986 17.2781 33.5986 18.4781 33.5986H29.4381C30.7181 33.5986 30.7181 36.7986 29.5181 36.7986Z" fill="#664E27"/>
</svg>
