<svg width="20" height="20" viewBox="0 0 20 20" fill="none" xmlns="http://www.w3.org/2000/svg">
<path d="M13.3307 17.5V15.8333C13.3307 14.9493 12.9795 14.1014 12.3544 13.4763C11.7293 12.8512 10.8815 12.5 9.9974 12.5H4.9974C4.11334 12.5 3.26549 12.8512 2.64037 13.4763C2.01525 14.1014 1.66406 14.9493 1.66406 15.8333V17.5" stroke="#EA580C" stroke-width="2" stroke-linecap="round" stroke-linejoin="round"/>
<path d="M13.3359 2.60645C14.0507 2.79175 14.6838 3.20917 15.1357 3.79316C15.5876 4.37716 15.8328 5.09469 15.8328 5.83311C15.8328 6.57154 15.5876 7.28906 15.1357 7.87306C14.6838 8.45706 14.0507 8.87447 13.3359 9.05978" stroke="#EA580C" stroke-width="2" stroke-linecap="round" stroke-linejoin="round"/>
<path d="M18.3359 17.5001V15.8334C18.3354 15.0948 18.0896 14.3774 17.6371 13.7937C17.1846 13.2099 16.551 12.793 15.8359 12.6084" stroke="#EA580C" stroke-width="2" stroke-linecap="round" stroke-linejoin="round"/>
<path d="M7.4974 9.16667C9.33835 9.16667 10.8307 7.67428 10.8307 5.83333C10.8307 3.99238 9.33835 2.5 7.4974 2.5C5.65645 2.5 4.16406 3.99238 4.16406 5.83333C4.16406 7.67428 5.65645 9.16667 7.4974 9.16667Z" stroke="#EA580C" stroke-width="2" stroke-linecap="round" stroke-linejoin="round"/>
</svg>
