<svg width="25" height="24" viewBox="0 0 25 24" fill="none" xmlns="http://www.w3.org/2000/svg">
<path d="M11.9062 0.00597512C14.0219 0.19546 16.086 0.768084 17.9877 1.69828C19.8894 2.62846 21.5852 3.89501 22.9885 5.4268C23.5599 6.05052 23.3995 6.99654 22.6995 7.48476L12.8293 14.369C11.7937 15.0913 10.3418 14.3811 10.3418 13.1522V1.44007C10.3418 0.609432 11.0447 -0.0711834 11.9062 0.00597512Z" fill="#FFCB07"/>
<path d="M20.8333 14.6C20.8333 9.40859 16.4494 5.20008 11.0416 5.20008C5.63386 5.20008 1.25 9.40859 1.25 14.6C1.25 19.7915 5.63386 24 11.0416 24C16.4494 24 20.8333 19.7915 20.8333 14.6Z" fill="#E4572E"/>
<path d="M19.4375 9.76005L12.8293 14.3691C11.7937 15.0914 10.3418 14.3812 10.3418 13.1523V5.22385C10.573 5.20817 10.8065 5.2002 11.0419 5.2002C14.6056 5.2002 17.7247 7.02783 19.4375 9.76005Z" fill="#D53405"/>
</svg>
