<svg width="27" height="26" viewBox="0 0 27 26" fill="none" xmlns="http://www.w3.org/2000/svg">
<g clip-path="url(#clip0_5031_15184)">
<mask id="mask0_5031_15184" style="mask-type:luminance" maskUnits="userSpaceOnUse" x="0" y="0" width="27" height="26">
<path d="M27 0.5V25.5H0V0.5L27 0.5Z" fill="white"/>
</mask>
<g mask="url(#mask0_5031_15184)">
<path d="M26.7969 13.3191C26.7969 13.9441 26.4121 14.5191 25.8046 14.7941L14.7211 19.9316L3.03685 25.3379C2.80171 25.4475 2.54327 25.5074 2.28012 25.5135C2.01696 25.5196 1.75562 25.4716 1.51488 25.373C1.27415 25.2744 1.05999 25.1276 0.887817 24.9432C0.715641 24.7588 0.589718 24.5414 0.519102 24.3066L0.4921 24.2004C0.471851 24.1254 0.465101 24.0504 0.458351 23.9754V23.8629L2.7061 13.3129L14.7211 6.71289L25.8046 11.8379C26.1039 11.9749 26.3556 12.187 26.531 12.45C26.7064 12.7129 26.7985 13.0163 26.7969 13.3254V13.3191Z" fill="#E4572E"/>
<path d="M26.7969 13.3189C26.7969 13.9439 26.4121 14.5189 25.8046 14.7939L14.7211 19.9314L2.71285 13.3127L0.451599 2.78144C0.450047 2.49892 0.526867 2.22077 0.674698 1.97362C0.822531 1.72648 1.03642 1.51862 1.29589 1.36995C1.55535 1.22129 1.85169 1.13681 2.15653 1.12459C2.46137 1.11237 2.76449 1.17284 3.03685 1.30019L14.7144 6.71269L25.8046 11.8377C26.1039 11.9747 26.3556 12.1868 26.531 12.4498C26.7064 12.7127 26.7985 13.0161 26.7969 13.3252V13.3189Z" fill="#E4572E"/>
<path d="M26.7969 13.3191C26.7969 13.9441 26.4121 14.5191 25.8046 14.7941L14.7211 19.9316L2.71287 13.3129L14.7211 6.71289L25.8046 11.8379C26.0861 11.966 26.326 12.1606 26.5002 12.402C26.6744 12.6434 26.7768 12.9231 26.7969 13.2129V13.3254V13.3191Z" fill="#FFD22B"/>
</g>
</g>
<defs>
<clipPath id="clip0_5031_15184">
<rect width="25" height="27" fill="white" transform="matrix(0 1 -1 0 27 0.5)"/>
</clipPath>
</defs>
</svg>
