<svg width="27" height="24" viewBox="0 0 27 24" fill="none" xmlns="http://www.w3.org/2000/svg">
<path d="M16.5064 2.4416C16.5067 2.17095 16.4125 1.90634 16.2359 1.68136C16.0593 1.45639 15.8081 1.2812 15.5144 1.17804C15.2207 1.07488 14.8976 1.0484 14.5861 1.10196C14.2747 1.15553 13.9889 1.28672 13.7652 1.47888L2.41562 11.1334C2.18954 11.3244 2.03535 11.5684 1.97272 11.8344C1.91009 12.1003 1.94185 12.3761 2.06395 12.6266C2.18605 12.8771 2.39296 13.091 2.65829 13.2409C2.92363 13.3909 3.23538 13.4701 3.55378 13.4685H6.75989L16.5064 5.17273V2.4416Z" fill="#FFCB09"/>
<path d="M22.7903 5.17261H16.5063V12.1028C16.5063 12.465 16.3374 12.8123 16.0368 13.0684C15.7362 13.3245 15.3284 13.4684 14.9032 13.4684H6.75977V21.5593C6.75977 21.9215 6.92865 22.2689 7.2293 22.5249C7.52994 22.781 7.93764 22.9249 8.36282 22.9249H22.7903C23.2155 22.9249 23.6232 22.781 23.9238 22.5249C24.2244 22.2689 24.3933 21.9215 24.3933 21.5593V6.53815C24.3933 6.176 24.2244 5.82867 23.9238 5.57257C23.6232 5.31648 23.2155 5.17261 22.7903 5.17261Z" fill="#E4572E"/>
<path d="M16.5063 12.1028V5.17261L6.75977 13.4684H14.9032C15.3284 13.4684 15.7362 13.3245 16.0368 13.0684C16.3374 12.8123 16.5063 12.465 16.5063 12.1028Z" fill="#D53405"/>
</svg>
