<svg width="24" height="26" viewBox="0 0 24 26" fill="none" xmlns="http://www.w3.org/2000/svg">
<path d="M7.5 9.15789H6.7496C3 9.15789 0 12.5549 0 16.4576C0 20.3604 3 23.7582 6.7504 23.7582H15C15.828 23.7582 16.5 23.0696 16.5 22.2212V16.8413H9C8.60218 16.8413 8.22064 16.6793 7.93934 16.3911C7.65803 16.1028 7.5 15.7119 7.5 15.3043V9.15625V9.15789Z" fill="#E4572E"/>
<path d="M16.5 10.6946C16.5 9.84531 15.828 9.15674 15 9.15674H7.5V15.3047C7.5 16.154 8.172 16.8417 9 16.8417H16.5V10.6946Z" fill="#EFBE09"/>
<path d="M7.5 3.77772C7.5 2.92848 8.172 2.24072 9 2.24072H17.2504C21 2.24072 24 5.63852 24 9.54128C24 13.4449 21 16.8418 17.2496 16.8418H16.5V10.6938C16.5 9.8454 15.828 9.15764 15 9.15764H7.5V3.77772Z" fill="#FFCB07"/>
</svg>
