<svg width="48" height="48" viewBox="0 0 48 48" fill="none" xmlns="http://www.w3.org/2000/svg">
<path d="M24 48C37.2548 48 48 37.2548 48 24C48 10.7452 37.2548 0 24 0C10.7452 0 0 10.7452 0 24C0 37.2548 10.7452 48 24 48Z" fill="#FFDD67"/>
<path d="M14.8047 23.6792C17.0138 23.6792 18.8047 21.8883 18.8047 19.6792C18.8047 17.4701 17.0138 15.6792 14.8047 15.6792C12.5955 15.6792 10.8047 17.4701 10.8047 19.6792C10.8047 21.8883 12.5955 23.6792 14.8047 23.6792Z" fill="#664E27"/>
<path d="M33.2031 23.6792C35.4123 23.6792 37.2031 21.8883 37.2031 19.6792C37.2031 17.4701 35.4123 15.6792 33.2031 15.6792C30.994 15.6792 29.2031 17.4701 29.2031 19.6792C29.2031 21.8883 30.994 23.6792 33.2031 23.6792Z" fill="#664E27"/>
<path d="M16.8032 36.4793C21.4432 32.6393 26.5632 32.6393 31.2032 36.4793C31.7632 36.9593 32.2432 36.1593 31.8432 35.4393C30.4032 32.7193 27.6032 30.2393 24.0032 30.2393C20.4032 30.2393 17.5232 32.7193 16.1632 35.4393C15.7632 36.1593 16.2432 36.9593 16.8032 36.4793Z" fill="#664E27"/>
</svg>
