<svg width="40" height="40" viewBox="0 0 40 40" fill="none" xmlns="http://www.w3.org/2000/svg">
<rect width="40" height="40" rx="20" fill="#F0F1F3"/>
<path opacity="0.4" d="M18.8676 12.6725L15.1251 14.075C14.2626 14.3975 13.5576 15.4175 13.5576 16.34V21.9125C13.5576 22.7975 14.1426 23.96 14.8551 24.4925L18.0801 26.9C19.1376 27.695 20.8776 27.695 21.9351 26.9L25.1601 24.4925C25.8726 23.96 26.4576 22.7975 26.4576 21.9125V16.34C26.4576 15.4175 25.7526 14.3975 24.8901 14.075L21.1476 12.6725C20.5101 12.44 19.4901 12.44 18.8676 12.6725Z" fill="#667085"/>
<path d="M19.925 19.475C19.94 19.475 19.955 19.475 19.97 19.475H19.985H20C20.8625 19.445 21.5375 18.7475 21.545 17.8775C21.545 16.9925 20.825 16.2725 19.94 16.2725C19.055 16.2725 18.335 16.9925 18.335 17.8775C18.35 18.74 19.025 19.445 19.925 19.475Z" fill="#667085"/>
<path d="M21.6426 21.0575C20.7351 20.4575 19.2651 20.4575 18.3501 21.0575C17.9301 21.3425 17.6826 21.7475 17.6826 22.1675C17.6826 22.595 17.9226 22.985 18.3501 23.27C18.8076 23.57 19.4001 23.7275 19.9926 23.7275C20.5851 23.7275 21.1851 23.5775 21.6351 23.27C22.0551 22.985 22.3026 22.58 22.3026 22.16C22.3101 21.7325 22.0701 21.3425 21.6426 21.0575Z" fill="#667085"/>
</svg>
